<svg width="383" height="130" viewBox="0 0 383 130" fill="none" xmlns="http://www.w3.org/2000/svg">
<g filter="url(#filter0_di_5_689)">
<rect x="13.9739" y="6.13501" width="346" height="93" rx="4" fill="#121A46"/>
<g filter="url(#filter1_d_5_689)">
<path d="M42.9489 67.135L54.4689 39.135H61.1889L72.549 67.135H66.2689L63.4289 59.775H51.8689L48.9889 67.135H42.9489ZM53.6689 55.135H61.6689L57.7089 44.815L53.6689 55.135ZM96.4858 56.735C96.4858 58.2283 96.2058 59.6283 95.6458 60.935C95.0858 62.2417 94.3258 63.375 93.3658 64.335C92.4058 65.295 91.2592 66.055 89.9258 66.615C88.6192 67.1483 87.2192 67.415 85.7258 67.415C84.6858 67.415 83.6725 67.2683 82.6858 66.975C81.6992 66.6817 80.7925 66.2683 79.9658 65.735V67.135H74.5658V39.135L80.0458 37.935V47.935C80.8725 47.3217 81.7792 46.855 82.7658 46.535C83.7792 46.1883 84.8192 46.015 85.8858 46.015C87.3525 46.015 88.7258 46.295 90.0058 46.855C91.3125 47.415 92.4458 48.175 93.4058 49.135C94.3658 50.095 95.1125 51.2283 95.6458 52.535C96.2058 53.8417 96.4858 55.2417 96.4858 56.735ZM85.0058 50.695C84.0192 50.695 83.0992 50.8683 82.2458 51.215C81.3925 51.535 80.6592 52.015 80.0458 52.655V60.855C80.6325 61.4417 81.3525 61.9083 82.2058 62.255C83.0858 62.6017 84.0192 62.775 85.0058 62.775C86.7125 62.775 88.1525 62.2017 89.3258 61.055C90.4992 59.8817 91.0858 58.4417 91.0858 56.735C91.0858 55.0283 90.4858 53.6017 89.2858 52.455C88.1125 51.2817 86.6858 50.695 85.0058 50.695ZM99.0355 56.735C99.0355 55.215 99.3155 53.8017 99.8755 52.495C100.462 51.1617 101.249 50.015 102.236 49.055C103.249 48.0683 104.436 47.295 105.796 46.735C107.156 46.175 108.609 45.895 110.156 45.895C111.702 45.895 113.156 46.175 114.516 46.735C115.876 47.295 117.049 48.0683 118.036 49.055C119.049 50.015 119.836 51.1617 120.396 52.495C120.982 53.8017 121.276 55.215 121.276 56.735C121.276 58.255 120.982 59.6817 120.396 61.015C119.836 62.3217 119.049 63.455 118.036 64.415C117.049 65.375 115.876 66.135 114.516 66.695C113.156 67.255 111.702 67.535 110.156 67.535C108.609 67.535 107.156 67.255 105.796 66.695C104.436 66.135 103.249 65.375 102.236 64.415C101.249 63.455 100.462 62.3217 99.8755 61.015C99.3155 59.6817 99.0355 58.255 99.0355 56.735ZM110.156 62.775C111.756 62.775 113.116 62.1883 114.236 61.015C115.356 59.8417 115.916 58.415 115.916 56.735C115.916 55.0283 115.356 53.5883 114.236 52.415C113.116 51.2417 111.756 50.655 110.156 50.655C108.556 50.655 107.196 51.2417 106.076 52.415C104.956 53.5883 104.396 55.0283 104.396 56.735C104.396 58.415 104.956 59.8417 106.076 61.015C107.196 62.1883 108.556 62.775 110.156 62.775ZM129.964 46.295V58.415C129.964 59.7483 130.351 60.815 131.124 61.615C131.924 62.415 132.977 62.815 134.284 62.815C135.217 62.815 136.044 62.6417 136.764 62.295C137.511 61.9217 138.124 61.4017 138.604 60.735V46.295H144.084V67.135H138.604V65.455C137.804 66.1217 136.911 66.6417 135.924 67.015C134.937 67.3617 133.871 67.535 132.724 67.535C130.324 67.535 128.351 66.7617 126.804 65.215C125.257 63.6417 124.484 61.6417 124.484 59.215V46.295H129.964ZM151.195 61.255V50.895H146.915V46.295H151.195V40.975L156.675 39.735V46.295H162.595V50.895H156.675V60.135C156.675 61.1217 156.888 61.815 157.315 62.215C157.742 62.615 158.488 62.815 159.555 62.815C160.062 62.815 160.542 62.7883 160.995 62.735C161.448 62.655 161.942 62.5217 162.475 62.335V66.815C161.888 67.0017 161.182 67.1483 160.355 67.255C159.528 67.3883 158.822 67.455 158.235 67.455C155.915 67.455 154.155 66.935 152.955 65.895C151.782 64.8283 151.195 63.2817 151.195 61.255Z" fill="#F4FCFF"/>
</g>
<line opacity="0.3" x1="188.559" y1="31.7168" x2="188.559" y2="73.5532" stroke="#F4FCFF" stroke-width="0.899151"/>
<path opacity="0.9" d="M216.31 57.635H214.756L212.555 47.5645H214.109L215.677 55.2613L217.95 47.5645H219.388L221.662 55.2613L223.23 47.5645H224.726L222.525 57.635H220.971L218.64 49.7225L216.31 57.635ZM227.851 57.635V47.5645H229.361V51.8804H234.713V47.5645H236.223V57.635H234.713V53.2472H229.361V57.635H227.851ZM249.986 52.5998C249.986 53.3191 249.847 54 249.568 54.6426C249.3 55.2756 248.931 55.8271 248.461 56.2971C247.991 56.7574 247.434 57.1219 246.792 57.3904C246.149 57.659 245.464 57.7933 244.735 57.7933C244.006 57.7933 243.32 57.659 242.677 57.3904C242.035 57.1219 241.479 56.7574 241.009 56.2971C240.548 55.8271 240.179 55.2756 239.901 54.6426C239.632 54 239.498 53.3191 239.498 52.5998C239.498 51.8804 239.632 51.2043 239.901 50.5713C240.179 49.9287 240.548 49.3772 241.009 48.9168C241.479 48.4469 242.035 48.0776 242.677 47.8091C243.32 47.5405 244.006 47.4063 244.735 47.4063C245.464 47.4063 246.149 47.5405 246.792 47.8091C247.434 48.0776 247.991 48.4469 248.461 48.9168C248.931 49.3772 249.3 49.9287 249.568 50.5713C249.847 51.2043 249.986 51.8804 249.986 52.5998ZM248.446 52.5998C248.446 52.0627 248.35 51.5639 248.159 51.1036C247.967 50.6336 247.703 50.2308 247.367 49.8951C247.041 49.5498 246.648 49.2813 246.188 49.0895C245.737 48.8977 245.253 48.8018 244.735 48.8018C244.217 48.8018 243.732 48.8977 243.282 49.0895C242.831 49.2813 242.438 49.5498 242.102 49.8951C241.776 50.2308 241.517 50.6336 241.325 51.1036C241.133 51.5639 241.037 52.0627 241.037 52.5998C241.037 53.1369 241.133 53.6404 241.325 54.1103C241.517 54.5707 241.776 54.9687 242.102 55.3044C242.438 55.6401 242.831 55.9086 243.282 56.1101C243.732 56.3019 244.217 56.3978 244.735 56.3978C245.253 56.3978 245.737 56.3019 246.188 56.1101C246.648 55.9086 247.041 55.6401 247.367 55.3044C247.703 54.9687 247.967 54.5707 248.159 54.1103C248.35 53.6404 248.446 53.1369 248.446 52.5998ZM257.906 57.635V47.5645H259.416V57.635H257.906ZM266.783 57.635L270.955 47.5645H272.724L276.839 57.635H275.199L274.033 54.6858H269.531L268.351 57.635H266.783ZM270.034 53.4342H273.544L271.789 49.0176L270.034 53.4342ZM284.696 56.9157L280.941 49.4348V57.635H279.532V47.5645H281.546L284.711 53.9952L287.861 47.5645H289.875V57.635H288.451V49.4204L284.696 56.9157ZM302.396 52.5278L301.95 52.8443C301.624 53.0745 301.394 53.3383 301.26 53.6356C301.125 53.9233 301.072 54.2878 301.101 54.729H299.864C299.826 54.0672 299.893 53.5397 300.065 53.1465C300.238 52.7436 300.555 52.3744 301.015 52.0387L301.691 51.5496C302.056 51.281 302.315 51.0364 302.468 50.8159C302.631 50.5857 302.713 50.3363 302.713 50.0678C302.713 49.6745 302.53 49.3436 302.166 49.0751C301.801 48.8065 301.36 48.6723 300.842 48.6723C300.392 48.6723 299.965 48.7826 299.562 49.0032C299.169 49.2238 298.838 49.5403 298.569 49.9527L297.433 49.3484C297.807 48.7442 298.301 48.2743 298.915 47.9386C299.528 47.6029 300.195 47.435 300.914 47.435C301.365 47.435 301.787 47.5022 302.18 47.6365C302.573 47.7611 302.914 47.9386 303.202 48.1688C303.489 48.3989 303.715 48.6723 303.878 48.9888C304.041 49.3053 304.122 49.6458 304.122 50.0102C304.122 50.5089 303.998 50.9453 303.748 51.3194C303.499 51.6838 303.048 52.0867 302.396 52.5278ZM300.483 55.923C300.732 55.923 300.948 56.0141 301.13 56.1964C301.312 56.369 301.403 56.58 301.403 56.8294C301.403 57.0787 301.312 57.2945 301.13 57.4768C300.948 57.659 300.732 57.7501 300.483 57.7501C300.233 57.7501 300.017 57.659 299.835 57.4768C299.663 57.2945 299.576 57.0787 299.576 56.8294C299.576 56.58 299.663 56.369 299.835 56.1964C300.017 56.0141 300.233 55.923 300.483 55.923Z" fill="#25C8FF"/>
</g>
<defs>
<filter id="filter0_di_5_689" x="0.48668" y="0.740107" width="381.966" height="128.966" filterUnits="userSpaceOnUse" color-interpolation-filters="sRGB">
<feFlood flood-opacity="0" result="BackgroundImageFix"/>
<feColorMatrix in="SourceAlpha" type="matrix" values="0 0 0 0 0 0 0 0 0 0 0 0 0 0 0 0 0 0 127 0" result="hardAlpha"/>
<feOffset dx="4.49575" dy="12.5881"/>
<feGaussianBlur stdDeviation="8.99151"/>
<feComposite in2="hardAlpha" operator="out"/>
<feColorMatrix type="matrix" values="0 0 0 0 0 0 0 0 0 0 0 0 0 0 0 0 0 0 0.03 0"/>
<feBlend mode="normal" in2="BackgroundImageFix" result="effect1_dropShadow_5_689"/>
<feBlend mode="normal" in="SourceGraphic" in2="effect1_dropShadow_5_689" result="shape"/>
<feColorMatrix in="SourceAlpha" type="matrix" values="0 0 0 0 0 0 0 0 0 0 0 0 0 0 0 0 0 0 127 0" result="hardAlpha"/>
<feOffset dx="3.5966" dy="3.5966"/>
<feGaussianBlur stdDeviation="1.7983"/>
<feComposite in2="hardAlpha" operator="arithmetic" k2="-1" k3="1"/>
<feColorMatrix type="matrix" values="0 0 0 0 0 0 0 0 0 0 0 0 0 0 0 0 0 0 0.06 0"/>
<feBlend mode="normal" in2="shape" result="effect2_innerShadow_5_689"/>
</filter>
<filter id="filter1_d_5_689" x="33.9575" y="28.9436" width="137.629" height="47.5829" filterUnits="userSpaceOnUse" color-interpolation-filters="sRGB">
<feFlood flood-opacity="0" result="BackgroundImageFix"/>
<feColorMatrix in="SourceAlpha" type="matrix" values="0 0 0 0 0 0 0 0 0 0 0 0 0 0 0 0 0 0 127 0" result="hardAlpha"/>
<feOffset/>
<feGaussianBlur stdDeviation="4.49575"/>
<feComposite in2="hardAlpha" operator="out"/>
<feColorMatrix type="matrix" values="0 0 0 0 0 0 0 0 0 0.74902 0 0 0 0 1 0 0 0 0.16 0"/>
<feBlend mode="normal" in2="BackgroundImageFix" result="effect1_dropShadow_5_689"/>
<feBlend mode="normal" in="SourceGraphic" in2="effect1_dropShadow_5_689" result="shape"/>
</filter>
</defs>
</svg>
