<svg width="383" height="130" viewBox="0 0 383 130" fill="none" xmlns="http://www.w3.org/2000/svg">
<g filter="url(#filter0_di_5_694)">
<rect x="13.9739" y="6.13501" width="345.677" height="93" rx="4" fill="#121A46"/>
<g filter="url(#filter1_d_5_694)">
<path d="M80.4991 39.135H93.6591C96.4591 39.135 98.7391 39.855 100.499 41.295C102.259 42.7083 103.139 44.5483 103.139 46.815C103.139 48.0417 102.832 49.1617 102.219 50.175C101.606 51.1883 100.766 52.0283 99.6991 52.695C101.032 53.335 102.099 54.215 102.899 55.335C103.699 56.4283 104.099 57.655 104.099 59.015C104.099 61.4417 103.192 63.4017 101.379 64.895C99.5924 66.3883 97.2324 67.135 94.2991 67.135H80.4991V39.135ZM93.2991 43.935H86.2991V50.575H93.2991C94.5258 50.575 95.5124 50.2817 96.2591 49.695C97.0058 49.0817 97.3791 48.2683 97.3791 47.255C97.3791 46.2417 97.0058 45.4417 96.2591 44.855C95.5124 44.2417 94.5258 43.935 93.2991 43.935ZM93.8591 62.335C95.1924 62.335 96.2591 62.015 97.0591 61.375C97.8591 60.7083 98.2591 59.815 98.2591 58.695C98.2591 57.6283 97.8591 56.7617 97.0591 56.095C96.2591 55.4283 95.1924 55.095 93.8591 55.095H86.2991V62.335H93.8591ZM113.275 37.935V67.135H107.795V39.135L113.275 37.935ZM116.601 56.735C116.601 55.215 116.881 53.8017 117.441 52.495C118.028 51.1617 118.814 50.015 119.801 49.055C120.814 48.0683 122.001 47.295 123.361 46.735C124.721 46.175 126.174 45.895 127.721 45.895C129.268 45.895 130.721 46.175 132.081 46.735C133.441 47.295 134.614 48.0683 135.601 49.055C136.614 50.015 137.401 51.1617 137.961 52.495C138.548 53.8017 138.841 55.215 138.841 56.735C138.841 58.255 138.548 59.6817 137.961 61.015C137.401 62.3217 136.614 63.455 135.601 64.415C134.614 65.375 133.441 66.135 132.081 66.695C130.721 67.255 129.268 67.535 127.721 67.535C126.174 67.535 124.721 67.255 123.361 66.695C122.001 66.135 120.814 65.375 119.801 64.415C118.814 63.455 118.028 62.3217 117.441 61.015C116.881 59.6817 116.601 58.255 116.601 56.735ZM127.721 62.775C129.321 62.775 130.681 62.1883 131.801 61.015C132.921 59.8417 133.481 58.415 133.481 56.735C133.481 55.0283 132.921 53.5883 131.801 52.415C130.681 51.2417 129.321 50.655 127.721 50.655C126.121 50.655 124.761 51.2417 123.641 52.415C122.521 53.5883 121.961 55.0283 121.961 56.735C121.961 58.415 122.521 59.8417 123.641 61.015C124.761 62.1883 126.121 62.775 127.721 62.775ZM151.966 67.255C150.499 67.255 149.112 66.975 147.806 66.415C146.526 65.855 145.406 65.095 144.446 64.135C143.512 63.175 142.766 62.055 142.206 60.775C141.672 59.4683 141.406 58.0683 141.406 56.575C141.406 55.1083 141.686 53.735 142.246 52.455C142.806 51.1483 143.566 50.015 144.526 49.055C145.486 48.095 146.619 47.3483 147.926 46.815C149.232 46.255 150.632 45.975 152.126 45.975C153.166 45.975 154.152 46.1217 155.086 46.415C156.046 46.7083 156.939 47.1217 157.766 47.655V46.295H163.166V67.135C163.166 69.8817 162.272 72.0017 160.486 73.495C158.726 74.9883 156.179 75.735 152.846 75.735C151.246 75.735 149.699 75.575 148.206 75.255C146.739 74.935 145.392 74.4683 144.166 73.855L146.086 69.575C147.232 70.135 148.352 70.5483 149.446 70.815C150.539 71.1083 151.632 71.255 152.726 71.255C154.352 71.255 155.579 70.895 156.406 70.175C157.259 69.4817 157.686 68.455 157.686 67.095V65.375C156.859 65.9883 155.952 66.455 154.966 66.775C154.006 67.095 153.006 67.255 151.966 67.255ZM146.806 56.575C146.806 58.255 147.379 59.6817 148.526 60.855C149.699 62.0283 151.126 62.615 152.806 62.615C153.792 62.615 154.699 62.455 155.526 62.135C156.352 61.7883 157.072 61.3217 157.686 60.735V52.535C157.099 51.9483 156.379 51.495 155.526 51.175C154.672 50.8283 153.779 50.655 152.846 50.655C151.166 50.655 149.739 51.2283 148.566 52.375C147.392 53.5217 146.806 54.9217 146.806 56.575Z" fill="#F4FCFF"/>
</g>
<line opacity="0.3" x1="189.772" y1="31.7168" x2="189.772" y2="73.5532" stroke="#F4FCFF" stroke-width="0.899151"/>
<path opacity="0.9" d="M217.524 47.9546H215.97L213.769 37.8841H215.323L216.891 45.5808L219.164 37.8841H220.602L222.875 45.5808L224.444 37.8841H225.94L223.739 47.9546H222.185L219.854 40.0421L217.524 47.9546ZM229.065 47.9546V37.8841H230.575V42.2H235.927V37.8841H237.437V47.9546H235.927V43.5667H230.575V47.9546H229.065ZM240.136 47.9546L244.309 37.8841H246.078L250.193 47.9546H248.552L247.387 45.0054H242.884L241.705 47.9546H240.136ZM243.388 43.7538H246.898L245.143 39.3371L243.388 43.7538ZM250.212 39.222V37.8841H258.8V39.222H255.261V47.9546H253.751V39.222H250.212ZM266.38 47.9546V37.8841H267.89V47.9546H266.38ZM275.487 39.222V37.8841H284.076V39.222H280.537V47.9546H279.026V39.222H275.487ZM286.994 47.9546V37.8841H288.505V42.2H293.856V37.8841H295.367V47.9546H293.856V43.5667H288.505V47.9546H286.994ZM299.073 47.9546V37.8841H300.584V47.9546H299.073ZM304.296 37.8841H305.778L311.388 45.3506V37.8841H312.813V47.9546H311.489L305.72 40.2435V47.9546H304.296V37.8841ZM316.529 47.9546V37.8841H318.04V42.5741L322.917 37.8841H324.816L319.622 42.7467L324.989 47.9546H322.917L318.04 43.1639V47.9546H316.529ZM213.567 60.222V58.8841H222.156V60.222H218.617V68.9546H217.107V60.222H213.567ZM225.075 68.9546V58.8841H226.585V63.2H231.937V58.8841H233.447V68.9546H231.937V64.5667H226.585V68.9546H225.075ZM237.154 68.9546V58.8841H244.577V60.2077H238.664V63.2288H242.548V64.5236H238.664V67.631H244.634V68.9546H237.154ZM246.935 67.2858L247.856 66.2212C248.403 66.7487 248.959 67.1467 249.525 67.4152C250.1 67.6742 250.7 67.8037 251.323 67.8037C252.042 67.8037 252.627 67.6454 253.078 67.3289C253.539 67.0124 253.769 66.6096 253.769 66.1205C253.769 65.6793 253.611 65.3388 253.294 65.099C252.978 64.8497 252.455 64.6626 251.726 64.538L250.043 64.2646C249.122 64.1112 248.431 63.8186 247.971 63.387C247.52 62.9459 247.295 62.3656 247.295 61.6463C247.295 60.7735 247.635 60.0734 248.316 59.5459C248.997 59.0184 249.894 58.7546 251.007 58.7546C251.726 58.7546 252.44 58.8745 253.15 59.1143C253.86 59.3445 254.498 59.6802 255.064 60.1213L254.229 61.2722C253.682 60.8598 253.136 60.5529 252.589 60.3515C252.042 60.1405 251.491 60.035 250.935 60.035C250.282 60.035 249.755 60.1741 249.352 60.4522C248.949 60.7304 248.748 61.09 248.748 61.5312C248.748 61.9436 248.887 62.2601 249.165 62.4807C249.443 62.6917 249.904 62.85 250.546 62.9555L252.172 63.2144C253.227 63.387 254.004 63.7036 254.503 64.1639C255.011 64.6147 255.265 65.2285 255.265 66.0054C255.265 66.4657 255.169 66.8877 254.977 67.2714C254.785 67.655 254.512 67.9811 254.157 68.2497C253.812 68.5182 253.39 68.7292 252.891 68.8827C252.393 69.0265 251.846 69.0985 251.251 69.0985C250.446 69.0985 249.669 68.9402 248.921 68.6237C248.172 68.3072 247.511 67.8612 246.935 67.2858ZM258.319 68.9546V58.8841H265.742V60.2077H259.83V63.2288H263.714V64.5236H259.83V67.631H265.8V68.9546H258.319ZM273.668 68.9546V58.8841H277.221C277.979 58.8841 278.679 59.0136 279.322 59.2725C279.974 59.5219 280.535 59.872 281.005 60.3227C281.485 60.7639 281.859 61.2962 282.127 61.9196C282.396 62.543 282.53 63.2144 282.53 63.9337C282.53 64.6531 282.396 65.3196 282.127 65.9334C281.859 66.5473 281.489 67.0796 281.019 67.5303C280.55 67.9715 279.988 68.3216 279.336 68.5805C278.684 68.8299 277.979 68.9546 277.221 68.9546H273.668ZM277.25 60.2364H275.179V67.6023H277.25C277.768 67.6023 278.257 67.5112 278.718 67.3289C279.178 67.1371 279.571 66.8782 279.897 66.5521C280.233 66.2164 280.497 65.8279 280.689 65.3868C280.88 64.936 280.976 64.4516 280.976 63.9337C280.976 63.4158 280.88 62.9315 280.689 62.4807C280.497 62.0203 280.233 61.6271 279.897 61.301C279.571 60.9653 279.178 60.7064 278.718 60.5242C278.257 60.3323 277.768 60.2364 277.25 60.2364ZM284.248 68.9546L288.42 58.8841H290.19L294.304 68.9546H292.664L291.499 66.0054H286.996L285.816 68.9546H284.248ZM287.5 64.7538H291.01L289.255 60.3371L287.5 64.7538ZM298.009 68.9546V64.9839L293.952 58.8841H295.707L298.8 63.6316L301.908 58.8841H303.577L299.52 64.9696V68.9546H298.009ZM305.135 67.2858L306.056 66.2212C306.602 66.7487 307.159 67.1467 307.725 67.4152C308.3 67.6742 308.899 67.8037 309.523 67.8037C310.242 67.8037 310.827 67.6454 311.278 67.3289C311.738 67.0124 311.969 66.6096 311.969 66.1205C311.969 65.6793 311.81 65.3388 311.494 65.099C311.177 64.8497 310.655 64.6626 309.926 64.538L308.242 64.2646C307.322 64.1112 306.631 63.8186 306.171 63.387C305.72 62.9459 305.495 62.3656 305.495 61.6463C305.495 60.7735 305.835 60.0734 306.516 59.5459C307.197 59.0184 308.094 58.7546 309.206 58.7546C309.926 58.7546 310.64 58.8745 311.35 59.1143C312.06 59.3445 312.697 59.6802 313.263 60.1213L312.429 61.2722C311.882 60.8598 311.336 60.5529 310.789 60.3515C310.242 60.1405 309.691 60.035 309.134 60.035C308.482 60.035 307.955 60.1741 307.552 60.4522C307.149 60.7304 306.948 61.09 306.948 61.5312C306.948 61.9436 307.087 62.2601 307.365 62.4807C307.643 62.6917 308.103 62.85 308.746 62.9555L310.372 63.2144C311.427 63.387 312.204 63.7036 312.702 64.1639C313.211 64.6147 313.465 65.2285 313.465 66.0054C313.465 66.4657 313.369 66.8877 313.177 67.2714C312.985 67.655 312.712 67.9811 312.357 68.2497C312.012 68.5182 311.59 68.7292 311.091 68.8827C310.592 69.0265 310.046 69.0985 309.451 69.0985C308.645 69.0985 307.868 68.9402 307.12 68.6237C306.372 68.3072 305.71 67.8612 305.135 67.2858Z" fill="#25C8FF"/>
</g>
<defs>
<filter id="filter0_di_5_694" x="0.48668" y="0.740107" width="381.643" height="128.966" filterUnits="userSpaceOnUse" color-interpolation-filters="sRGB">
<feFlood flood-opacity="0" result="BackgroundImageFix"/>
<feColorMatrix in="SourceAlpha" type="matrix" values="0 0 0 0 0 0 0 0 0 0 0 0 0 0 0 0 0 0 127 0" result="hardAlpha"/>
<feOffset dx="4.49575" dy="12.5881"/>
<feGaussianBlur stdDeviation="8.99151"/>
<feComposite in2="hardAlpha" operator="out"/>
<feColorMatrix type="matrix" values="0 0 0 0 0 0 0 0 0 0 0 0 0 0 0 0 0 0 0.03 0"/>
<feBlend mode="normal" in2="BackgroundImageFix" result="effect1_dropShadow_5_694"/>
<feBlend mode="normal" in="SourceGraphic" in2="effect1_dropShadow_5_694" result="shape"/>
<feColorMatrix in="SourceAlpha" type="matrix" values="0 0 0 0 0 0 0 0 0 0 0 0 0 0 0 0 0 0 127 0" result="hardAlpha"/>
<feOffset dx="3.5966" dy="3.5966"/>
<feGaussianBlur stdDeviation="1.7983"/>
<feComposite in2="hardAlpha" operator="arithmetic" k2="-1" k3="1"/>
<feColorMatrix type="matrix" values="0 0 0 0 0 0 0 0 0 0 0 0 0 0 0 0 0 0 0.06 0"/>
<feBlend mode="normal" in2="shape" result="effect2_innerShadow_5_694"/>
</filter>
<filter id="filter1_d_5_694" x="71.5076" y="28.9436" width="100.65" height="55.7831" filterUnits="userSpaceOnUse" color-interpolation-filters="sRGB">
<feFlood flood-opacity="0" result="BackgroundImageFix"/>
<feColorMatrix in="SourceAlpha" type="matrix" values="0 0 0 0 0 0 0 0 0 0 0 0 0 0 0 0 0 0 127 0" result="hardAlpha"/>
<feOffset/>
<feGaussianBlur stdDeviation="4.49575"/>
<feComposite in2="hardAlpha" operator="out"/>
<feColorMatrix type="matrix" values="0 0 0 0 0 0 0 0 0 0.74902 0 0 0 0 1 0 0 0 0.16 0"/>
<feBlend mode="normal" in2="BackgroundImageFix" result="effect1_dropShadow_5_694"/>
<feBlend mode="normal" in="SourceGraphic" in2="effect1_dropShadow_5_694" result="shape"/>
</filter>
</defs>
</svg>
