<svg width="382" height="130" viewBox="0 0 382 130" fill="none" xmlns="http://www.w3.org/2000/svg">
<g filter="url(#filter0_di_5_688)">
<rect x="14.2464" y="6.13501" width="344.619" height="93" rx="4" fill="#121A46"/>
<g filter="url(#filter1_d_5_688)">
<path d="M77.6552 67.135H71.5752L65.3752 39.135H71.3352L75.1352 58.135L80.6152 39.135H86.0552L91.4952 58.055L95.2952 39.135H101.055L94.8552 67.135H88.7752L83.2152 47.575L77.6552 67.135ZM101.355 56.735C101.355 55.215 101.635 53.8017 102.195 52.495C102.782 51.1617 103.569 50.015 104.555 49.055C105.569 48.0683 106.755 47.295 108.115 46.735C109.475 46.175 110.929 45.895 112.475 45.895C114.022 45.895 115.475 46.175 116.835 46.735C118.195 47.295 119.369 48.0683 120.355 49.055C121.369 50.015 122.155 51.1617 122.715 52.495C123.302 53.8017 123.595 55.215 123.595 56.735C123.595 58.255 123.302 59.6817 122.715 61.015C122.155 62.3217 121.369 63.455 120.355 64.415C119.369 65.375 118.195 66.135 116.835 66.695C115.475 67.255 114.022 67.535 112.475 67.535C110.929 67.535 109.475 67.255 108.115 66.695C106.755 66.135 105.569 65.375 104.555 64.415C103.569 63.455 102.782 62.3217 102.195 61.015C101.635 59.6817 101.355 58.255 101.355 56.735ZM112.475 62.775C114.075 62.775 115.435 62.1883 116.555 61.015C117.675 59.8417 118.235 58.415 118.235 56.735C118.235 55.0283 117.675 53.5883 116.555 52.415C115.435 51.2417 114.075 50.655 112.475 50.655C110.875 50.655 109.515 51.2417 108.395 52.415C107.275 53.5883 106.715 55.0283 106.715 56.735C106.715 58.415 107.275 59.8417 108.395 61.015C109.515 62.1883 110.875 62.775 112.475 62.775ZM126.964 67.135V46.295H132.444V48.575C133.111 47.6683 133.911 46.9883 134.844 46.535C135.804 46.055 136.857 45.815 138.004 45.815C138.537 45.8417 138.977 45.895 139.324 45.975C139.697 46.0283 140.017 46.135 140.284 46.295V51.095C139.884 50.9083 139.444 50.775 138.964 50.695C138.484 50.5883 137.991 50.535 137.484 50.535C136.417 50.535 135.431 50.8017 134.524 51.335C133.644 51.8683 132.951 52.6417 132.444 53.655V67.135H126.964ZM143.253 67.135V39.135L148.733 37.935V55.095L157.733 46.295H163.933L154.173 55.855L164.533 67.135H157.533L148.733 57.615V67.135H143.253Z" fill="#F4FCFF"/>
</g>
<line opacity="0.3" x1="188.277" y1="31.7168" x2="188.277" y2="73.5532" stroke="#F4FCFF" stroke-width="0.899151"/>
<path opacity="0.9" d="M216.028 47.9546H214.474L212.273 37.8841H213.827L215.395 45.5808L217.668 37.8841H219.107L221.38 45.5808L222.948 37.8841H224.444L222.243 47.9546H220.689L218.359 40.0421L216.028 47.9546ZM227.569 47.9546V37.8841H229.08V42.2H234.431V37.8841H235.942V47.9546H234.431V43.5667H229.08V47.9546H227.569ZM238.641 47.9546L242.813 37.8841H244.583L248.697 47.9546H247.057L245.892 45.0054H241.389L240.209 47.9546H238.641ZM241.892 43.7538H245.403L243.647 39.3371L241.892 43.7538ZM248.716 39.222V37.8841H257.305V39.222H253.766V47.9546H252.255V39.222H248.716ZM264.884 47.9546V37.8841H266.395V47.9546H264.884ZM279.66 46.7174C280.235 46.7174 280.787 46.6023 281.314 46.3721C281.842 46.1323 282.288 45.7966 282.652 45.365L283.645 46.3721C283.156 46.9092 282.551 47.336 281.832 47.6525C281.122 47.9594 280.384 48.1128 279.616 48.1128C278.878 48.1128 278.183 47.9786 277.53 47.71C276.888 47.4415 276.332 47.077 275.862 46.6167C275.392 46.1467 275.018 45.5952 274.739 44.9622C274.471 44.3196 274.337 43.6387 274.337 42.9193C274.337 42.1904 274.471 41.5095 274.739 40.8765C275.018 40.2435 275.392 39.6968 275.862 39.2364C276.332 38.7665 276.888 38.3972 277.53 38.1287C278.183 37.8601 278.878 37.7259 279.616 37.7259C280.403 37.7259 281.156 37.8841 281.875 38.2006C282.604 38.5075 283.203 38.9295 283.673 39.4666L282.666 40.5024C282.283 40.0612 281.822 39.7208 281.285 39.481C280.748 39.2412 280.192 39.1213 279.616 39.1213C279.089 39.1213 278.595 39.2172 278.135 39.4091C277.674 39.6009 277.276 39.8694 276.941 40.2147C276.614 40.5504 276.356 40.9532 276.164 41.4232C275.972 41.8835 275.876 42.3823 275.876 42.9193C275.876 43.4564 275.972 43.96 276.164 44.4299C276.356 44.8903 276.619 45.2883 276.955 45.624C277.291 45.9597 277.689 46.2282 278.149 46.4296C278.619 46.6214 279.123 46.7174 279.66 46.7174ZM285.77 47.9546L289.942 37.8841H291.711L295.826 47.9546H294.186L293.021 45.0054H288.518L287.338 47.9546H285.77ZM289.021 43.7538H292.532L290.776 39.3371L289.021 43.7538ZM298.519 37.8841H300.001L305.611 45.3506V37.8841H307.035V47.9546H305.712L299.943 40.2435V47.9546H298.519V37.8841ZM212.849 68.9546V58.8841H216.402C217.16 58.8841 217.86 59.0136 218.503 59.2725C219.155 59.5219 219.716 59.872 220.186 60.3227C220.665 60.7639 221.039 61.2962 221.308 61.9196C221.577 62.543 221.711 63.2144 221.711 63.9337C221.711 64.6531 221.577 65.3196 221.308 65.9334C221.039 66.5473 220.67 67.0796 220.2 67.5303C219.73 67.9715 219.169 68.3216 218.517 68.5805C217.865 68.8299 217.16 68.9546 216.402 68.9546H212.849ZM216.431 60.2364H214.359V67.6023H216.431C216.949 67.6023 217.438 67.5112 217.898 67.3289C218.359 67.1371 218.752 66.8782 219.078 66.5521C219.414 66.2164 219.678 65.8279 219.869 65.3868C220.061 64.936 220.157 64.4516 220.157 63.9337C220.157 63.4158 220.061 62.9315 219.869 62.4807C219.678 62.0203 219.414 61.6271 219.078 61.301C218.752 60.9653 218.359 60.7064 217.898 60.5242C217.438 60.3323 216.949 60.2364 216.431 60.2364ZM235.068 63.9193C235.068 64.6387 234.929 65.3196 234.651 65.9622C234.382 66.5952 234.013 67.1467 233.543 67.6167C233.073 68.077 232.517 68.4415 231.874 68.71C231.232 68.9786 230.546 69.1128 229.817 69.1128C229.088 69.1128 228.402 68.9786 227.76 68.71C227.117 68.4415 226.561 68.077 226.091 67.6167C225.631 67.1467 225.261 66.5952 224.983 65.9622C224.715 65.3196 224.58 64.6387 224.58 63.9193C224.58 63.2 224.715 62.5239 224.983 61.8909C225.261 61.2483 225.631 60.6968 226.091 60.2364C226.561 59.7665 227.117 59.3972 227.76 59.1287C228.402 58.8601 229.088 58.7259 229.817 58.7259C230.546 58.7259 231.232 58.8601 231.874 59.1287C232.517 59.3972 233.073 59.7665 233.543 60.2364C234.013 60.6968 234.382 61.2483 234.651 61.8909C234.929 62.5239 235.068 63.2 235.068 63.9193ZM233.529 63.9193C233.529 63.3823 233.433 62.8835 233.241 62.4232C233.049 61.9532 232.786 61.5504 232.45 61.2147C232.124 60.8694 231.731 60.6009 231.27 60.4091C230.819 60.2172 230.335 60.1213 229.817 60.1213C229.299 60.1213 228.815 60.2172 228.364 60.4091C227.913 60.6009 227.52 60.8694 227.184 61.2147C226.858 61.5504 226.599 61.9532 226.408 62.4232C226.216 62.8835 226.12 63.3823 226.12 63.9193C226.12 64.4564 226.216 64.96 226.408 65.4299C226.599 65.8903 226.858 66.2883 227.184 66.624C227.52 66.9597 227.913 67.2282 228.364 67.4296C228.815 67.6214 229.299 67.7174 229.817 67.7174C230.335 67.7174 230.819 67.6214 231.27 67.4296C231.731 67.2282 232.124 66.9597 232.45 66.624C232.786 66.2883 233.049 65.8903 233.241 65.4299C233.433 64.96 233.529 64.4564 233.529 63.9193ZM242.988 68.9546V58.8841H250.426V60.2077H244.499V63.3007H248.412V64.5955H244.499V68.9546H242.988ZM262.946 63.9193C262.946 64.6387 262.807 65.3196 262.529 65.9622C262.26 66.5952 261.891 67.1467 261.421 67.6167C260.951 68.077 260.395 68.4415 259.752 68.71C259.109 68.9786 258.424 69.1128 257.695 69.1128C256.966 69.1128 256.28 68.9786 255.637 68.71C254.995 68.4415 254.439 68.077 253.969 67.6167C253.508 67.1467 253.139 66.5952 252.861 65.9622C252.592 65.3196 252.458 64.6387 252.458 63.9193C252.458 63.2 252.592 62.5239 252.861 61.8909C253.139 61.2483 253.508 60.6968 253.969 60.2364C254.439 59.7665 254.995 59.3972 255.637 59.1287C256.28 58.8601 256.966 58.7259 257.695 58.7259C258.424 58.7259 259.109 58.8601 259.752 59.1287C260.395 59.3972 260.951 59.7665 261.421 60.2364C261.891 60.6968 262.26 61.2483 262.529 61.8909C262.807 62.5239 262.946 63.2 262.946 63.9193ZM261.406 63.9193C261.406 63.3823 261.311 62.8835 261.119 62.4232C260.927 61.9532 260.663 61.5504 260.327 61.2147C260.001 60.8694 259.608 60.6009 259.148 60.4091C258.697 60.2172 258.213 60.1213 257.695 60.1213C257.177 60.1213 256.692 60.2172 256.242 60.4091C255.791 60.6009 255.398 60.8694 255.062 61.2147C254.736 61.5504 254.477 61.9532 254.285 62.4232C254.093 62.8835 253.997 63.3823 253.997 63.9193C253.997 64.4564 254.093 64.96 254.285 65.4299C254.477 65.8903 254.736 66.2883 255.062 66.624C255.398 66.9597 255.791 67.2282 256.242 67.4296C256.692 67.6214 257.177 67.7174 257.695 67.7174C258.213 67.7174 258.697 67.6214 259.148 67.4296C259.608 67.2282 260.001 66.9597 260.327 66.624C260.663 66.2883 260.927 65.8903 261.119 65.4299C261.311 64.96 261.406 64.4564 261.406 63.9193ZM266.205 68.9546V58.8841H270.78C271.777 58.8841 272.583 59.1622 273.197 59.7185C273.82 60.2652 274.132 60.9797 274.132 61.8621C274.132 62.5239 273.945 63.0993 273.571 63.5885C273.197 64.068 272.693 64.4133 272.06 64.6243L274.305 68.9546H272.636L270.55 64.8257H267.716V68.9546H266.205ZM270.65 60.2077H267.716V63.5741H270.65C271.235 63.5741 271.705 63.4206 272.06 63.1137C272.425 62.7972 272.607 62.3896 272.607 61.8909C272.607 61.3825 272.425 60.9749 272.06 60.668C271.705 60.3611 271.235 60.2077 270.65 60.2077ZM285.025 68.9546V64.9839L280.968 58.8841H282.723L285.816 63.6316L288.923 58.8841H290.592L286.535 64.9696V68.9546H285.025ZM302.34 63.9193C302.34 64.6387 302.201 65.3196 301.923 65.9622C301.655 66.5952 301.285 67.1467 300.815 67.6167C300.345 68.077 299.789 68.4415 299.147 68.71C298.504 68.9786 297.818 69.1128 297.089 69.1128C296.36 69.1128 295.675 68.9786 295.032 68.71C294.389 68.4415 293.833 68.077 293.363 67.6167C292.903 67.1467 292.534 66.5952 292.255 65.9622C291.987 65.3196 291.853 64.6387 291.853 63.9193C291.853 63.2 291.987 62.5239 292.255 61.8909C292.534 61.2483 292.903 60.6968 293.363 60.2364C293.833 59.7665 294.389 59.3972 295.032 59.1287C295.675 58.8601 296.36 58.7259 297.089 58.7259C297.818 58.7259 298.504 58.8601 299.147 59.1287C299.789 59.3972 300.345 59.7665 300.815 60.2364C301.285 60.6968 301.655 61.2483 301.923 61.8909C302.201 62.5239 302.34 63.2 302.34 63.9193ZM300.801 63.9193C300.801 63.3823 300.705 62.8835 300.513 62.4232C300.321 61.9532 300.058 61.5504 299.722 61.2147C299.396 60.8694 299.003 60.6009 298.542 60.4091C298.092 60.2172 297.607 60.1213 297.089 60.1213C296.571 60.1213 296.087 60.2172 295.636 60.4091C295.186 60.6009 294.792 60.8694 294.457 61.2147C294.131 61.5504 293.872 61.9532 293.68 62.4232C293.488 62.8835 293.392 63.3823 293.392 63.9193C293.392 64.4564 293.488 64.96 293.68 65.4299C293.872 65.8903 294.131 66.2883 294.457 66.624C294.792 66.9597 295.186 67.2282 295.636 67.4296C296.087 67.6214 296.571 67.7174 297.089 67.7174C297.607 67.7174 298.092 67.6214 298.542 67.4296C299.003 67.2282 299.396 66.9597 299.722 66.624C300.058 66.2883 300.321 65.8903 300.513 65.4299C300.705 64.96 300.801 64.4564 300.801 63.9193ZM313.987 64.6531C313.987 65.334 313.886 65.9526 313.685 66.5089C313.483 67.0556 313.196 67.5207 312.822 67.9044C312.457 68.288 312.006 68.5853 311.469 68.7963C310.942 69.0073 310.352 69.1128 309.7 69.1128C308.395 69.1128 307.355 68.71 306.578 67.9044C305.811 67.0987 305.427 66.015 305.427 64.6531V58.8841H306.937V64.6531C306.937 65.5834 307.187 66.3267 307.686 66.8829C308.194 67.4392 308.865 67.7174 309.7 67.7174C310.544 67.7174 311.215 67.4392 311.714 66.8829C312.222 66.3267 312.476 65.5834 312.476 64.6531V58.8841H313.987V64.6531ZM326.315 63.8474L325.869 64.1639C325.542 64.3941 325.312 64.6578 325.178 64.9552C325.044 65.2429 324.991 65.6074 325.02 66.0485H323.783C323.744 65.3868 323.811 64.8593 323.984 64.466C324.157 64.0632 324.473 63.694 324.933 63.3583L325.61 62.8691C325.974 62.6006 326.233 62.356 326.386 62.1354C326.549 61.9052 326.631 61.6559 326.631 61.3873C326.631 60.9941 326.449 60.6632 326.084 60.3947C325.72 60.1261 325.279 59.9919 324.761 59.9919C324.31 59.9919 323.883 60.1022 323.48 60.3227C323.087 60.5433 322.756 60.8598 322.488 61.2722L321.351 60.668C321.725 60.0638 322.219 59.5938 322.833 59.2581C323.447 58.9225 324.113 58.7546 324.833 58.7546C325.283 58.7546 325.705 58.8218 326.099 58.956C326.492 59.0807 326.832 59.2581 327.12 59.4883C327.408 59.7185 327.633 59.9919 327.796 60.3084C327.959 60.6249 328.041 60.9653 328.041 61.3298C328.041 61.8285 327.916 62.2649 327.667 62.639C327.417 63.0034 326.967 63.4062 326.315 63.8474ZM324.401 67.2426C324.65 67.2426 324.866 67.3337 325.049 67.5159C325.231 67.6886 325.322 67.8996 325.322 68.149C325.322 68.3983 325.231 68.6141 325.049 68.7963C324.866 68.9786 324.65 69.0697 324.401 69.0697C324.152 69.0697 323.936 68.9786 323.754 68.7963C323.581 68.6141 323.495 68.3983 323.495 68.149C323.495 67.8996 323.581 67.6886 323.754 67.5159C323.936 67.3337 324.152 67.2426 324.401 67.2426Z" fill="#25C8FF"/>
</g>
<defs>
<filter id="filter0_di_5_688" x="0.75914" y="0.740107" width="380.585" height="128.966" filterUnits="userSpaceOnUse" color-interpolation-filters="sRGB">
<feFlood flood-opacity="0" result="BackgroundImageFix"/>
<feColorMatrix in="SourceAlpha" type="matrix" values="0 0 0 0 0 0 0 0 0 0 0 0 0 0 0 0 0 0 127 0" result="hardAlpha"/>
<feOffset dx="4.49575" dy="12.5881"/>
<feGaussianBlur stdDeviation="8.99151"/>
<feComposite in2="hardAlpha" operator="out"/>
<feColorMatrix type="matrix" values="0 0 0 0 0 0 0 0 0 0 0 0 0 0 0 0 0 0 0.03 0"/>
<feBlend mode="normal" in2="BackgroundImageFix" result="effect1_dropShadow_5_688"/>
<feBlend mode="normal" in="SourceGraphic" in2="effect1_dropShadow_5_688" result="shape"/>
<feColorMatrix in="SourceAlpha" type="matrix" values="0 0 0 0 0 0 0 0 0 0 0 0 0 0 0 0 0 0 127 0" result="hardAlpha"/>
<feOffset dx="3.5966" dy="3.5966"/>
<feGaussianBlur stdDeviation="1.7983"/>
<feComposite in2="hardAlpha" operator="arithmetic" k2="-1" k3="1"/>
<feColorMatrix type="matrix" values="0 0 0 0 0 0 0 0 0 0 0 0 0 0 0 0 0 0 0.06 0"/>
<feBlend mode="normal" in2="shape" result="effect2_innerShadow_5_688"/>
</filter>
<filter id="filter1_d_5_688" x="56.3837" y="28.9436" width="117.141" height="47.5829" filterUnits="userSpaceOnUse" color-interpolation-filters="sRGB">
<feFlood flood-opacity="0" result="BackgroundImageFix"/>
<feColorMatrix in="SourceAlpha" type="matrix" values="0 0 0 0 0 0 0 0 0 0 0 0 0 0 0 0 0 0 127 0" result="hardAlpha"/>
<feOffset/>
<feGaussianBlur stdDeviation="4.49575"/>
<feComposite in2="hardAlpha" operator="out"/>
<feColorMatrix type="matrix" values="0 0 0 0 0 0 0 0 0 0.74902 0 0 0 0 1 0 0 0 0.16 0"/>
<feBlend mode="normal" in2="BackgroundImageFix" result="effect1_dropShadow_5_688"/>
<feBlend mode="normal" in="SourceGraphic" in2="effect1_dropShadow_5_688" result="shape"/>
</filter>
</defs>
</svg>
