<svg width="354" height="700" viewBox="0 0 354 700" fill="none" xmlns="http://www.w3.org/2000/svg">
<path d="M105.092 415.6L49.916 309.58V427H19.364V267.4H61.772L105.548 353.128L149.324 267.4H191.732V427H160.496V309.808L105.092 415.6ZM220.423 427V267.4H343.087V296.128H253.483V332.608H312.535V360.424H253.483V398.272H343.999V427H220.423Z" fill="#F4FCFF"/>
<g filter="url(#filter0_d_14_159)">
<path d="M244.328 374.168L228.722 385.15C216.777 393.627 208.299 402.875 203.29 412.894C198.666 422.527 196.547 435.051 196.932 450.464H130.462C128.921 423.876 131.425 402.875 137.976 387.462C144.527 372.049 156.857 357.599 174.968 344.112L204.446 322.726C216.391 314.249 225.061 306.349 230.456 299.028C235.851 291.321 238.548 283.229 238.548 274.752C238.548 261.651 232.575 250.861 220.63 242.384C209.07 233.521 194.427 229.09 176.702 229.09C158.977 229.09 142.793 233.521 128.15 242.384C113.893 250.861 102.911 262.807 95.204 278.22L31.624 251.632C44.34 224.273 63.7993 202.695 90.002 186.896C116.59 170.712 146.453 162.62 179.592 162.62C198.859 162.62 216.777 165.317 233.346 170.712C250.301 176.107 264.751 183.621 276.696 193.254C289.027 202.887 298.66 214.255 305.596 227.356C312.532 240.457 316 254.715 316 270.128C316 290.936 310.605 308.854 299.816 323.882C289.412 338.91 270.916 355.672 244.328 374.168ZM163.986 484.566C177.087 484.566 188.069 489.19 196.932 498.438C206.18 507.686 210.804 518.861 210.804 531.962C210.804 544.678 206.18 555.66 196.932 564.908C188.069 574.156 177.087 578.78 163.986 578.78C151.27 578.78 140.288 574.156 131.04 564.908C121.792 555.66 117.168 544.678 117.168 531.962C117.168 518.861 121.792 507.686 131.04 498.438C140.288 489.19 151.27 484.566 163.986 484.566Z" fill="#25C8FF" fill-opacity="0.8" shape-rendering="crispEdges"/>
</g>
<defs>
<filter id="filter0_d_14_159" x="0.623993" y="131.62" width="344.376" height="476.16" filterUnits="userSpaceOnUse" color-interpolation-filters="sRGB">
<feFlood flood-opacity="0" result="BackgroundImageFix"/>
<feColorMatrix in="SourceAlpha" type="matrix" values="0 0 0 0 0 0 0 0 0 0 0 0 0 0 0 0 0 0 127 0" result="hardAlpha"/>
<feOffset dx="-1" dy="-1"/>
<feGaussianBlur stdDeviation="15"/>
<feComposite in2="hardAlpha" operator="out"/>
<feColorMatrix type="matrix" values="0 0 0 0 0 0 0 0 0 0 0 0 0 0 0 0 0 0 0.25 0"/>
<feBlend mode="normal" in2="BackgroundImageFix" result="effect1_dropShadow_14_159"/>
<feBlend mode="normal" in="SourceGraphic" in2="effect1_dropShadow_14_159" result="shape"/>
</filter>
</defs>
</svg>
