<svg width="852" height="639" viewBox="0 0 852 639" fill="none" xmlns="http://www.w3.org/2000/svg">
<g clip-path="url(#clip0_621_3)">
<path fill-rule="evenodd" clip-rule="evenodd" d="M0 212.783L106.389 212.783L106.389 319.172H0L0 212.783ZM106.389 319.172H212.778V425.561H106.389L106.389 319.172ZM106.389 212.783H111.708L106.389 218.103V212.783ZM106.389 223.422L117.028 212.783H122.347L106.389 228.742V223.422ZM106.389 234.061L127.667 212.783H132.986L106.389 239.38V234.061ZM106.389 244.7L138.305 212.783H143.625L106.389 250.019V244.7ZM106.389 255.339L148.944 212.783H154.264L106.389 260.658V255.339ZM106.389 265.978L159.583 212.783H164.903L106.389 271.297V265.978ZM106.389 276.616L170.222 212.783H175.542L106.389 281.936V276.616ZM106.389 287.255L180.861 212.783H186.18L106.389 292.575V287.255ZM106.389 297.894L191.5 212.783H196.819L106.389 303.214V297.894ZM106.389 308.533L202.139 212.783H207.458L106.389 313.853V308.533ZM106.389 319.172L212.778 212.783V218.103L111.708 319.172H106.389ZM117.028 319.172L212.778 223.422V228.742L122.347 319.172H117.028ZM127.667 319.172L212.778 234.061V239.38L132.986 319.172H127.667ZM138.305 319.172L212.778 244.7V250.019L143.625 319.172H138.305ZM148.944 319.172L212.778 255.339V260.658L154.264 319.172H148.944ZM159.583 319.172L212.778 265.978V271.297L164.903 319.172H159.583ZM170.222 319.172L212.778 276.616V281.936L175.542 319.172H170.222ZM180.861 319.172L212.778 287.255V292.575L186.18 319.172H180.861ZM191.5 319.172L212.778 297.894V303.214L196.819 319.172H191.5ZM202.139 319.172L212.778 308.533V313.853L207.458 319.172H202.139Z" fill="#08103F"/>
</g>
<g clip-path="url(#clip1_621_3)">
<path fill-rule="evenodd" clip-rule="evenodd" d="M0 425.562H106.389L106.389 531.95H0L0 425.562ZM106.389 531.95H212.778V638.339H106.389L106.389 531.95ZM106.389 425.562H111.708L106.389 430.881V425.562ZM106.389 436.2L117.028 425.562H122.347L106.389 441.52V436.2ZM106.389 446.839L127.667 425.562H132.986L106.389 452.159V446.839ZM106.389 457.478L138.305 425.562H143.625L106.389 462.798V457.478ZM106.389 468.117L148.944 425.562H154.264L106.389 473.436V468.117ZM106.389 478.756L159.583 425.562H164.903L106.389 484.075V478.756ZM106.389 489.395L170.222 425.562H175.542L106.389 494.714V489.395ZM106.389 500.034L180.861 425.562H186.18L106.389 505.353V500.034ZM106.389 510.673L191.5 425.562H196.819L106.389 515.992V510.673ZM106.389 521.311L202.139 425.562L207.458 425.562L106.389 526.631V521.311ZM106.389 531.95L212.778 425.562V430.881L111.708 531.95H106.389ZM117.028 531.95L212.778 436.2V441.52L122.347 531.95H117.028ZM127.667 531.95L212.778 446.839V452.159L132.986 531.95H127.667ZM138.305 531.95L212.778 457.478V462.798L143.625 531.95H138.305ZM148.944 531.95L212.778 468.117V473.436L154.264 531.95H148.944ZM159.583 531.95L212.778 478.756V484.075L164.903 531.95H159.583ZM170.222 531.95L212.778 489.395V494.714L175.542 531.95H170.222ZM180.861 531.95L212.778 500.034V505.353L186.18 531.95H180.861ZM191.5 531.95L212.778 510.673V515.992L196.819 531.95H191.5ZM202.139 531.95L212.778 521.311V526.631L207.458 531.95H202.139Z" fill="#08103F"/>
</g>
<g clip-path="url(#clip2_621_3)">
<path fill-rule="evenodd" clip-rule="evenodd" d="M0 0.00585938L106.389 0.00585938L106.389 106.395L0 106.395L0 0.00585938ZM106.389 106.395L212.778 106.395V212.783H106.389L106.389 106.395ZM106.389 0.00585938L111.708 0.00585938L106.389 5.3253V0.00585938ZM106.389 10.6447L117.028 0.00585938L122.347 0.00585938L106.389 15.9642V10.6447ZM106.389 21.2836L127.667 0.00585938L132.986 0.00585938L106.389 26.6031V21.2836ZM106.389 31.9225L138.305 0.00585938L143.625 0.00585938L106.389 37.2419V31.9225ZM106.389 42.5614L148.944 0.00585938L154.264 0.00585938L106.389 47.8808V42.5614ZM106.389 53.2003L159.583 0.00585938L164.903 0.00585938L106.389 58.5197V53.2003ZM106.389 63.8391L170.222 0.00585938L175.542 0.00585938L106.389 69.1586V63.8391ZM106.389 74.478L180.861 0.00585938L186.18 0.00585938L106.389 79.7975V74.478ZM106.389 85.1169L191.5 0.00585938L196.819 0.00585938L106.389 90.4364V85.1169ZM106.389 95.7558L202.139 0.00585938L207.458 0.00585938L106.389 101.075V95.7558ZM106.389 106.395L212.778 0.00585938V5.3253L111.708 106.395H106.389ZM117.028 106.395L212.778 10.6447V15.9642L122.347 106.395H117.028ZM127.667 106.395L212.778 21.2836V26.6031L132.986 106.395H127.667ZM138.305 106.395L212.778 31.9225V37.2419L143.625 106.395H138.305ZM148.944 106.395L212.778 42.5614V47.8808L154.264 106.395L148.944 106.395ZM159.583 106.395L212.778 53.2003V58.5197L164.903 106.395H159.583ZM170.222 106.395L212.778 63.8391V69.1586L175.542 106.395H170.222ZM180.861 106.395L212.778 74.478V79.7975L186.18 106.395H180.861ZM191.5 106.395L212.778 85.1169V90.4364L196.819 106.395H191.5ZM202.139 106.395L212.778 95.7558V101.075L207.458 106.395H202.139Z" fill="#08103F"/>
</g>
<g clip-path="url(#clip3_621_3)">
<path fill-rule="evenodd" clip-rule="evenodd" d="M638.332 638.333H531.943V531.944H638.332V638.333ZM531.943 531.944H425.554V425.555H531.943V531.944ZM531.943 638.333H526.624L531.943 633.014V638.333ZM531.943 627.694L521.304 638.333H515.985L531.943 622.375V627.694ZM531.943 617.055L510.665 638.333H505.346L531.943 611.736V617.055ZM531.943 606.416L500.027 638.333H494.707L531.943 601.097V606.416ZM531.943 595.777L489.388 638.333H484.068L531.943 590.458V595.777ZM531.943 585.139L478.749 638.333H473.429L531.943 579.819V585.139ZM531.943 574.5L468.11 638.333H462.79L531.943 569.18V574.5ZM531.943 563.861L457.471 638.333H452.152L531.943 558.541V563.861ZM531.943 553.222L446.832 638.333H441.513L531.943 547.903V553.222ZM531.943 542.583L436.193 638.333H430.874L531.943 537.264V542.583ZM531.943 531.944L425.554 638.333V633.014L526.624 531.944H531.943ZM521.304 531.944L425.554 627.694V622.375L515.985 531.944H521.304ZM510.665 531.944L425.554 617.055V611.736L505.346 531.944H510.665ZM500.027 531.944L425.554 606.416V601.097L494.707 531.944H500.027ZM489.388 531.944L425.554 595.777V590.458L484.068 531.944H489.388ZM478.749 531.944L425.554 585.139V579.819L473.429 531.944H478.749ZM468.11 531.944L425.554 574.5V569.18L462.79 531.944H468.11ZM457.471 531.944L425.554 563.861V558.541L452.152 531.944H457.471ZM446.832 531.944L425.554 553.222V547.903L441.513 531.944H446.832ZM436.193 531.944L425.554 542.583V537.264L430.874 531.944H436.193Z" fill="#08103F"/>
</g>
<g clip-path="url(#clip4_621_3)">
<path fill-rule="evenodd" clip-rule="evenodd" d="M425.555 425.556H319.166V319.167H425.555V425.556ZM319.166 319.167H212.777V212.778H319.166V319.167ZM319.166 425.556H313.846L319.166 420.236V425.556ZM319.166 414.917L308.527 425.556H303.208L319.166 409.597V414.917ZM319.166 404.278L297.888 425.556H292.569L319.166 398.958V404.278ZM319.166 393.639L287.249 425.556H281.93L319.166 388.32V393.639ZM319.166 383L276.61 425.556H271.291L319.166 377.681V383ZM319.166 372.361L265.971 425.556H260.652L319.166 367.042V372.361ZM319.166 361.722L255.333 425.556H250.013L319.166 356.403V361.722ZM319.166 351.083L244.694 425.556H239.374L319.166 345.764V351.083ZM319.166 340.445L234.055 425.556H228.735L319.166 335.125V340.445ZM319.166 329.806L223.416 425.556H218.096L319.166 324.486V329.806ZM319.166 319.167L212.777 425.556V420.236L313.846 319.167H319.166ZM308.527 319.167L212.777 414.917V409.597L303.208 319.167H308.527ZM297.888 319.167L212.777 404.278V398.958L292.569 319.167H297.888ZM287.249 319.167L212.777 393.639V388.32L281.93 319.167H287.249ZM276.61 319.167L212.777 383V377.681L271.291 319.167H276.61ZM265.971 319.167L212.777 372.361V367.042L260.652 319.167H265.971ZM255.333 319.167L212.777 361.722V356.403L250.013 319.167H255.333ZM244.694 319.167L212.777 351.083V345.764L239.374 319.167H244.694ZM234.055 319.167L212.777 340.445V335.125L228.735 319.167H234.055ZM223.416 319.167L212.777 329.806V324.486L218.096 319.167H223.416Z" fill="#08103F"/>
</g>
<g clip-path="url(#clip5_621_3)">
<path fill-rule="evenodd" clip-rule="evenodd" d="M638.332 425.556H531.943V319.167H638.332V425.556ZM531.943 319.167H425.554V212.778H531.943V319.167ZM531.943 425.556H526.624L531.943 420.236V425.556ZM531.943 414.917L521.304 425.556H515.985L531.943 409.597V414.917ZM531.943 404.278L510.665 425.556H505.346L531.943 398.958V404.278ZM531.943 393.639L500.027 425.556H494.707L531.943 388.32V393.639ZM531.943 383L489.388 425.556H484.068L531.943 377.681V383ZM531.943 372.361L478.749 425.556H473.429L531.943 367.042V372.361ZM531.943 361.722L468.11 425.556H462.79L531.943 356.403V361.722ZM531.943 351.083L457.471 425.556H452.152L531.943 345.764V351.083ZM531.943 340.445L446.832 425.556H441.513L531.943 335.125V340.445ZM531.943 329.806L436.193 425.556H430.874L531.943 324.486V329.806ZM531.943 319.167L425.554 425.556V420.236L526.624 319.167H531.943ZM521.304 319.167L425.554 414.917V409.597L515.985 319.167H521.304ZM510.665 319.167L425.554 404.278V398.958L505.346 319.167H510.665ZM500.027 319.167L425.554 393.639V388.32L494.707 319.167H500.027ZM489.388 319.167L425.554 383V377.681L484.068 319.167H489.388ZM478.749 319.167L425.554 372.361V367.042L473.429 319.167H478.749ZM468.11 319.167L425.554 361.722V356.403L462.79 319.167H468.11ZM457.471 319.167L425.554 351.083V345.764L452.152 319.167H457.471ZM446.832 319.167L425.554 340.445V335.125L441.513 319.167H446.832ZM436.193 319.167L425.554 329.806V324.486L430.874 319.167H436.193Z" fill="#08103F"/>
</g>
<g clip-path="url(#clip6_621_3)">
<path fill-rule="evenodd" clip-rule="evenodd" d="M851.11 638.333H744.722V531.944H851.11V638.333ZM744.722 531.944H638.333V425.555H744.722V531.944ZM744.722 638.333H739.402L744.722 633.014V638.333ZM744.722 627.694L734.083 638.333H728.763L744.722 622.375V627.694ZM744.722 617.055L723.444 638.333H718.124L744.722 611.736V617.055ZM744.722 606.416L712.805 638.333H707.485L744.722 601.097V606.416ZM744.722 595.777L702.166 638.333H696.847L744.722 590.458V595.777ZM744.722 585.139L691.527 638.333H686.208L744.722 579.819V585.139ZM744.722 574.5L680.888 638.333H675.569L744.722 569.18V574.5ZM744.722 563.861L670.249 638.333H664.93L744.722 558.541V563.861ZM744.722 553.222L659.61 638.333H654.291L744.722 547.903V553.222ZM744.722 542.583L648.972 638.333H643.652L744.722 537.264V542.583ZM744.722 531.944L638.333 638.333V633.014L739.402 531.944H744.722ZM734.083 531.944L638.333 627.694V622.375L728.763 531.944H734.083ZM723.444 531.944L638.333 617.055V611.736L718.124 531.944H723.444ZM712.805 531.944L638.333 606.416V601.097L707.485 531.944H712.805ZM702.166 531.944L638.333 595.777V590.458L696.847 531.944H702.166ZM691.527 531.944L638.333 585.139V579.819L686.208 531.944H691.527ZM680.888 531.944L638.333 574.5V569.18L675.569 531.944H680.888ZM670.249 531.944L638.333 563.861V558.541L664.93 531.944H670.249ZM659.61 531.944L638.333 553.222V547.903L654.291 531.944H659.61ZM648.972 531.944L638.333 542.583V537.264L643.652 531.944H648.972Z" fill="#08103F"/>
</g>
<g clip-path="url(#clip7_621_3)">
<path fill-rule="evenodd" clip-rule="evenodd" d="M425.555 212.777H319.166V106.389H425.555V212.777ZM319.166 106.389L212.777 106.389V-0.000289917H319.166V106.389ZM319.166 212.777H313.846L319.166 207.458V212.777ZM319.166 202.138L308.527 212.777H303.208L319.166 196.819V202.138ZM319.166 191.5L297.888 212.777H292.569L319.166 186.18V191.5ZM319.166 180.861L287.249 212.777H281.93L319.166 175.541V180.861ZM319.166 170.222L276.61 212.777H271.291L319.166 164.902V170.222ZM319.166 159.583L265.971 212.777H260.652L319.166 154.263V159.583ZM319.166 148.944L255.333 212.777H250.013L319.166 143.625V148.944ZM319.166 138.305L244.694 212.777H239.374L319.166 132.986V138.305ZM319.166 127.666L234.055 212.777H228.735L319.166 122.347V127.666ZM319.166 117.027L223.416 212.777H218.096L319.166 111.708V117.027ZM319.166 106.389L212.777 212.777V207.458L313.846 106.389H319.166ZM308.527 106.389L212.777 202.138V196.819L303.208 106.389H308.527ZM297.888 106.389L212.777 191.5V186.18L292.569 106.389L297.888 106.389ZM287.249 106.389L212.777 180.861V175.541L281.93 106.389H287.249ZM276.61 106.389L212.777 170.222V164.902L271.291 106.389H276.61ZM265.971 106.389L212.777 159.583V154.263L260.652 106.389H265.971ZM255.333 106.389L212.777 148.944V143.625L250.013 106.389H255.333ZM244.694 106.389L212.777 138.305V132.986L239.374 106.389H244.694ZM234.055 106.389L212.777 127.666V122.347L228.735 106.389H234.055ZM223.416 106.389L212.777 117.027V111.708L218.096 106.389H223.416Z" fill="#08103F"/>
</g>
<g clip-path="url(#clip8_621_3)">
<path fill-rule="evenodd" clip-rule="evenodd" d="M425.555 638.333H319.166V531.944H425.555V638.333ZM319.166 531.944H212.777V425.555H319.166V531.944ZM319.166 638.333H313.846L319.166 633.014V638.333ZM319.166 627.694L308.527 638.333H303.208L319.166 622.375V627.694ZM319.166 617.055L297.888 638.333H292.569L319.166 611.736V617.055ZM319.166 606.416L287.249 638.333H281.93L319.166 601.097V606.416ZM319.166 595.777L276.61 638.333H271.291L319.166 590.458V595.777ZM319.166 585.139L265.971 638.333H260.652L319.166 579.819V585.139ZM319.166 574.5L255.333 638.333H250.013L319.166 569.18V574.5ZM319.166 563.861L244.694 638.333H239.374L319.166 558.541V563.861ZM319.166 553.222L234.055 638.333H228.735L319.166 547.903V553.222ZM319.166 542.583L223.416 638.333H218.096L319.166 537.264V542.583ZM319.166 531.944L212.777 638.333V633.014L313.846 531.944H319.166ZM308.527 531.944L212.777 627.694V622.375L303.208 531.944H308.527ZM297.888 531.944L212.777 617.055V611.736L292.569 531.944H297.888ZM287.249 531.944L212.777 606.416V601.097L281.93 531.944H287.249ZM276.61 531.944L212.777 595.777V590.458L271.291 531.944H276.61ZM265.971 531.944L212.777 585.139V579.819L260.652 531.944H265.971ZM255.333 531.944L212.777 574.5V569.18L250.013 531.944H255.333ZM244.694 531.944L212.777 563.861V558.541L239.374 531.944H244.694ZM234.055 531.944L212.777 553.222V547.903L228.735 531.944H234.055ZM223.416 531.944L212.777 542.583V537.264L218.096 531.944H223.416Z" fill="#08103F"/>
</g>
<defs>
<clipPath id="clip0_621_3">
<rect width="212.778" height="212.778" fill="white" transform="translate(0 212.783)"/>
</clipPath>
<clipPath id="clip1_621_3">
<rect width="212.778" height="212.778" fill="white" transform="translate(0 425.562)"/>
</clipPath>
<clipPath id="clip2_621_3">
<rect width="212.778" height="212.778" fill="white" transform="translate(0 0.00585938)"/>
</clipPath>
<clipPath id="clip3_621_3">
<rect width="212.778" height="212.778" fill="white" transform="translate(638.332 638.333) rotate(-180)"/>
</clipPath>
<clipPath id="clip4_621_3">
<rect width="212.778" height="212.778" fill="white" transform="translate(425.555 425.556) rotate(-180)"/>
</clipPath>
<clipPath id="clip5_621_3">
<rect width="212.778" height="212.778" fill="white" transform="translate(638.332 425.556) rotate(-180)"/>
</clipPath>
<clipPath id="clip6_621_3">
<rect width="212.778" height="212.778" fill="white" transform="translate(851.11 638.333) rotate(-180)"/>
</clipPath>
<clipPath id="clip7_621_3">
<rect width="212.778" height="212.778" fill="white" transform="translate(425.555 212.777) rotate(-180)"/>
</clipPath>
<clipPath id="clip8_621_3">
<rect width="212.778" height="212.778" fill="white" transform="translate(425.555 638.333) rotate(-180)"/>
</clipPath>
</defs>
</svg>
