<svg width="949" height="509" viewBox="0 0 949 509" fill="none" xmlns="http://www.w3.org/2000/svg">
<g clip-path="url(#clip0_244_155)">
<g clip-path="url(#clip1_244_155)">
<path fill-rule="evenodd" clip-rule="evenodd" d="M829.659 529L827.848 527.189L830.939 524.098L835.841 529L829.659 529V529ZM937.327 529L939.138 527.189L936.047 524.098L931.144 529L937.327 529V529ZM842.024 529L834.03 521.006L837.122 517.915L848.207 529L842.024 529V529ZM924.961 529L932.955 521.006L929.864 517.915L918.779 529L924.961 529V529ZM854.39 529L840.213 514.823L843.305 511.732L860.573 529L854.39 529V529ZM912.596 529L926.772 514.823L923.681 511.732L906.413 529L912.596 529V529ZM866.755 529L846.396 508.641L849.487 505.549L872.938 529L866.755 529V529ZM900.23 529L920.59 508.641L917.498 505.549L894.047 529L900.23 529V529ZM879.121 529L852.579 502.458L855.67 499.366L883.493 527.189L911.315 499.367L914.407 502.458L887.865 529L879.121 529V529ZM948.45 529L887.243 467.793L890.335 464.702L949.071 523.439L949.071 529L948.45 529V529ZM949.071 517.256L893.426 461.611L896.518 458.519L949.071 511.073L949.071 517.256V517.256ZM949.071 504.89L899.609 455.428L902.7 452.336L949.071 498.707L949.071 504.89V504.89ZM949.071 492.525L905.792 449.245L908.883 446.154L949.071 486.342L949.071 492.525V492.525ZM949.071 480.159L911.975 443.062L915.066 439.971L949.071 473.976L949.071 480.159V480.159ZM949.071 467.793L918.157 436.879L921.249 433.788L949.071 461.611L949.071 467.793ZM949.071 455.428L924.34 430.697L927.432 427.605L949.071 449.245L949.071 455.428V455.428ZM949.071 443.062L930.523 424.514L933.614 421.422L949.071 436.879L949.071 443.062V443.062ZM949.071 430.697L936.706 418.331L939.797 415.24L949.071 424.514L949.071 430.697V430.697ZM949.071 418.331L942.889 412.148L945.98 409.057L949.071 412.148L949.071 418.331V418.331ZM829.659 397.843L883.493 451.677L937.327 397.843L931.144 397.843L883.493 445.495L835.841 397.843L829.659 397.843ZM842.024 397.843L883.493 439.312L924.962 397.843L918.779 397.843L883.493 433.129L848.207 397.843L842.024 397.843ZM854.39 397.843L883.493 426.946L912.596 397.843L906.413 397.843L883.493 420.763L860.573 397.843L854.39 397.843ZM866.755 397.843L883.493 414.581L900.23 397.843L894.048 397.843L883.493 408.398L872.938 397.843L866.755 397.843ZM879.121 397.843L883.493 402.215L887.865 397.843L879.121 397.843ZM818.536 529L879.742 467.793L876.651 464.702L817.914 523.439L817.914 529L818.536 529V529ZM817.914 517.256L873.56 461.611L870.468 458.519L817.914 511.073L817.914 517.256ZM817.914 504.89L867.377 455.428L864.285 452.336L817.914 498.707L817.914 504.89ZM817.914 492.525L861.194 449.245L858.103 446.154L817.914 486.342L817.914 492.525ZM817.914 480.159L855.011 443.062L851.92 439.971L817.914 473.976L817.914 480.159ZM817.914 467.793L848.828 436.879L845.737 433.788L817.914 461.611L817.914 467.793ZM817.914 455.428L842.646 430.697L839.554 427.605L817.914 449.245L817.914 455.428ZM817.914 443.062L836.463 424.514L833.371 421.422L817.914 436.879L817.914 443.062ZM817.914 430.697L830.28 418.331L827.189 415.24L817.914 424.514L817.914 430.697ZM817.914 418.331L824.097 412.148L821.006 409.057L817.914 412.148L817.914 418.331ZM861.853 493.184L858.762 496.275L883.493 521.006L908.224 496.275L905.133 493.184L883.493 514.823L861.853 493.184ZM868.036 487.001L864.944 490.092L883.493 508.641L902.041 490.092L898.95 487.001L883.493 502.458L868.036 487.001ZM874.219 480.818L871.127 483.91L883.493 496.275L895.858 483.91L892.767 480.818L883.493 490.092L874.219 480.818ZM880.401 474.635L877.31 477.727L883.493 483.91L889.676 477.727L886.584 474.635L883.493 477.727L880.401 474.635ZM824.756 399.124L821.665 402.215L883.493 464.043L945.321 402.215L942.229 399.124L883.493 457.86L824.756 399.124Z" fill="#081443"/>
</g>
<g clip-path="url(#clip2_244_155)">
<path fill-rule="evenodd" clip-rule="evenodd" d="M698.502 397.843L696.691 396.032L699.782 392.941L704.684 397.843L698.502 397.843V397.843ZM806.17 397.843L807.981 396.032L804.89 392.941L799.987 397.843L806.17 397.843V397.843ZM710.867 397.843L702.873 389.849L705.965 386.758L717.05 397.843L710.867 397.843V397.843ZM793.805 397.843L801.798 389.849L798.707 386.758L787.622 397.843L793.805 397.843V397.843ZM723.233 397.843L709.056 383.667L712.148 380.575L729.416 397.843L723.233 397.843V397.843ZM781.439 397.843L795.615 383.667L792.524 380.575L775.256 397.843L781.439 397.843V397.843ZM735.598 397.843L715.239 377.484L718.33 374.392L741.781 397.843L735.598 397.843V397.843ZM769.073 397.843L789.433 377.484L786.341 374.392L762.891 397.843L769.073 397.843V397.843ZM747.964 397.843L721.422 371.301L724.513 368.21L752.336 396.032L780.158 368.21L783.25 371.301L756.708 397.843L747.964 397.843V397.843ZM817.293 397.843L756.086 336.636L759.178 333.545L817.914 392.282L817.914 397.843L817.293 397.843V397.843ZM817.914 386.099L762.269 330.454L765.361 327.362L817.914 379.916L817.914 386.099V386.099ZM817.914 373.733L768.452 324.271L771.543 321.179L817.914 367.55L817.914 373.733V373.733ZM817.914 361.368L774.635 318.088L777.726 314.997L817.914 355.185L817.914 361.368V361.368ZM817.914 349.002L780.818 311.905L783.909 308.814L817.914 342.819L817.914 349.002V349.002ZM817.914 336.636L787 305.722L790.092 302.631L817.914 330.454L817.914 336.636ZM817.914 324.271L793.183 299.54L796.275 296.448L817.914 318.088L817.914 324.271V324.271ZM817.914 311.905L799.366 293.357L802.457 290.265L817.914 305.722L817.914 311.905V311.905ZM817.914 299.54L805.549 287.174L808.64 284.083L817.914 293.357L817.914 299.54V299.54ZM817.914 287.174L811.732 280.991L814.823 277.9L817.914 280.991L817.914 287.174V287.174ZM698.502 266.686L752.336 320.52L806.17 266.686L799.987 266.686L752.336 314.338L704.684 266.686L698.502 266.686ZM710.867 266.686L752.336 308.155L793.805 266.686L787.622 266.686L752.336 301.972L717.05 266.686L710.867 266.686ZM723.233 266.686L752.336 295.789L781.439 266.686L775.256 266.686L752.336 289.606L729.416 266.686L723.233 266.686ZM735.598 266.686L752.336 283.424L769.073 266.686L762.891 266.686L752.336 277.241L741.781 266.686L735.598 266.686ZM747.964 266.686L752.336 271.058L756.708 266.686L747.964 266.686ZM687.379 397.843L748.585 336.636L745.494 333.545L686.757 392.282L686.757 397.843L687.379 397.843V397.843ZM686.757 386.099L742.403 330.454L739.311 327.362L686.757 379.916L686.757 386.099ZM686.757 373.733L736.22 324.271L733.128 321.179L686.757 367.55L686.757 373.733ZM686.757 361.368L730.037 318.088L726.946 314.997L686.757 355.185L686.757 361.368ZM686.757 349.002L723.854 311.905L720.763 308.814L686.757 342.819L686.757 349.002ZM686.757 336.636L717.671 305.722L714.58 302.631L686.757 330.454L686.757 336.636ZM686.757 324.271L711.489 299.54L708.397 296.448L686.757 318.088L686.757 324.271ZM686.757 311.905L705.306 293.357L702.214 290.265L686.757 305.722L686.757 311.905ZM686.757 299.54L699.123 287.174L696.032 284.083L686.757 293.357L686.757 299.54ZM686.757 287.174L692.94 280.991L689.849 277.9L686.757 280.991L686.757 287.174ZM730.696 362.027L727.605 365.118L752.336 389.849L777.067 365.118L773.976 362.027L752.336 383.667L730.696 362.027ZM736.879 355.844L733.787 358.935L752.336 377.484L770.884 358.935L767.793 355.844L752.336 371.301L736.879 355.844ZM743.062 349.661L739.97 352.753L752.336 365.118L764.701 352.753L761.61 349.661L752.336 358.935L743.062 349.661ZM749.244 343.478L746.153 346.57L752.336 352.753L758.519 346.57L755.427 343.478L752.336 346.57L749.244 343.478ZM693.599 267.967L690.508 271.058L752.336 332.886L814.164 271.058L811.072 267.967L752.336 326.703L693.599 267.967Z" fill="#081443"/>
</g>
<g clip-path="url(#clip3_244_155)">
<path fill-rule="evenodd" clip-rule="evenodd" d="M567.345 266.686L565.534 264.875L568.625 261.784L573.527 266.686L567.345 266.686V266.686ZM675.013 266.686L676.824 264.875L673.733 261.784L668.83 266.686L675.013 266.686V266.686ZM579.71 266.686L571.716 258.692L574.808 255.601L585.893 266.686L579.71 266.686V266.686ZM662.648 266.686L670.641 258.692L667.55 255.601L656.465 266.686L662.648 266.686V266.686ZM592.076 266.686L577.899 252.51L580.991 249.418L598.259 266.686L592.076 266.686V266.686ZM650.282 266.686L664.458 252.51L661.367 249.418L644.099 266.686L650.282 266.686V266.686ZM604.441 266.686L584.082 246.327L587.173 243.235L610.624 266.686L604.441 266.686V266.686ZM637.916 266.686L658.276 246.327L655.184 243.235L631.734 266.686L637.916 266.686V266.686ZM616.807 266.686L590.265 240.144L593.356 237.053L621.179 264.875L649.001 237.053L652.093 240.144L625.551 266.686L616.807 266.686V266.686ZM686.136 266.686L624.929 205.479L628.021 202.388L686.757 261.125L686.757 266.686L686.136 266.686V266.686ZM686.757 254.942L631.112 199.297L634.204 196.205L686.757 248.759L686.757 254.942V254.942ZM686.757 242.576L637.295 193.114L640.386 190.022L686.757 236.393L686.757 242.576V242.576ZM686.757 230.211L643.478 186.931L646.569 183.84L686.757 224.028L686.757 230.211V230.211ZM686.757 217.845L649.661 180.748L652.752 177.657L686.757 211.662L686.757 217.845V217.845ZM686.757 205.479L655.843 174.565L658.935 171.474L686.757 199.297L686.757 205.479ZM686.757 193.114L662.026 168.383L665.118 165.291L686.757 186.931L686.757 193.114V193.114ZM686.757 180.748L668.209 162.2L671.3 159.108L686.757 174.565L686.757 180.748V180.748ZM686.757 168.383L674.392 156.017L677.483 152.926L686.757 162.2L686.757 168.383V168.383ZM686.757 156.017L680.575 149.834L683.666 146.743L686.757 149.834L686.757 156.017V156.017ZM567.345 135.529L621.179 189.363L675.013 135.529L668.83 135.529L621.179 183.181L573.527 135.529L567.345 135.529ZM579.71 135.529L621.179 176.998L662.648 135.529L656.465 135.529L621.179 170.815L585.893 135.529L579.71 135.529ZM592.076 135.529L621.179 164.632L650.282 135.529L644.099 135.529L621.179 158.449L598.259 135.529L592.076 135.529ZM604.441 135.529L621.179 152.267L637.916 135.529L631.734 135.529L621.179 146.084L610.624 135.529L604.441 135.529ZM616.807 135.529L621.179 139.901L625.551 135.529L616.807 135.529ZM556.222 266.686L617.428 205.479L614.337 202.388L555.6 261.125L555.6 266.686L556.222 266.686V266.686ZM555.6 254.942L611.246 199.297L608.154 196.205L555.6 248.759L555.6 254.942ZM555.6 242.576L605.063 193.114L601.971 190.022L555.6 236.393L555.6 242.576ZM555.6 230.211L598.88 186.931L595.789 183.84L555.6 224.028L555.6 230.211ZM555.6 217.845L592.697 180.748L589.606 177.657L555.6 211.662L555.6 217.845ZM555.6 205.479L586.514 174.565L583.423 171.474L555.6 199.297L555.6 205.479ZM555.6 193.114L580.332 168.383L577.24 165.291L555.6 186.931L555.6 193.114ZM555.6 180.748L574.149 162.2L571.057 159.108L555.6 174.565L555.6 180.748ZM555.6 168.383L567.966 156.017L564.875 152.926L555.6 162.2L555.6 168.383ZM555.6 156.017L561.783 149.834L558.692 146.743L555.6 149.834L555.6 156.017ZM599.539 230.87L596.448 233.961L621.179 258.692L645.91 233.961L642.819 230.87L621.179 252.51L599.539 230.87ZM605.722 224.687L602.63 227.778L621.179 246.327L639.727 227.778L636.636 224.687L621.179 240.144L605.722 224.687ZM611.905 218.504L608.813 221.596L621.179 233.961L633.544 221.596L630.453 218.504L621.179 227.778L611.905 218.504ZM618.087 212.321L614.996 215.413L621.179 221.596L627.362 215.413L624.27 212.321L621.179 215.413L618.087 212.321ZM562.442 136.81L559.351 139.901L621.179 201.729L683.007 139.901L679.915 136.81L621.179 195.546L562.442 136.81Z" fill="#081443"/>
</g>
<g clip-path="url(#clip4_244_155)">
<path fill-rule="evenodd" clip-rule="evenodd" d="M698.502 529L696.691 527.189L699.782 524.098L704.684 529L698.502 529V529ZM806.17 529L807.981 527.189L804.89 524.098L799.987 529L806.17 529V529ZM710.867 529L702.873 521.006L705.965 517.915L717.05 529L710.867 529V529ZM793.805 529L801.798 521.006L798.707 517.915L787.622 529L793.805 529V529ZM723.233 529L709.056 514.823L712.148 511.732L729.416 529L723.233 529V529ZM781.439 529L795.615 514.823L792.524 511.732L775.256 529L781.439 529V529ZM735.598 529L715.239 508.641L718.33 505.549L741.781 529L735.598 529V529ZM769.073 529L789.433 508.641L786.341 505.549L762.891 529L769.073 529V529ZM747.964 529L721.422 502.458L724.513 499.366L752.336 527.189L780.158 499.367L783.25 502.458L756.708 529L747.964 529V529ZM817.293 529L756.086 467.793L759.178 464.702L817.914 523.439L817.914 529L817.293 529V529ZM817.914 517.256L762.269 461.611L765.361 458.519L817.914 511.073L817.914 517.256V517.256ZM817.914 504.89L768.452 455.428L771.543 452.336L817.914 498.707L817.914 504.89V504.89ZM817.914 492.525L774.635 449.245L777.726 446.154L817.914 486.342L817.914 492.525V492.525ZM817.914 480.159L780.818 443.062L783.909 439.971L817.914 473.976L817.914 480.159V480.159ZM817.914 467.793L787 436.879L790.092 433.788L817.914 461.611L817.914 467.793ZM817.914 455.428L793.183 430.697L796.275 427.605L817.914 449.245L817.914 455.428V455.428ZM817.914 443.062L799.366 424.514L802.457 421.422L817.914 436.879L817.914 443.062V443.062ZM817.914 430.697L805.549 418.331L808.64 415.24L817.914 424.514L817.914 430.697V430.697ZM817.914 418.331L811.732 412.148L814.823 409.057L817.914 412.148L817.914 418.331V418.331ZM698.502 397.843L752.336 451.677L806.17 397.843L799.987 397.843L752.336 445.495L704.684 397.843L698.502 397.843ZM710.867 397.843L752.336 439.312L793.805 397.843L787.622 397.843L752.336 433.129L717.05 397.843L710.867 397.843ZM723.233 397.843L752.336 426.946L781.439 397.843L775.256 397.843L752.336 420.763L729.416 397.843L723.233 397.843ZM735.598 397.843L752.336 414.581L769.073 397.843L762.891 397.843L752.336 408.398L741.781 397.843L735.598 397.843ZM747.964 397.843L752.336 402.215L756.708 397.843L747.964 397.843ZM687.379 529L748.585 467.793L745.494 464.702L686.757 523.439L686.757 529L687.379 529V529ZM686.757 517.256L742.403 461.611L739.311 458.519L686.757 511.073L686.757 517.256ZM686.757 504.89L736.22 455.428L733.128 452.336L686.757 498.707L686.757 504.89ZM686.757 492.525L730.037 449.245L726.946 446.154L686.757 486.342L686.757 492.525ZM686.757 480.159L723.854 443.062L720.763 439.971L686.757 473.976L686.757 480.159ZM686.757 467.793L717.671 436.879L714.58 433.788L686.757 461.611L686.757 467.793ZM686.757 455.428L711.489 430.697L708.397 427.605L686.757 449.245L686.757 455.428ZM686.757 443.062L705.306 424.514L702.214 421.422L686.757 436.879L686.757 443.062ZM686.757 430.697L699.123 418.331L696.032 415.24L686.757 424.514L686.757 430.697ZM686.757 418.331L692.94 412.148L689.849 409.057L686.757 412.148L686.757 418.331ZM730.696 493.184L727.605 496.275L752.336 521.006L777.067 496.275L773.976 493.184L752.336 514.823L730.696 493.184ZM736.879 487.001L733.787 490.092L752.336 508.641L770.884 490.092L767.793 487.001L752.336 502.458L736.879 487.001ZM743.062 480.818L739.97 483.91L752.336 496.275L764.701 483.91L761.61 480.818L752.336 490.092L743.062 480.818ZM749.244 474.635L746.153 477.727L752.336 483.91L758.519 477.727L755.427 474.635L752.336 477.727L749.244 474.635ZM693.599 399.124L690.508 402.215L752.336 464.043L814.164 402.215L811.072 399.124L752.336 457.86L693.599 399.124Z" fill="#081443"/>
</g>
<g clip-path="url(#clip5_244_155)">
<path fill-rule="evenodd" clip-rule="evenodd" d="M567.345 397.843L565.534 396.032L568.625 392.941L573.527 397.843L567.345 397.843V397.843ZM675.013 397.843L676.824 396.032L673.733 392.941L668.83 397.843L675.013 397.843V397.843ZM579.71 397.843L571.716 389.849L574.808 386.758L585.893 397.843L579.71 397.843V397.843ZM662.648 397.843L670.641 389.849L667.55 386.758L656.465 397.843L662.648 397.843V397.843ZM592.076 397.843L577.899 383.667L580.991 380.575L598.259 397.843L592.076 397.843V397.843ZM650.282 397.843L664.458 383.667L661.367 380.575L644.099 397.843L650.282 397.843V397.843ZM604.441 397.843L584.082 377.484L587.173 374.392L610.624 397.843L604.441 397.843V397.843ZM637.916 397.843L658.276 377.484L655.184 374.392L631.734 397.843L637.916 397.843V397.843ZM616.807 397.843L590.265 371.301L593.356 368.21L621.179 396.032L649.001 368.21L652.093 371.301L625.551 397.843L616.807 397.843V397.843ZM686.136 397.843L624.929 336.636L628.021 333.545L686.757 392.282L686.757 397.843L686.136 397.843V397.843ZM686.757 386.099L631.112 330.454L634.204 327.362L686.757 379.916L686.757 386.099V386.099ZM686.757 373.733L637.295 324.271L640.386 321.179L686.757 367.55L686.757 373.733V373.733ZM686.757 361.368L643.478 318.088L646.569 314.997L686.757 355.185L686.757 361.368V361.368ZM686.757 349.002L649.661 311.905L652.752 308.814L686.757 342.819L686.757 349.002V349.002ZM686.757 336.636L655.843 305.722L658.935 302.631L686.757 330.454L686.757 336.636ZM686.757 324.271L662.026 299.54L665.118 296.448L686.757 318.088L686.757 324.271V324.271ZM686.757 311.905L668.209 293.357L671.3 290.265L686.757 305.722L686.757 311.905V311.905ZM686.757 299.54L674.392 287.174L677.483 284.083L686.757 293.357L686.757 299.54V299.54ZM686.757 287.174L680.575 280.991L683.666 277.9L686.757 280.991L686.757 287.174V287.174ZM567.345 266.686L621.179 320.52L675.013 266.686L668.83 266.686L621.179 314.338L573.527 266.686L567.345 266.686ZM579.71 266.686L621.179 308.155L662.648 266.686L656.465 266.686L621.179 301.972L585.893 266.686L579.71 266.686ZM592.076 266.686L621.179 295.789L650.282 266.686L644.099 266.686L621.179 289.606L598.259 266.686L592.076 266.686ZM604.441 266.686L621.179 283.424L637.916 266.686L631.734 266.686L621.179 277.241L610.624 266.686L604.441 266.686ZM616.807 266.686L621.179 271.058L625.551 266.686L616.807 266.686ZM556.222 397.843L617.428 336.636L614.337 333.545L555.6 392.282L555.6 397.843L556.222 397.843V397.843ZM555.6 386.099L611.246 330.454L608.154 327.362L555.6 379.916L555.6 386.099ZM555.6 373.733L605.063 324.271L601.971 321.179L555.6 367.55L555.6 373.733ZM555.6 361.368L598.88 318.088L595.789 314.997L555.6 355.185L555.6 361.368ZM555.6 349.002L592.697 311.905L589.606 308.814L555.6 342.819L555.6 349.002ZM555.6 336.636L586.514 305.722L583.423 302.631L555.6 330.454L555.6 336.636ZM555.6 324.271L580.332 299.54L577.24 296.448L555.6 318.088L555.6 324.271ZM555.6 311.905L574.149 293.357L571.057 290.265L555.6 305.722L555.6 311.905ZM555.6 299.54L567.966 287.174L564.875 284.083L555.6 293.357L555.6 299.54ZM555.6 287.174L561.783 280.991L558.692 277.9L555.6 280.991L555.6 287.174ZM599.539 362.027L596.448 365.118L621.179 389.849L645.91 365.118L642.819 362.027L621.179 383.667L599.539 362.027ZM605.722 355.844L602.63 358.935L621.179 377.484L639.727 358.935L636.636 355.844L621.179 371.301L605.722 355.844ZM611.905 349.661L608.813 352.753L621.179 365.118L633.544 352.753L630.453 349.661L621.179 358.935L611.905 349.661ZM618.087 343.478L614.996 346.57L621.179 352.753L627.362 346.57L624.27 343.478L621.179 346.57L618.087 343.478ZM562.442 267.967L559.351 271.058L621.179 332.886L683.007 271.058L679.915 267.967L621.179 326.703L562.442 267.967Z" fill="#081443"/>
</g>
<g clip-path="url(#clip6_244_155)">
<path fill-rule="evenodd" clip-rule="evenodd" d="M436.188 266.686L434.377 264.875L437.468 261.784L442.371 266.686L436.188 266.686V266.686ZM543.856 266.686L545.667 264.875L542.576 261.784L537.674 266.686L543.856 266.686V266.686ZM448.553 266.686L440.56 258.692L443.651 255.601L454.736 266.686L448.553 266.686V266.686ZM531.491 266.686L539.484 258.692L536.393 255.601L525.308 266.686L531.491 266.686V266.686ZM460.919 266.686L446.743 252.51L449.834 249.418L467.102 266.686L460.919 266.686V266.686ZM519.125 266.686L533.302 252.51L530.21 249.418L512.942 266.686L519.125 266.686V266.686ZM473.285 266.686L452.925 246.327L456.017 243.235L479.467 266.686L473.285 266.686V266.686ZM506.76 266.686L527.119 246.327L524.027 243.235L500.577 266.686L506.76 266.686V266.686ZM485.65 266.686L459.108 240.144L462.2 237.053L490.022 264.875L517.845 237.053L520.936 240.144L494.394 266.686L485.65 266.686V266.686ZM554.979 266.686L493.773 205.479L496.864 202.388L555.601 261.125L555.601 266.686L554.979 266.686V266.686ZM555.601 254.942L499.955 199.297L503.047 196.205L555.601 248.759L555.601 254.942V254.942ZM555.601 242.576L506.138 193.114L509.23 190.022L555.601 236.393L555.601 242.576V242.576ZM555.601 230.211L512.321 186.931L515.412 183.84L555.601 224.028L555.601 230.211V230.211ZM555.601 217.845L518.504 180.748L521.595 177.657L555.601 211.662L555.601 217.845V217.845ZM555.601 205.479L524.687 174.565L527.778 171.474L555.601 199.297L555.601 205.479ZM555.601 193.114L530.869 168.383L533.961 165.291L555.601 186.931L555.601 193.114V193.114ZM555.601 180.748L537.052 162.2L540.144 159.108L555.601 174.565L555.601 180.748V180.748ZM555.601 168.383L543.235 156.017L546.326 152.926L555.601 162.2L555.601 168.383V168.383ZM555.601 156.017L549.418 149.834L552.509 146.743L555.601 149.834L555.601 156.017V156.017ZM436.188 135.529L490.022 189.363L543.856 135.529L537.674 135.529L490.022 183.181L442.371 135.529L436.188 135.529ZM448.553 135.529L490.022 176.998L531.491 135.529L525.308 135.529L490.022 170.815L454.736 135.529L448.553 135.529ZM460.919 135.529L490.022 164.632L519.125 135.529L512.942 135.529L490.022 158.449L467.102 135.529L460.919 135.529ZM473.285 135.529L490.022 152.267L506.76 135.529L500.577 135.529L490.022 146.084L479.467 135.529L473.285 135.529ZM485.65 135.529L490.022 139.901L494.394 135.529L485.65 135.529ZM425.065 266.686L486.272 205.479L483.18 202.388L424.444 261.125L424.444 266.686L425.065 266.686V266.686ZM424.444 254.942L480.089 199.297L476.997 196.205L424.444 248.759L424.444 254.942ZM424.444 242.576L473.906 193.114L470.815 190.022L424.444 236.393L424.444 242.576ZM424.444 230.211L467.723 186.931L464.632 183.84L424.444 224.028L424.444 230.211ZM424.444 217.845L461.54 180.748L458.449 177.657L424.444 211.662L424.444 217.845ZM424.444 205.479L455.358 174.565L452.266 171.474L424.444 199.297L424.444 205.479ZM424.444 193.114L449.175 168.383L446.083 165.291L424.444 186.931L424.444 193.114ZM424.444 180.748L442.992 162.2L439.901 159.108L424.444 174.565L424.444 180.748ZM424.444 168.383L436.809 156.017L433.718 152.926L424.444 162.2L424.444 168.383ZM424.444 156.017L430.626 149.834L427.535 146.743L424.444 149.834L424.444 156.017ZM468.382 230.87L465.291 233.961L490.022 258.692L514.753 233.961L511.662 230.87L490.022 252.51L468.382 230.87ZM474.565 224.687L471.474 227.778L490.022 246.327L508.57 227.778L505.479 224.687L490.022 240.144L474.565 224.687ZM480.748 218.504L477.657 221.596L490.022 233.961L502.388 221.596L499.296 218.504L490.022 227.778L480.748 218.504ZM486.931 212.321L483.839 215.413L490.022 221.596L496.205 215.413L493.114 212.321L490.022 215.413L486.931 212.321ZM431.286 136.81L428.194 139.901L490.022 201.729L551.85 139.901L548.759 136.81L490.022 195.546L431.286 136.81Z" fill="#081443"/>
</g>
<g clip-path="url(#clip7_244_155)">
<path fill-rule="evenodd" clip-rule="evenodd" d="M567.345 529L565.534 527.189L568.625 524.098L573.527 529L567.345 529V529ZM675.013 529L676.824 527.189L673.733 524.098L668.83 529L675.013 529V529ZM579.71 529L571.716 521.006L574.808 517.915L585.893 529L579.71 529V529ZM662.648 529L670.641 521.006L667.55 517.915L656.465 529L662.648 529V529ZM592.076 529L577.899 514.823L580.991 511.732L598.259 529L592.076 529V529ZM650.282 529L664.458 514.823L661.367 511.732L644.099 529L650.282 529V529ZM604.441 529L584.082 508.641L587.173 505.549L610.624 529L604.441 529V529ZM637.916 529L658.276 508.641L655.184 505.549L631.734 529L637.916 529V529ZM616.807 529L590.265 502.458L593.356 499.366L621.179 527.189L649.001 499.367L652.093 502.458L625.551 529L616.807 529V529ZM686.136 529L624.929 467.793L628.021 464.702L686.757 523.439L686.757 529L686.136 529V529ZM686.757 517.256L631.112 461.611L634.204 458.519L686.757 511.073L686.757 517.256V517.256ZM686.757 504.89L637.295 455.428L640.386 452.336L686.757 498.707L686.757 504.89V504.89ZM686.757 492.525L643.478 449.245L646.569 446.154L686.757 486.342L686.757 492.525V492.525ZM686.757 480.159L649.661 443.062L652.752 439.971L686.757 473.976L686.757 480.159V480.159ZM686.757 467.793L655.843 436.879L658.935 433.788L686.757 461.611L686.757 467.793ZM686.757 455.428L662.026 430.697L665.118 427.605L686.757 449.245L686.757 455.428V455.428ZM686.757 443.062L668.209 424.514L671.3 421.422L686.757 436.879L686.757 443.062V443.062ZM686.757 430.697L674.392 418.331L677.483 415.24L686.757 424.514L686.757 430.697V430.697ZM686.757 418.331L680.575 412.148L683.666 409.057L686.757 412.148L686.757 418.331V418.331ZM567.345 397.843L621.179 451.677L675.013 397.843L668.83 397.843L621.179 445.495L573.527 397.843L567.345 397.843ZM579.71 397.843L621.179 439.312L662.648 397.843L656.465 397.843L621.179 433.129L585.893 397.843L579.71 397.843ZM592.076 397.843L621.179 426.946L650.282 397.843L644.099 397.843L621.179 420.763L598.259 397.843L592.076 397.843ZM604.441 397.843L621.179 414.581L637.916 397.843L631.734 397.843L621.179 408.398L610.624 397.843L604.441 397.843ZM616.807 397.843L621.179 402.215L625.551 397.843L616.807 397.843ZM556.222 529L617.428 467.793L614.337 464.702L555.6 523.439L555.6 529L556.222 529V529ZM555.6 517.256L611.246 461.611L608.154 458.519L555.6 511.073L555.6 517.256ZM555.6 504.89L605.063 455.428L601.971 452.336L555.6 498.707L555.6 504.89ZM555.6 492.525L598.88 449.245L595.789 446.154L555.6 486.342L555.6 492.525ZM555.6 480.159L592.697 443.062L589.606 439.971L555.6 473.976L555.6 480.159ZM555.6 467.793L586.514 436.879L583.423 433.788L555.6 461.611L555.6 467.793ZM555.6 455.428L580.332 430.697L577.24 427.605L555.6 449.245L555.6 455.428ZM555.6 443.062L574.149 424.514L571.057 421.422L555.6 436.879L555.6 443.062ZM555.6 430.697L567.966 418.331L564.875 415.24L555.6 424.514L555.6 430.697ZM555.6 418.331L561.783 412.148L558.692 409.057L555.6 412.148L555.6 418.331ZM599.539 493.184L596.448 496.275L621.179 521.006L645.91 496.275L642.819 493.184L621.179 514.823L599.539 493.184ZM605.722 487.001L602.63 490.092L621.179 508.641L639.727 490.092L636.636 487.001L621.179 502.458L605.722 487.001ZM611.905 480.818L608.813 483.91L621.179 496.275L633.544 483.91L630.453 480.818L621.179 490.092L611.905 480.818ZM618.087 474.635L614.996 477.727L621.179 483.91L627.362 477.727L624.27 474.635L621.179 477.727L618.087 474.635ZM562.442 399.124L559.351 402.215L621.179 464.043L683.007 402.215L679.915 399.124L621.179 457.86L562.442 399.124Z" fill="#081443"/>
</g>
<g clip-path="url(#clip8_244_155)">
<path fill-rule="evenodd" clip-rule="evenodd" d="M436.188 397.843L434.377 396.032L437.468 392.941L442.371 397.843L436.188 397.843V397.843ZM543.856 397.843L545.667 396.032L542.576 392.941L537.674 397.843L543.856 397.843V397.843ZM448.553 397.843L440.56 389.849L443.651 386.758L454.736 397.843L448.553 397.843V397.843ZM531.491 397.843L539.484 389.849L536.393 386.758L525.308 397.843L531.491 397.843V397.843ZM460.919 397.843L446.743 383.667L449.834 380.575L467.102 397.843L460.919 397.843V397.843ZM519.125 397.843L533.302 383.667L530.21 380.575L512.942 397.843L519.125 397.843V397.843ZM473.285 397.843L452.925 377.484L456.017 374.392L479.467 397.843L473.285 397.843V397.843ZM506.76 397.843L527.119 377.484L524.027 374.392L500.577 397.843L506.76 397.843V397.843ZM485.65 397.843L459.108 371.301L462.2 368.21L490.022 396.032L517.845 368.21L520.936 371.301L494.394 397.843L485.65 397.843V397.843ZM554.979 397.843L493.773 336.636L496.864 333.545L555.601 392.282L555.601 397.843L554.979 397.843V397.843ZM555.601 386.099L499.955 330.454L503.047 327.362L555.601 379.916L555.601 386.099V386.099ZM555.601 373.733L506.138 324.271L509.23 321.179L555.601 367.55L555.601 373.733V373.733ZM555.601 361.368L512.321 318.088L515.412 314.997L555.601 355.185L555.601 361.368V361.368ZM555.601 349.002L518.504 311.905L521.595 308.814L555.601 342.819L555.601 349.002V349.002ZM555.601 336.636L524.687 305.722L527.778 302.631L555.601 330.454L555.601 336.636ZM555.601 324.271L530.869 299.54L533.961 296.448L555.601 318.088L555.601 324.271V324.271ZM555.601 311.905L537.052 293.357L540.144 290.265L555.601 305.722L555.601 311.905V311.905ZM555.601 299.54L543.235 287.174L546.326 284.083L555.601 293.357L555.601 299.54V299.54ZM555.601 287.174L549.418 280.991L552.509 277.9L555.601 280.991L555.601 287.174V287.174ZM436.188 266.686L490.022 320.52L543.856 266.686L537.674 266.686L490.022 314.338L442.371 266.686L436.188 266.686ZM448.553 266.686L490.022 308.155L531.491 266.686L525.308 266.686L490.022 301.972L454.736 266.686L448.553 266.686ZM460.919 266.686L490.022 295.789L519.125 266.686L512.942 266.686L490.022 289.606L467.102 266.686L460.919 266.686ZM473.285 266.686L490.022 283.424L506.76 266.686L500.577 266.686L490.022 277.241L479.467 266.686L473.285 266.686ZM485.65 266.686L490.022 271.058L494.394 266.686L485.65 266.686ZM425.065 397.843L486.272 336.636L483.18 333.545L424.444 392.282L424.444 397.843L425.065 397.843V397.843ZM424.444 386.099L480.089 330.454L476.997 327.362L424.444 379.916L424.444 386.099ZM424.444 373.733L473.906 324.271L470.815 321.179L424.444 367.55L424.444 373.733ZM424.444 361.368L467.723 318.088L464.632 314.997L424.444 355.185L424.444 361.368ZM424.444 349.002L461.54 311.905L458.449 308.814L424.444 342.819L424.444 349.002ZM424.444 336.636L455.358 305.722L452.266 302.631L424.444 330.454L424.444 336.636ZM424.444 324.271L449.175 299.54L446.083 296.448L424.444 318.088L424.444 324.271ZM424.444 311.905L442.992 293.357L439.901 290.265L424.444 305.722L424.444 311.905ZM424.444 299.54L436.809 287.174L433.718 284.083L424.444 293.357L424.444 299.54ZM424.444 287.174L430.626 280.991L427.535 277.9L424.444 280.991L424.444 287.174ZM468.382 362.027L465.291 365.118L490.022 389.849L514.753 365.118L511.662 362.027L490.022 383.667L468.382 362.027ZM474.565 355.844L471.474 358.935L490.022 377.484L508.57 358.935L505.479 355.844L490.022 371.301L474.565 355.844ZM480.748 349.661L477.657 352.753L490.022 365.118L502.388 352.753L499.296 349.661L490.022 358.935L480.748 349.661ZM486.931 343.478L483.839 346.57L490.022 352.753L496.205 346.57L493.114 343.478L490.022 346.57L486.931 343.478ZM431.286 267.967L428.194 271.058L490.022 332.886L551.85 271.058L548.759 267.967L490.022 326.703L431.286 267.967Z" fill="#081443"/>
</g>
<g clip-path="url(#clip9_244_155)">
<path fill-rule="evenodd" clip-rule="evenodd" d="M305.031 266.686L303.22 264.875L306.311 261.784L311.213 266.686L305.031 266.686V266.686ZM412.699 266.686L414.51 264.875L411.419 261.784L406.516 266.686L412.699 266.686V266.686ZM317.396 266.686L309.402 258.692L312.494 255.601L323.579 266.686L317.396 266.686V266.686ZM400.334 266.686L408.327 258.692L405.236 255.601L394.151 266.686L400.334 266.686V266.686ZM329.762 266.686L315.585 252.51L318.677 249.418L335.945 266.686L329.762 266.686V266.686ZM387.968 266.686L402.144 252.51L399.053 249.418L381.785 266.686L387.968 266.686V266.686ZM342.127 266.686L321.768 246.327L324.859 243.235L348.31 266.686L342.127 266.686V266.686ZM375.602 266.686L395.962 246.327L392.87 243.235L369.42 266.686L375.602 266.686V266.686ZM354.493 266.686L327.951 240.144L331.042 237.053L358.865 264.875L386.687 237.053L389.779 240.144L363.237 266.686L354.493 266.686V266.686ZM423.822 266.686L362.615 205.479L365.707 202.388L424.443 261.125L424.443 266.686L423.822 266.686V266.686ZM424.443 254.942L368.798 199.297L371.89 196.205L424.443 248.759L424.443 254.942V254.942ZM424.443 242.576L374.981 193.114L378.072 190.022L424.443 236.393L424.443 242.576H424.443ZM424.443 230.211L381.164 186.931L384.255 183.84L424.443 224.028L424.443 230.211V230.211ZM424.443 217.845L387.347 180.748L390.438 177.657L424.443 211.662L424.443 217.845V217.845ZM424.443 205.479L393.529 174.565L396.621 171.474L424.443 199.297L424.443 205.479ZM424.443 193.114L399.712 168.383L402.804 165.291L424.443 186.931L424.443 193.114V193.114ZM424.443 180.748L405.895 162.2L408.986 159.108L424.443 174.565L424.443 180.748V180.748ZM424.443 168.383L412.078 156.017L415.169 152.926L424.443 162.2L424.443 168.383H424.443ZM424.443 156.017L418.261 149.834L421.352 146.743L424.443 149.834L424.443 156.017V156.017ZM305.031 135.529L358.865 189.363L412.699 135.529L406.516 135.529L358.865 183.181L311.213 135.529L305.031 135.529ZM317.396 135.529L358.865 176.998L400.334 135.529L394.151 135.529L358.865 170.815L323.579 135.529L317.396 135.529ZM329.762 135.529L358.865 164.632L387.968 135.529L381.785 135.529L358.865 158.449L335.945 135.529L329.762 135.529ZM342.127 135.529L358.865 152.267L375.602 135.529L369.42 135.529L358.865 146.084L348.31 135.529L342.127 135.529ZM354.493 135.529L358.865 139.901L363.237 135.529L354.493 135.529ZM293.908 266.686L355.114 205.479L352.023 202.388L293.286 261.125L293.286 266.686L293.908 266.686V266.686ZM293.286 254.942L348.932 199.297L345.84 196.205L293.286 248.759L293.286 254.942ZM293.286 242.576L342.749 193.114L339.657 190.022L293.286 236.393L293.286 242.576ZM293.286 230.211L336.566 186.931L333.475 183.84L293.286 224.028L293.286 230.211ZM293.286 217.845L330.383 180.748L327.292 177.657L293.286 211.662L293.286 217.845ZM293.286 205.479L324.2 174.565L321.109 171.474L293.286 199.297L293.286 205.479ZM293.286 193.114L318.018 168.383L314.926 165.291L293.286 186.931L293.286 193.114ZM293.286 180.748L311.835 162.2L308.743 159.108L293.286 174.565L293.286 180.748ZM293.286 168.383L305.652 156.017L302.561 152.926L293.286 162.2L293.286 168.383ZM293.286 156.017L299.469 149.834L296.378 146.743L293.286 149.834L293.286 156.017ZM337.225 230.87L334.134 233.961L358.865 258.692L383.596 233.961L380.505 230.87L358.865 252.51L337.225 230.87ZM343.408 224.687L340.316 227.778L358.865 246.327L377.413 227.778L374.322 224.687L358.865 240.144L343.408 224.687ZM349.591 218.504L346.499 221.596L358.865 233.961L371.23 221.596L368.139 218.504L358.865 227.778L349.591 218.504ZM355.773 212.321L352.682 215.413L358.865 221.596L365.048 215.413L361.956 212.321L358.865 215.413L355.773 212.321ZM300.128 136.81L297.037 139.901L358.865 201.729L420.693 139.901L417.601 136.81L358.865 195.546L300.128 136.81Z" fill="#081443"/>
</g>
<g clip-path="url(#clip10_244_155)">
<path fill-rule="evenodd" clip-rule="evenodd" d="M436.188 529L434.377 527.189L437.468 524.098L442.371 529L436.188 529V529ZM543.856 529L545.667 527.189L542.576 524.098L537.674 529L543.856 529V529ZM448.553 529L440.56 521.006L443.651 517.915L454.736 529L448.553 529V529ZM531.491 529L539.484 521.006L536.393 517.915L525.308 529L531.491 529V529ZM460.919 529L446.743 514.823L449.834 511.732L467.102 529L460.919 529V529ZM519.125 529L533.302 514.823L530.21 511.732L512.942 529L519.125 529V529ZM473.285 529L452.925 508.641L456.017 505.549L479.467 529L473.285 529V529ZM506.76 529L527.119 508.641L524.027 505.549L500.577 529L506.76 529V529ZM485.65 529L459.108 502.458L462.2 499.366L490.022 527.189L517.845 499.367L520.936 502.458L494.394 529L485.65 529V529ZM554.979 529L493.773 467.793L496.864 464.702L555.601 523.439L555.601 529L554.979 529V529ZM555.601 517.256L499.955 461.611L503.047 458.519L555.601 511.073L555.601 517.256V517.256ZM555.601 504.89L506.138 455.428L509.23 452.336L555.601 498.707L555.601 504.89V504.89ZM555.601 492.525L512.321 449.245L515.412 446.154L555.601 486.342L555.601 492.525V492.525ZM555.601 480.159L518.504 443.062L521.595 439.971L555.601 473.976L555.601 480.159V480.159ZM555.601 467.793L524.687 436.879L527.778 433.788L555.601 461.611L555.601 467.793ZM555.601 455.428L530.869 430.697L533.961 427.605L555.601 449.245L555.601 455.428V455.428ZM555.601 443.062L537.052 424.514L540.144 421.422L555.601 436.879L555.601 443.062V443.062ZM555.601 430.697L543.235 418.331L546.326 415.24L555.601 424.514L555.601 430.697V430.697ZM555.601 418.331L549.418 412.148L552.509 409.057L555.601 412.148L555.601 418.331V418.331ZM436.188 397.843L490.022 451.677L543.856 397.843L537.674 397.843L490.022 445.495L442.371 397.843L436.188 397.843ZM448.553 397.843L490.022 439.312L531.491 397.843L525.308 397.843L490.022 433.129L454.736 397.843L448.553 397.843ZM460.919 397.843L490.022 426.946L519.125 397.843L512.942 397.843L490.022 420.763L467.102 397.843L460.919 397.843ZM473.285 397.843L490.022 414.581L506.76 397.843L500.577 397.843L490.022 408.398L479.467 397.843L473.285 397.843ZM485.65 397.843L490.022 402.215L494.394 397.843L485.65 397.843ZM425.065 529L486.272 467.793L483.18 464.702L424.444 523.439L424.444 529L425.065 529V529ZM424.444 517.256L480.089 461.611L476.997 458.519L424.444 511.073L424.444 517.256ZM424.444 504.89L473.906 455.428L470.815 452.336L424.444 498.707L424.444 504.89ZM424.444 492.525L467.723 449.245L464.632 446.154L424.444 486.342L424.444 492.525ZM424.444 480.159L461.54 443.062L458.449 439.971L424.444 473.976L424.444 480.159ZM424.444 467.793L455.358 436.879L452.266 433.788L424.444 461.611L424.444 467.793ZM424.444 455.428L449.175 430.697L446.083 427.605L424.444 449.245L424.444 455.428ZM424.444 443.062L442.992 424.514L439.901 421.422L424.444 436.879L424.444 443.062ZM424.444 430.697L436.809 418.331L433.718 415.24L424.444 424.514L424.444 430.697ZM424.444 418.331L430.626 412.148L427.535 409.057L424.444 412.148L424.444 418.331ZM468.382 493.184L465.291 496.275L490.022 521.006L514.753 496.275L511.662 493.184L490.022 514.823L468.382 493.184ZM474.565 487.001L471.474 490.092L490.022 508.641L508.57 490.092L505.479 487.001L490.022 502.458L474.565 487.001ZM480.748 480.818L477.657 483.91L490.022 496.275L502.388 483.91L499.296 480.818L490.022 490.092L480.748 480.818ZM486.931 474.635L483.839 477.727L490.022 483.91L496.205 477.727L493.114 474.635L490.022 477.727L486.931 474.635ZM431.286 399.124L428.194 402.215L490.022 464.043L551.85 402.215L548.759 399.124L490.022 457.86L431.286 399.124Z" fill="#081443"/>
</g>
<g clip-path="url(#clip11_244_155)">
<path fill-rule="evenodd" clip-rule="evenodd" d="M305.031 397.843L303.22 396.032L306.311 392.941L311.213 397.843L305.031 397.843V397.843ZM412.699 397.843L414.51 396.032L411.419 392.941L406.516 397.843L412.699 397.843V397.843ZM317.396 397.843L309.402 389.849L312.494 386.758L323.579 397.843L317.396 397.843V397.843ZM400.334 397.843L408.327 389.849L405.236 386.758L394.151 397.843L400.334 397.843V397.843ZM329.762 397.843L315.585 383.667L318.677 380.575L335.945 397.843L329.762 397.843V397.843ZM387.968 397.843L402.144 383.667L399.053 380.575L381.785 397.843L387.968 397.843V397.843ZM342.127 397.843L321.768 377.484L324.859 374.392L348.31 397.843L342.127 397.843V397.843ZM375.602 397.843L395.962 377.484L392.87 374.392L369.42 397.843L375.602 397.843V397.843ZM354.493 397.843L327.951 371.301L331.042 368.21L358.865 396.032L386.687 368.21L389.779 371.301L363.237 397.843L354.493 397.843V397.843ZM423.822 397.843L362.615 336.636L365.707 333.545L424.443 392.282L424.443 397.843L423.822 397.843V397.843ZM424.443 386.099L368.798 330.454L371.89 327.362L424.443 379.916L424.443 386.099V386.099ZM424.443 373.733L374.981 324.271L378.072 321.179L424.443 367.55L424.443 373.733H424.443ZM424.443 361.368L381.164 318.088L384.255 314.997L424.443 355.185L424.443 361.368V361.368ZM424.443 349.002L387.347 311.905L390.438 308.814L424.443 342.819L424.443 349.002V349.002ZM424.443 336.636L393.529 305.722L396.621 302.631L424.443 330.454L424.443 336.636ZM424.443 324.271L399.712 299.54L402.804 296.448L424.443 318.088L424.443 324.271V324.271ZM424.443 311.905L405.895 293.357L408.986 290.265L424.443 305.722L424.443 311.905V311.905ZM424.443 299.54L412.078 287.174L415.169 284.083L424.443 293.357L424.443 299.54H424.443ZM424.443 287.174L418.261 280.991L421.352 277.9L424.443 280.991L424.443 287.174V287.174ZM305.031 266.686L358.865 320.52L412.699 266.686L406.516 266.686L358.865 314.338L311.213 266.686L305.031 266.686ZM317.396 266.686L358.865 308.155L400.334 266.686L394.151 266.686L358.865 301.972L323.579 266.686L317.396 266.686ZM329.762 266.686L358.865 295.789L387.968 266.686L381.785 266.686L358.865 289.606L335.945 266.686L329.762 266.686ZM342.127 266.686L358.865 283.424L375.602 266.686L369.42 266.686L358.865 277.241L348.31 266.686L342.127 266.686ZM354.493 266.686L358.865 271.058L363.237 266.686L354.493 266.686ZM293.908 397.843L355.114 336.636L352.023 333.545L293.286 392.282L293.286 397.843L293.908 397.843V397.843ZM293.286 386.099L348.932 330.454L345.84 327.362L293.286 379.916L293.286 386.099ZM293.286 373.733L342.749 324.271L339.657 321.179L293.286 367.55L293.286 373.733ZM293.286 361.368L336.566 318.088L333.475 314.997L293.286 355.185L293.286 361.368ZM293.286 349.002L330.383 311.905L327.292 308.814L293.286 342.819L293.286 349.002ZM293.286 336.636L324.2 305.722L321.109 302.631L293.286 330.454L293.286 336.636ZM293.286 324.271L318.018 299.54L314.926 296.448L293.286 318.088L293.286 324.271ZM293.286 311.905L311.835 293.357L308.743 290.265L293.286 305.722L293.286 311.905ZM293.286 299.54L305.652 287.174L302.561 284.083L293.286 293.357L293.286 299.54ZM293.286 287.174L299.469 280.991L296.378 277.9L293.286 280.991L293.286 287.174ZM337.225 362.027L334.134 365.118L358.865 389.849L383.596 365.118L380.505 362.027L358.865 383.667L337.225 362.027ZM343.408 355.844L340.316 358.935L358.865 377.484L377.413 358.935L374.322 355.844L358.865 371.301L343.408 355.844ZM349.591 349.661L346.499 352.753L358.865 365.118L371.23 352.753L368.139 349.661L358.865 358.935L349.591 349.661ZM355.773 343.478L352.682 346.57L358.865 352.753L365.048 346.57L361.956 343.478L358.865 346.57L355.773 343.478ZM300.128 267.967L297.037 271.058L358.865 332.886L420.693 271.058L417.601 267.967L358.865 326.703L300.128 267.967Z" fill="#081443"/>
</g>
<g clip-path="url(#clip12_244_155)">
<path fill-rule="evenodd" clip-rule="evenodd" d="M173.874 266.686L172.063 264.875L175.154 261.784L180.057 266.686L173.874 266.686V266.686ZM281.542 266.686L283.353 264.875L280.262 261.784L275.36 266.686L281.542 266.686V266.686ZM186.239 266.686L178.246 258.692L181.337 255.601L192.422 266.686L186.239 266.686V266.686ZM269.177 266.686L277.171 258.692L274.079 255.601L262.994 266.686L269.177 266.686V266.686ZM198.605 266.686L184.429 252.51L187.52 249.418L204.788 266.686L198.605 266.686V266.686ZM256.811 266.686L270.988 252.51L267.896 249.418L250.628 266.686L256.811 266.686V266.686ZM210.971 266.686L190.611 246.327L193.703 243.235L217.153 266.686L210.971 266.686V266.686ZM244.446 266.686L264.805 246.327L261.714 243.235L238.263 266.686L244.446 266.686V266.686ZM223.336 266.686L196.794 240.144L199.886 237.053L227.708 264.875L255.531 237.053L258.622 240.144L232.08 266.686L223.336 266.686V266.686ZM292.665 266.686L231.459 205.479L234.55 202.388L293.287 261.125L293.287 266.686L292.665 266.686V266.686ZM293.287 254.942L237.641 199.297L240.733 196.205L293.287 248.759L293.287 254.942V254.942ZM293.287 242.576L243.824 193.114L246.916 190.022L293.287 236.393L293.287 242.576H293.287ZM293.287 230.211L250.007 186.931L253.098 183.84L293.287 224.028L293.287 230.211V230.211ZM293.287 217.845L256.19 180.748L259.281 177.657L293.287 211.662L293.287 217.845V217.845ZM293.287 205.479L262.373 174.565L265.464 171.474L293.287 199.297L293.287 205.479ZM293.287 193.114L268.555 168.383L271.647 165.291L293.287 186.931L293.287 193.114V193.114ZM293.287 180.748L274.738 162.2L277.83 159.108L293.287 174.565L293.287 180.748V180.748ZM293.287 168.383L280.921 156.017L284.012 152.926L293.287 162.2L293.287 168.383H293.287ZM293.287 156.017L287.104 149.834L290.195 146.743L293.287 149.834L293.287 156.017V156.017ZM173.874 135.529L227.708 189.363L281.542 135.529L275.36 135.529L227.708 183.181L180.057 135.529L173.874 135.529ZM186.239 135.529L227.708 176.998L269.177 135.529L262.994 135.529L227.708 170.815L192.422 135.529L186.239 135.529ZM198.605 135.529L227.708 164.632L256.811 135.529L250.628 135.529L227.708 158.449L204.788 135.529L198.605 135.529ZM210.971 135.529L227.708 152.267L244.446 135.529L238.263 135.529L227.708 146.084L217.153 135.529L210.971 135.529ZM223.336 135.529L227.708 139.901L232.08 135.529L223.336 135.529ZM162.751 266.686L223.958 205.479L220.866 202.388L162.13 261.125L162.13 266.686L162.751 266.686V266.686ZM162.13 254.942L217.775 199.297L214.683 196.205L162.13 248.759L162.13 254.942ZM162.13 242.576L211.592 193.114L208.501 190.022L162.13 236.393L162.13 242.576ZM162.13 230.211L205.409 186.931L202.318 183.84L162.13 224.028L162.13 230.211ZM162.13 217.845L199.226 180.748L196.135 177.657L162.13 211.662L162.13 217.845ZM162.13 205.479L193.044 174.565L189.952 171.474L162.13 199.297L162.13 205.479ZM162.13 193.114L186.861 168.383L183.769 165.291L162.13 186.931L162.13 193.114ZM162.13 180.748L180.678 162.2L177.587 159.108L162.13 174.565L162.13 180.748ZM162.13 168.383L174.495 156.017L171.404 152.926L162.13 162.2L162.13 168.383ZM162.13 156.017L168.312 149.834L165.221 146.743L162.13 149.834L162.13 156.017ZM206.068 230.87L202.977 233.961L227.708 258.692L252.439 233.961L249.348 230.87L227.708 252.51L206.068 230.87ZM212.251 224.687L209.16 227.778L227.708 246.327L246.257 227.778L243.165 224.687L227.708 240.144L212.251 224.687ZM218.434 218.504L215.343 221.596L227.708 233.961L240.074 221.596L236.982 218.504L227.708 227.778L218.434 218.504ZM224.617 212.321L221.525 215.413L227.708 221.596L233.891 215.413L230.8 212.321L227.708 215.413L224.617 212.321ZM168.972 136.81L165.88 139.901L227.708 201.729L289.536 139.901L286.445 136.81L227.708 195.546L168.972 136.81Z" fill="#081443"/>
</g>
<g clip-path="url(#clip13_244_155)">
<path fill-rule="evenodd" clip-rule="evenodd" d="M305.031 529L303.22 527.189L306.311 524.098L311.213 529L305.031 529V529ZM412.699 529L414.51 527.189L411.419 524.098L406.516 529L412.699 529V529ZM317.396 529L309.402 521.006L312.494 517.915L323.579 529L317.396 529V529ZM400.334 529L408.327 521.006L405.236 517.915L394.151 529L400.334 529V529ZM329.762 529L315.585 514.823L318.677 511.732L335.945 529L329.762 529V529ZM387.968 529L402.144 514.823L399.053 511.732L381.785 529L387.968 529V529ZM342.127 529L321.768 508.641L324.859 505.549L348.31 529L342.127 529V529ZM375.602 529L395.962 508.641L392.87 505.549L369.42 529L375.602 529V529ZM354.493 529L327.951 502.458L331.042 499.366L358.865 527.189L386.687 499.367L389.779 502.458L363.237 529L354.493 529V529ZM423.822 529L362.615 467.793L365.707 464.702L424.443 523.439L424.443 529L423.822 529V529ZM424.443 517.256L368.798 461.611L371.89 458.519L424.443 511.073L424.443 517.256V517.256ZM424.443 504.89L374.981 455.428L378.072 452.336L424.443 498.707L424.443 504.89H424.443ZM424.443 492.525L381.164 449.245L384.255 446.154L424.443 486.342L424.443 492.525V492.525ZM424.443 480.159L387.347 443.062L390.438 439.971L424.443 473.976L424.443 480.159V480.159ZM424.443 467.793L393.529 436.879L396.621 433.788L424.443 461.611L424.443 467.793ZM424.443 455.428L399.712 430.697L402.804 427.605L424.443 449.245L424.443 455.428V455.428ZM424.443 443.062L405.895 424.514L408.986 421.422L424.443 436.879L424.443 443.062V443.062ZM424.443 430.697L412.078 418.331L415.169 415.24L424.443 424.514L424.443 430.697H424.443ZM424.443 418.331L418.261 412.148L421.352 409.057L424.443 412.148L424.443 418.331V418.331ZM305.031 397.843L358.865 451.677L412.699 397.843L406.516 397.843L358.865 445.495L311.213 397.843L305.031 397.843ZM317.396 397.843L358.865 439.312L400.334 397.843L394.151 397.843L358.865 433.129L323.579 397.843L317.396 397.843ZM329.762 397.843L358.865 426.946L387.968 397.843L381.785 397.843L358.865 420.763L335.945 397.843L329.762 397.843ZM342.127 397.843L358.865 414.581L375.602 397.843L369.42 397.843L358.865 408.398L348.31 397.843L342.127 397.843ZM354.493 397.843L358.865 402.215L363.237 397.843L354.493 397.843ZM293.908 529L355.114 467.793L352.023 464.702L293.286 523.439L293.286 529L293.908 529V529ZM293.286 517.256L348.932 461.611L345.84 458.519L293.286 511.073L293.286 517.256ZM293.286 504.89L342.749 455.428L339.657 452.336L293.286 498.707L293.286 504.89ZM293.286 492.525L336.566 449.245L333.475 446.154L293.286 486.342L293.286 492.525ZM293.286 480.159L330.383 443.062L327.292 439.971L293.286 473.976L293.286 480.159ZM293.286 467.793L324.2 436.879L321.109 433.788L293.286 461.611L293.286 467.793ZM293.286 455.428L318.018 430.697L314.926 427.605L293.286 449.245L293.286 455.428ZM293.286 443.062L311.835 424.514L308.743 421.422L293.286 436.879L293.286 443.062ZM293.286 430.697L305.652 418.331L302.561 415.24L293.286 424.514L293.286 430.697ZM293.286 418.331L299.469 412.148L296.378 409.057L293.286 412.148L293.286 418.331ZM337.225 493.184L334.134 496.275L358.865 521.006L383.596 496.275L380.505 493.184L358.865 514.823L337.225 493.184ZM343.408 487.001L340.316 490.092L358.865 508.641L377.413 490.092L374.322 487.001L358.865 502.458L343.408 487.001ZM349.591 480.818L346.499 483.91L358.865 496.275L371.23 483.91L368.139 480.818L358.865 490.092L349.591 480.818ZM355.773 474.635L352.682 477.727L358.865 483.91L365.048 477.727L361.956 474.635L358.865 477.727L355.773 474.635ZM300.128 399.124L297.037 402.215L358.865 464.043L420.693 402.215L417.601 399.124L358.865 457.86L300.128 399.124Z" fill="#081443"/>
</g>
<g clip-path="url(#clip14_244_155)">
<path fill-rule="evenodd" clip-rule="evenodd" d="M173.874 397.843L172.063 396.032L175.154 392.941L180.057 397.843L173.874 397.843V397.843ZM281.542 397.843L283.353 396.032L280.262 392.941L275.36 397.843L281.542 397.843V397.843ZM186.239 397.843L178.246 389.849L181.337 386.758L192.422 397.843L186.239 397.843V397.843ZM269.177 397.843L277.171 389.849L274.079 386.758L262.994 397.843L269.177 397.843V397.843ZM198.605 397.843L184.429 383.667L187.52 380.575L204.788 397.843L198.605 397.843V397.843ZM256.811 397.843L270.988 383.667L267.896 380.575L250.628 397.843L256.811 397.843V397.843ZM210.971 397.843L190.611 377.484L193.703 374.392L217.153 397.843L210.971 397.843V397.843ZM244.446 397.843L264.805 377.484L261.714 374.392L238.263 397.843L244.446 397.843V397.843ZM223.336 397.843L196.794 371.301L199.886 368.21L227.708 396.032L255.531 368.21L258.622 371.301L232.08 397.843L223.336 397.843V397.843ZM292.665 397.843L231.459 336.636L234.55 333.545L293.287 392.282L293.287 397.843L292.665 397.843V397.843ZM293.287 386.099L237.641 330.454L240.733 327.362L293.287 379.916L293.287 386.099V386.099ZM293.287 373.733L243.824 324.271L246.916 321.179L293.287 367.55L293.287 373.733H293.287ZM293.287 361.368L250.007 318.088L253.098 314.997L293.287 355.185L293.287 361.368V361.368ZM293.287 349.002L256.19 311.905L259.281 308.814L293.287 342.819L293.287 349.002V349.002ZM293.287 336.636L262.373 305.722L265.464 302.631L293.287 330.454L293.287 336.636ZM293.287 324.271L268.555 299.54L271.647 296.448L293.287 318.088L293.287 324.271V324.271ZM293.287 311.905L274.738 293.357L277.83 290.265L293.287 305.722L293.287 311.905V311.905ZM293.287 299.54L280.921 287.174L284.012 284.083L293.287 293.357L293.287 299.54H293.287ZM293.287 287.174L287.104 280.991L290.195 277.9L293.287 280.991L293.287 287.174V287.174ZM173.874 266.686L227.708 320.52L281.542 266.686L275.36 266.686L227.708 314.338L180.057 266.686L173.874 266.686ZM186.239 266.686L227.708 308.155L269.177 266.686L262.994 266.686L227.708 301.972L192.422 266.686L186.239 266.686ZM198.605 266.686L227.708 295.789L256.811 266.686L250.628 266.686L227.708 289.606L204.788 266.686L198.605 266.686ZM210.971 266.686L227.708 283.424L244.446 266.686L238.263 266.686L227.708 277.241L217.153 266.686L210.971 266.686ZM223.336 266.686L227.708 271.058L232.08 266.686L223.336 266.686ZM162.751 397.843L223.958 336.636L220.866 333.545L162.13 392.282L162.13 397.843L162.751 397.843V397.843ZM162.13 386.099L217.775 330.454L214.683 327.362L162.13 379.916L162.13 386.099ZM162.13 373.733L211.592 324.271L208.501 321.179L162.13 367.55L162.13 373.733ZM162.13 361.368L205.409 318.088L202.318 314.997L162.13 355.185L162.13 361.368ZM162.13 349.002L199.226 311.905L196.135 308.814L162.13 342.819L162.13 349.002ZM162.13 336.636L193.044 305.722L189.952 302.631L162.13 330.454L162.13 336.636ZM162.13 324.271L186.861 299.54L183.769 296.448L162.13 318.088L162.13 324.271ZM162.13 311.905L180.678 293.357L177.587 290.265L162.13 305.722L162.13 311.905ZM162.13 299.54L174.495 287.174L171.404 284.083L162.13 293.357L162.13 299.54ZM162.13 287.174L168.312 280.991L165.221 277.9L162.13 280.991L162.13 287.174ZM206.068 362.027L202.977 365.118L227.708 389.849L252.439 365.118L249.348 362.027L227.708 383.667L206.068 362.027ZM212.251 355.844L209.16 358.935L227.708 377.484L246.257 358.935L243.165 355.844L227.708 371.301L212.251 355.844ZM218.434 349.661L215.343 352.753L227.708 365.118L240.074 352.753L236.982 349.661L227.708 358.935L218.434 349.661ZM224.617 343.478L221.525 346.57L227.708 352.753L233.891 346.57L230.8 343.478L227.708 346.57L224.617 343.478ZM168.972 267.967L165.88 271.058L227.708 332.886L289.536 271.058L286.445 267.967L227.708 326.703L168.972 267.967Z" fill="#081443"/>
</g>
<g clip-path="url(#clip15_244_155)">
<path fill-rule="evenodd" clip-rule="evenodd" d="M42.7166 266.686L40.9057 264.875L43.9971 261.784L48.8994 266.686L42.7166 266.686V266.686ZM150.385 266.686L152.196 264.875L149.105 261.784L144.202 266.686L150.385 266.686V266.686ZM55.0822 266.686L47.0885 258.692L50.1799 255.601L61.265 266.686L55.0822 266.686V266.686ZM138.02 266.686L146.013 258.692L142.922 255.601L131.837 266.686L138.02 266.686V266.686ZM67.4478 266.686L53.2713 252.51L56.3627 249.418L73.6306 266.686L67.4478 266.686V266.686ZM125.654 266.686L139.831 252.51L136.739 249.418L119.471 266.686L125.654 266.686V266.686ZM79.8134 266.686L59.4541 246.327L62.5455 243.235L85.9962 266.686L79.8134 266.686V266.686ZM113.288 266.686L133.648 246.327L130.556 243.235L107.106 266.686L113.288 266.686V266.686ZM92.179 266.686L65.6369 240.144L68.7283 237.053L96.5509 264.875L124.374 237.053L127.465 240.144L100.923 266.686L92.179 266.686V266.686ZM161.508 266.686L100.301 205.479L103.393 202.388L162.129 261.125L162.129 266.686L161.508 266.686V266.686ZM162.129 254.942L106.484 199.297L109.576 196.205L162.129 248.759L162.129 254.942V254.942ZM162.129 242.576L112.667 193.114L115.758 190.022L162.129 236.393L162.129 242.576V242.576ZM162.129 230.211L118.85 186.931L121.941 183.84L162.129 224.028L162.129 230.211V230.211ZM162.129 217.845L125.033 180.748L128.124 177.657L162.129 211.662L162.129 217.845H162.129ZM162.129 205.479L131.215 174.565L134.307 171.474L162.129 199.297L162.129 205.479ZM162.129 193.114L137.398 168.383L140.49 165.291L162.129 186.931L162.129 193.114V193.114ZM162.129 180.748L143.581 162.2L146.672 159.108L162.129 174.565L162.129 180.748H162.129ZM162.129 168.383L149.764 156.017L152.855 152.926L162.129 162.2L162.129 168.383V168.383ZM162.129 156.017L155.947 149.834L159.038 146.743L162.129 149.834L162.129 156.017H162.129ZM42.7166 135.529L96.5509 189.363L150.385 135.529L144.202 135.529L96.5509 183.181L48.8994 135.529L42.7166 135.529ZM55.0822 135.529L96.5509 176.998L138.02 135.529L131.837 135.529L96.5509 170.815L61.265 135.529L55.0822 135.529ZM67.4478 135.529L96.5509 164.632L125.654 135.529L119.471 135.529L96.5509 158.449L73.6306 135.529L67.4478 135.529ZM79.8134 135.529L96.5509 152.267L113.288 135.529L107.106 135.529L96.5509 146.084L85.9962 135.529L79.8134 135.529ZM92.179 135.529L96.5509 139.901L100.923 135.529L92.179 135.529ZM31.5938 266.686L92.8004 205.479L89.709 202.388L30.9724 261.125L30.9724 266.686L31.5938 266.686V266.686ZM30.9724 254.942L86.6176 199.297L83.5262 196.205L30.9724 248.759L30.9724 254.942ZM30.9724 242.576L80.4348 193.114L77.3434 190.022L30.9724 236.393L30.9724 242.576ZM30.9724 230.211L74.252 186.931L71.1606 183.84L30.9724 224.028L30.9724 230.211ZM30.9724 217.845L68.0692 180.748L64.9778 177.657L30.9724 211.662L30.9724 217.845ZM30.9724 205.479L61.8864 174.565L58.795 171.474L30.9724 199.297L30.9724 205.479ZM30.9724 193.114L55.7036 168.383L52.6122 165.291L30.9724 186.931L30.9724 193.114ZM30.9724 180.748L49.5208 162.2L46.4294 159.108L30.9724 174.565L30.9724 180.748ZM30.9724 168.383L43.338 156.017L40.2466 152.926L30.9724 162.2L30.9724 168.383ZM30.9724 156.017L37.1552 149.834L34.0638 146.743L30.9724 149.834L30.9724 156.017ZM74.9111 230.87L71.8197 233.961L96.5509 258.692L121.282 233.961L118.191 230.87L96.5509 252.51L74.9111 230.87ZM81.0939 224.687L78.0025 227.778L96.5509 246.327L115.099 227.778L112.008 224.687L96.5509 240.144L81.0939 224.687ZM87.2767 218.504L84.1853 221.596L96.5509 233.961L108.917 221.596L105.825 218.504L96.5509 227.778L87.2767 218.504ZM93.4595 212.321L90.3681 215.413L96.5509 221.596L102.734 215.413L99.6423 212.321L96.5509 215.413L93.4595 212.321ZM37.8143 136.81L34.7229 139.901L96.5509 201.729L158.379 139.901L155.288 136.81L96.5509 195.546L37.8143 136.81Z" fill="#081443"/>
</g>
<g clip-path="url(#clip16_244_155)">
<path fill-rule="evenodd" clip-rule="evenodd" d="M-88.4401 266.686L-90.251 264.875L-87.1596 261.784L-82.2573 266.686L-88.4401 266.686V266.686ZM19.2285 266.686L21.0394 264.875L17.948 261.784L13.0457 266.686L19.2285 266.686V266.686ZM-76.0745 266.686L-84.0682 258.692L-80.9768 255.601L-69.8917 266.686L-76.0745 266.686V266.686ZM6.86286 266.686L14.8566 258.692L11.7652 255.601L0.680063 266.686L6.86286 266.686V266.686ZM-63.7089 266.686L-77.8854 252.51L-74.794 249.418L-57.5261 266.686L-63.7089 266.686V266.686ZM-5.50274 266.686L8.67376 252.51L5.58236 249.418L-11.6855 266.686L-5.50274 266.686V266.686ZM-51.3433 266.686L-71.7026 246.327L-68.6112 243.235L-45.1605 266.686L-51.3433 266.686V266.686ZM-17.8683 266.686L2.49097 246.327L-0.600435 243.235L-24.0511 266.686L-17.8683 266.686V266.686ZM-38.9777 266.686L-65.5198 240.144L-62.4284 237.053L-34.6058 264.875L-6.78323 237.053L-3.69183 240.144L-30.2339 266.686L-38.9777 266.686V266.686ZM30.3513 266.686L-30.8553 205.479L-27.7639 202.388L30.9727 261.125L30.9727 266.686L30.3513 266.686V266.686ZM30.9727 254.942L-24.6725 199.297L-21.5811 196.205L30.9727 248.759L30.9727 254.942H30.9727ZM30.9727 242.576L-18.4897 193.114L-15.3983 190.022L30.9727 236.393L30.9727 242.576H30.9727ZM30.9727 230.211L-12.3069 186.931L-9.21553 183.84L30.9727 224.028L30.9727 230.211H30.9727ZM30.9727 217.845L-6.12413 180.748L-3.03273 177.657L30.9727 211.662L30.9727 217.845H30.9727ZM30.9727 205.479L0.0586686 174.565L3.15007 171.474L30.9727 199.297L30.9727 205.479ZM30.9727 193.114L6.24147 168.383L9.33287 165.291L30.9727 186.931L30.9727 193.114H30.9727ZM30.9727 180.748L12.4243 162.2L15.5157 159.108L30.9727 174.565L30.9727 180.748H30.9727ZM30.9727 168.383L18.6071 156.017L21.6985 152.926L30.9727 162.2L30.9727 168.383H30.9727ZM30.9727 156.017L24.7899 149.834L27.8813 146.743L30.9727 149.834L30.9727 156.017H30.9727ZM-88.4401 135.529L-34.6058 189.363L19.2285 135.529L13.0457 135.529L-34.6058 183.181L-82.2573 135.529L-88.4401 135.529ZM-76.0745 135.529L-34.6058 176.998L6.86288 135.529L0.680075 135.529L-34.6058 170.815L-69.8917 135.529L-76.0745 135.529ZM-63.7089 135.529L-34.6058 164.632L-5.50272 135.529L-11.6855 135.529L-34.6058 158.449L-57.5261 135.529L-63.7089 135.529ZM-51.3433 135.529L-34.6058 152.267L-17.8683 135.529L-24.0511 135.529L-34.6058 146.084L-45.1605 135.529L-51.3433 135.529ZM-38.9777 135.529L-34.6058 139.901L-30.2339 135.529L-38.9777 135.529ZM-99.5629 266.686L-38.3563 205.479L-41.4477 202.388L-100.184 261.125L-100.184 266.686L-99.5629 266.686V266.686ZM-100.184 254.942L-44.5391 199.297L-47.6305 196.205L-100.184 248.759L-100.184 254.942ZM-100.184 242.576L-50.7219 193.114L-53.8133 190.022L-100.184 236.393L-100.184 242.576ZM-100.184 230.211L-56.9047 186.931L-59.9961 183.84L-100.184 224.028L-100.184 230.211ZM-100.184 217.845L-63.0875 180.748L-66.1789 177.657L-100.184 211.662L-100.184 217.845ZM-100.184 205.479L-69.2703 174.565L-72.3617 171.474L-100.184 199.297L-100.184 205.479ZM-100.184 193.114L-75.4531 168.383L-78.5445 165.291L-100.184 186.931L-100.184 193.114ZM-100.184 180.748L-81.6359 162.2L-84.7273 159.108L-100.184 174.565L-100.184 180.748ZM-100.184 168.383L-87.8187 156.017L-90.9101 152.926L-100.184 162.2L-100.184 168.383ZM-100.184 156.017L-94.0015 149.834L-97.0929 146.743L-100.184 149.834L-100.184 156.017ZM-56.2456 230.87L-59.337 233.961L-34.6058 258.692L-9.87463 233.961L-12.966 230.87L-34.6058 252.51L-56.2456 230.87ZM-50.0628 224.687L-53.1542 227.778L-34.6058 246.327L-16.0574 227.778L-19.1488 224.687L-34.6058 240.144L-50.0628 224.687ZM-43.88 218.504L-46.9714 221.596L-34.6058 233.961L-22.2402 221.596L-25.3316 218.504L-34.6058 227.778L-43.88 218.504ZM-37.6972 212.321L-40.7886 215.413L-34.6058 221.596L-28.423 215.413L-31.5144 212.321L-34.6058 215.413L-37.6972 212.321ZM-93.3424 136.81L-96.4338 139.901L-34.6058 201.729L27.2222 139.901L24.1308 136.81L-34.6058 195.546L-93.3424 136.81Z" fill="#081443"/>
</g>
<g clip-path="url(#clip17_244_155)">
<path fill-rule="evenodd" clip-rule="evenodd" d="M173.874 529L172.063 527.189L175.154 524.098L180.057 529L173.874 529V529ZM281.542 529L283.353 527.189L280.262 524.098L275.36 529L281.542 529V529ZM186.239 529L178.246 521.006L181.337 517.915L192.422 529L186.239 529V529ZM269.177 529L277.171 521.006L274.079 517.915L262.994 529L269.177 529V529ZM198.605 529L184.429 514.823L187.52 511.732L204.788 529L198.605 529V529ZM256.811 529L270.988 514.823L267.896 511.732L250.628 529L256.811 529V529ZM210.971 529L190.611 508.641L193.703 505.549L217.153 529L210.971 529V529ZM244.446 529L264.805 508.641L261.714 505.549L238.263 529L244.446 529V529ZM223.336 529L196.794 502.458L199.886 499.366L227.708 527.189L255.531 499.367L258.622 502.458L232.08 529L223.336 529V529ZM292.665 529L231.459 467.793L234.55 464.702L293.287 523.439L293.287 529L292.665 529V529ZM293.287 517.256L237.641 461.611L240.733 458.519L293.287 511.073L293.287 517.256V517.256ZM293.287 504.89L243.824 455.428L246.916 452.336L293.287 498.707L293.287 504.89H293.287ZM293.287 492.525L250.007 449.245L253.098 446.154L293.287 486.342L293.287 492.525V492.525ZM293.287 480.159L256.19 443.062L259.281 439.971L293.287 473.976L293.287 480.159V480.159ZM293.287 467.793L262.373 436.879L265.464 433.788L293.287 461.611L293.287 467.793ZM293.287 455.428L268.555 430.697L271.647 427.605L293.287 449.245L293.287 455.428V455.428ZM293.287 443.062L274.738 424.514L277.83 421.422L293.287 436.879L293.287 443.062V443.062ZM293.287 430.697L280.921 418.331L284.012 415.24L293.287 424.514L293.287 430.697H293.287ZM293.287 418.331L287.104 412.148L290.195 409.057L293.287 412.148L293.287 418.331V418.331ZM173.874 397.843L227.708 451.677L281.542 397.843L275.36 397.843L227.708 445.495L180.057 397.843L173.874 397.843ZM186.239 397.843L227.708 439.312L269.177 397.843L262.994 397.843L227.708 433.129L192.422 397.843L186.239 397.843ZM198.605 397.843L227.708 426.946L256.811 397.843L250.628 397.843L227.708 420.763L204.788 397.843L198.605 397.843ZM210.971 397.843L227.708 414.581L244.446 397.843L238.263 397.843L227.708 408.398L217.153 397.843L210.971 397.843ZM223.336 397.843L227.708 402.215L232.08 397.843L223.336 397.843ZM162.751 529L223.958 467.793L220.866 464.702L162.13 523.439L162.13 529L162.751 529V529ZM162.13 517.256L217.775 461.611L214.683 458.519L162.13 511.073L162.13 517.256ZM162.13 504.89L211.592 455.428L208.501 452.336L162.13 498.707L162.13 504.89ZM162.13 492.525L205.409 449.245L202.318 446.154L162.13 486.342L162.13 492.525ZM162.13 480.159L199.226 443.062L196.135 439.971L162.13 473.976L162.13 480.159ZM162.13 467.793L193.044 436.879L189.952 433.788L162.13 461.611L162.13 467.793ZM162.13 455.428L186.861 430.697L183.769 427.605L162.13 449.245L162.13 455.428ZM162.13 443.062L180.678 424.514L177.587 421.422L162.13 436.879L162.13 443.062ZM162.13 430.697L174.495 418.331L171.404 415.24L162.13 424.514L162.13 430.697ZM162.13 418.331L168.312 412.148L165.221 409.057L162.13 412.148L162.13 418.331ZM206.068 493.184L202.977 496.275L227.708 521.006L252.439 496.275L249.348 493.184L227.708 514.823L206.068 493.184ZM212.251 487.001L209.16 490.092L227.708 508.641L246.257 490.092L243.165 487.001L227.708 502.458L212.251 487.001ZM218.434 480.818L215.343 483.91L227.708 496.275L240.074 483.91L236.982 480.818L227.708 490.092L218.434 480.818ZM224.617 474.635L221.525 477.727L227.708 483.91L233.891 477.727L230.8 474.635L227.708 477.727L224.617 474.635ZM168.972 399.124L165.88 402.215L227.708 464.043L289.536 402.215L286.445 399.124L227.708 457.86L168.972 399.124Z" fill="#081443"/>
</g>
<g clip-path="url(#clip18_244_155)">
<path fill-rule="evenodd" clip-rule="evenodd" d="M42.7166 397.843L40.9057 396.032L43.9971 392.941L48.8994 397.843L42.7166 397.843V397.843ZM150.385 397.843L152.196 396.032L149.105 392.941L144.202 397.843L150.385 397.843V397.843ZM55.0822 397.843L47.0885 389.849L50.1799 386.758L61.265 397.843L55.0822 397.843V397.843ZM138.02 397.843L146.013 389.849L142.922 386.758L131.837 397.843L138.02 397.843V397.843ZM67.4478 397.843L53.2713 383.667L56.3627 380.575L73.6306 397.843L67.4478 397.843V397.843ZM125.654 397.843L139.831 383.667L136.739 380.575L119.471 397.843L125.654 397.843V397.843ZM79.8134 397.843L59.4541 377.484L62.5455 374.392L85.9962 397.843L79.8134 397.843V397.843ZM113.288 397.843L133.648 377.484L130.556 374.392L107.106 397.843L113.288 397.843V397.843ZM92.179 397.843L65.6369 371.301L68.7283 368.21L96.5509 396.032L124.374 368.21L127.465 371.301L100.923 397.843L92.179 397.843V397.843ZM161.508 397.843L100.301 336.636L103.393 333.545L162.129 392.282L162.129 397.843L161.508 397.843V397.843ZM162.129 386.099L106.484 330.454L109.576 327.362L162.129 379.916L162.129 386.099V386.099ZM162.129 373.733L112.667 324.271L115.758 321.179L162.129 367.55L162.129 373.733V373.733ZM162.129 361.368L118.85 318.088L121.941 314.997L162.129 355.185L162.129 361.368V361.368ZM162.129 349.002L125.033 311.905L128.124 308.814L162.129 342.819L162.129 349.002H162.129ZM162.129 336.636L131.215 305.722L134.307 302.631L162.129 330.454L162.129 336.636ZM162.129 324.271L137.398 299.54L140.49 296.448L162.129 318.088L162.129 324.271V324.271ZM162.129 311.905L143.581 293.357L146.672 290.265L162.129 305.722L162.129 311.905H162.129ZM162.129 299.54L149.764 287.174L152.855 284.083L162.129 293.357L162.129 299.54V299.54ZM162.129 287.174L155.947 280.991L159.038 277.9L162.129 280.991L162.129 287.174H162.129ZM42.7166 266.686L96.5509 320.52L150.385 266.686L144.202 266.686L96.5509 314.338L48.8994 266.686L42.7166 266.686ZM55.0822 266.686L96.5509 308.155L138.02 266.686L131.837 266.686L96.5509 301.972L61.265 266.686L55.0822 266.686ZM67.4478 266.686L96.5509 295.789L125.654 266.686L119.471 266.686L96.5509 289.606L73.6306 266.686L67.4478 266.686ZM79.8134 266.686L96.5509 283.424L113.288 266.686L107.106 266.686L96.5509 277.241L85.9962 266.686L79.8134 266.686ZM92.179 266.686L96.5509 271.058L100.923 266.686L92.179 266.686ZM31.5938 397.843L92.8004 336.636L89.709 333.545L30.9724 392.282L30.9724 397.843L31.5938 397.843V397.843ZM30.9724 386.099L86.6176 330.454L83.5262 327.362L30.9724 379.916L30.9724 386.099ZM30.9724 373.733L80.4348 324.271L77.3434 321.179L30.9724 367.55L30.9724 373.733ZM30.9724 361.368L74.252 318.088L71.1606 314.997L30.9724 355.185L30.9724 361.368ZM30.9724 349.002L68.0692 311.905L64.9778 308.814L30.9724 342.819L30.9724 349.002ZM30.9724 336.636L61.8864 305.722L58.795 302.631L30.9724 330.454L30.9724 336.636ZM30.9724 324.271L55.7036 299.54L52.6122 296.448L30.9724 318.088L30.9724 324.271ZM30.9724 311.905L49.5208 293.357L46.4294 290.265L30.9724 305.722L30.9724 311.905ZM30.9724 299.54L43.338 287.174L40.2466 284.083L30.9724 293.357L30.9724 299.54ZM30.9724 287.174L37.1552 280.991L34.0638 277.9L30.9724 280.991L30.9724 287.174ZM74.9111 362.027L71.8197 365.118L96.5509 389.849L121.282 365.118L118.191 362.027L96.5509 383.667L74.9111 362.027ZM81.0939 355.844L78.0025 358.935L96.5509 377.484L115.099 358.935L112.008 355.844L96.5509 371.301L81.0939 355.844ZM87.2767 349.661L84.1853 352.753L96.5509 365.118L108.917 352.753L105.825 349.661L96.5509 358.935L87.2767 349.661ZM93.4595 343.478L90.3681 346.57L96.5509 352.753L102.734 346.57L99.6423 343.478L96.5509 346.57L93.4595 343.478ZM37.8143 267.967L34.7229 271.058L96.5509 332.886L158.379 271.058L155.288 267.967L96.5509 326.703L37.8143 267.967Z" fill="#081443"/>
</g>
<g clip-path="url(#clip19_244_155)">
<path fill-rule="evenodd" clip-rule="evenodd" d="M436.372 136.157L434.561 134.346L437.653 131.254L442.555 136.157L436.372 136.157V136.157ZM544.041 136.157L545.852 134.346L542.76 131.254L537.858 136.157L544.041 136.157V136.157ZM448.738 136.157L440.744 128.163L443.836 125.072L454.921 136.157L448.738 136.157V136.157ZM531.675 136.157L539.669 128.163L536.578 125.072L525.493 136.157L531.675 136.157V136.157ZM461.104 136.157L446.927 121.98L450.018 118.889L467.286 136.157L461.104 136.157V136.157ZM519.31 136.157L533.486 121.98L530.395 118.889L513.127 136.157L519.31 136.157V136.157ZM473.469 136.157L453.11 115.797L456.201 112.706L479.652 136.157L473.469 136.157V136.157ZM506.944 136.157L527.303 115.797L524.212 112.706L500.761 136.157L506.944 136.157V136.157ZM485.835 136.157L459.293 109.615L462.384 106.523L490.207 134.346L518.029 106.523L521.121 109.615L494.579 136.157L485.835 136.157V136.157ZM555.164 136.157L493.957 74.9501L497.049 71.8587L555.785 130.595L555.785 136.157L555.164 136.157V136.157ZM555.785 124.413L500.14 68.7674L503.231 65.6759L555.785 118.23L555.785 124.413V124.413ZM555.785 112.047L506.323 62.5846L509.414 59.4932L555.785 105.864L555.785 112.047V112.047ZM555.785 99.6813L512.506 56.4017L515.597 53.3104L555.785 93.4985L555.785 99.6813V99.6813ZM555.785 87.3158L518.688 50.219L521.78 47.1276L555.785 81.1329L555.785 87.3158V87.3158ZM555.785 74.9501L524.871 44.0362L527.963 40.9448L555.785 68.7674L555.785 74.9501ZM555.785 62.5846L531.054 37.8534L534.145 34.762L555.785 56.4017L555.785 62.5846V62.5846ZM555.785 50.219L537.237 31.6706L540.328 28.5792L555.785 44.0362L555.785 50.219V50.219ZM555.785 37.8534L543.42 25.4878L546.511 22.3964L555.785 31.6706L555.785 37.8534V37.8534ZM555.785 25.4878L549.602 19.305L552.694 16.2136L555.785 19.305L555.785 25.4878V25.4878ZM436.372 4.99976L490.207 58.8341L544.041 4.99977L537.858 4.99977L490.207 52.6512L442.555 4.99976L436.372 4.99976ZM448.738 4.99976L490.207 46.4684L531.675 4.99977L525.493 4.99977L490.207 40.2857L454.921 4.99976L448.738 4.99976ZM461.104 4.99976L490.207 34.1029L519.31 4.99977L513.127 4.99977L490.207 27.9201L467.286 4.99976L461.104 4.99976ZM473.469 4.99976L490.207 21.7373L506.944 4.99977L500.761 4.99977L490.207 15.5545L479.652 4.99976L473.469 4.99976ZM485.835 4.99977L490.207 9.37166L494.579 4.99977L485.835 4.99977ZM425.25 136.157L486.456 74.9501L483.365 71.8587L424.628 130.595L424.628 136.157L425.25 136.157V136.157ZM424.628 124.413L480.273 68.7674L477.182 65.6759L424.628 118.23L424.628 124.413ZM424.628 112.047L474.091 62.5845L470.999 59.4931L424.628 105.864L424.628 112.047ZM424.628 99.6813L467.908 56.4017L464.816 53.3103L424.628 93.4985L424.628 99.6813ZM424.628 87.3157L461.725 50.2189L458.634 47.1275L424.628 81.1329L424.628 87.3157ZM424.628 74.9501L455.542 44.0361L452.451 40.9447L424.628 68.7673L424.628 74.9501ZM424.628 62.5845L449.359 37.8533L446.268 34.7619L424.628 56.4017L424.628 62.5845ZM424.628 50.2189L443.177 31.6706L440.085 28.5791L424.628 44.0361L424.628 50.2189ZM424.628 37.8533L436.994 25.4877L433.902 22.3964L424.628 31.6706L424.628 37.8533ZM424.628 25.4877L430.811 19.3049L427.72 16.2136L424.628 19.3049L424.628 25.4877ZM468.567 100.34L465.475 103.432L490.207 128.163L514.938 103.432L511.846 100.34L490.207 121.98L468.567 100.34ZM474.75 94.1576L471.658 97.249L490.207 115.797L508.755 97.249L505.664 94.1576L490.207 109.615L474.75 94.1576ZM480.932 87.9748L477.841 91.0662L490.207 103.432L502.572 91.0662L499.481 87.9748L490.207 97.249L480.932 87.9748ZM487.115 81.792L484.024 84.8834L490.207 91.0662L496.389 84.8834L493.298 81.792L490.207 84.8834L487.115 81.792ZM431.47 6.28025L428.379 9.37165L490.207 71.1996L552.035 9.37167L548.943 6.28026L490.207 65.0168L431.47 6.28025Z" fill="#081443"/>
</g>
<g clip-path="url(#clip20_244_155)">
<path fill-rule="evenodd" clip-rule="evenodd" d="M305.215 136.157L303.404 134.346L306.496 131.254L311.398 136.157L305.215 136.157V136.157ZM412.884 136.157L414.695 134.346L411.603 131.254L406.701 136.157L412.884 136.157V136.157ZM317.581 136.157L309.587 128.163L312.678 125.072L323.764 136.157L317.581 136.157V136.157ZM400.518 136.157L408.512 128.163L405.42 125.072L394.335 136.157L400.518 136.157V136.157ZM329.946 136.157L315.77 121.98L318.861 118.889L336.129 136.157L329.946 136.157V136.157ZM388.153 136.157L402.329 121.98L399.238 118.889L381.97 136.157L388.153 136.157V136.157ZM342.312 136.157L321.953 115.797L325.044 112.706L348.495 136.157L342.312 136.157V136.157ZM375.787 136.157L396.146 115.797L393.055 112.706L369.604 136.157L375.787 136.157V136.157ZM354.678 136.157L328.135 109.615L331.227 106.523L359.049 134.346L386.872 106.523L389.963 109.615L363.421 136.157L354.678 136.157V136.157ZM424.007 136.157L362.8 74.9501L365.891 71.8587L424.628 130.595L424.628 136.157L424.007 136.157V136.157ZM424.628 124.413L368.983 68.7674L372.074 65.6759L424.628 118.23L424.628 124.413V124.413ZM424.628 112.047L375.166 62.5846L378.257 59.4932L424.628 105.864L424.628 112.047H424.628ZM424.628 99.6813L381.348 56.4017L384.44 53.3104L424.628 93.4985L424.628 99.6813V99.6813ZM424.628 87.3158L387.531 50.219L390.623 47.1276L424.628 81.1329L424.628 87.3158V87.3158ZM424.628 74.9501L393.714 44.0362L396.805 40.9448L424.628 68.7674L424.628 74.9501ZM424.628 62.5846L399.897 37.8534L402.988 34.762L424.628 56.4017L424.628 62.5846V62.5846ZM424.628 50.219L406.08 31.6706L409.171 28.5792L424.628 44.0362L424.628 50.219V50.219ZM424.628 37.8534L412.262 25.4878L415.354 22.3964L424.628 31.6706L424.628 37.8534H424.628ZM424.628 25.4878L418.445 19.305L421.537 16.2136L424.628 19.305L424.628 25.4878V25.4878ZM305.215 4.99976L359.049 58.8341L412.884 4.99977L406.701 4.99977L359.049 52.6512L311.398 4.99976L305.215 4.99976ZM317.581 4.99976L359.049 46.4684L400.518 4.99977L394.335 4.99977L359.049 40.2857L323.764 4.99976L317.581 4.99976ZM329.946 4.99976L359.049 34.1029L388.153 4.99977L381.97 4.99977L359.049 27.9201L336.129 4.99976L329.946 4.99976ZM342.312 4.99976L359.049 21.7373L375.787 4.99977L369.604 4.99977L359.049 15.5545L348.495 4.99976L342.312 4.99976ZM354.678 4.99977L359.049 9.37166L363.421 4.99977L354.678 4.99977ZM294.092 136.157L355.299 74.9501L352.208 71.8587L293.471 130.595L293.471 136.157L294.092 136.157V136.157ZM293.471 124.413L349.116 68.7674L346.025 65.6759L293.471 118.23L293.471 124.413ZM293.471 112.047L342.933 62.5845L339.842 59.4931L293.471 105.864L293.471 112.047ZM293.471 99.6813L336.751 56.4017L333.659 53.3103L293.471 93.4985L293.471 99.6813ZM293.471 87.3157L330.568 50.2189L327.476 47.1275L293.471 81.1329L293.471 87.3157ZM293.471 74.9501L324.385 44.0361L321.294 40.9447L293.471 68.7673L293.471 74.9501ZM293.471 62.5845L318.202 37.8533L315.111 34.7619L293.471 56.4017L293.471 62.5845ZM293.471 50.2189L312.019 31.6706L308.928 28.5791L293.471 44.0361L293.471 50.2189ZM293.471 37.8533L305.837 25.4877L302.745 22.3964L293.471 31.6706L293.471 37.8533ZM293.471 25.4877L299.654 19.3049L296.562 16.2136L293.471 19.3049L293.471 25.4877ZM337.41 100.34L334.318 103.432L359.049 128.163L383.781 103.432L380.689 100.34L359.049 121.98L337.41 100.34ZM343.592 94.1576L340.501 97.249L359.049 115.797L377.598 97.249L374.506 94.1576L359.049 109.615L343.592 94.1576ZM349.775 87.9748L346.684 91.0662L359.049 103.432L371.415 91.0662L368.324 87.9748L359.049 97.249L349.775 87.9748ZM355.958 81.792L352.867 84.8834L359.049 91.0662L365.232 84.8834L362.141 81.792L359.049 84.8834L355.958 81.792ZM300.313 6.28025L297.221 9.37165L359.049 71.1996L420.877 9.37167L417.786 6.28026L359.049 65.0168L300.313 6.28025Z" fill="#081443"/>
</g>
<g clip-path="url(#clip21_244_155)">
<path fill-rule="evenodd" clip-rule="evenodd" d="M174.058 136.157L172.248 134.346L175.339 131.254L180.241 136.157L174.058 136.157V136.157ZM281.727 136.157L283.538 134.346L280.446 131.254L275.544 136.157L281.727 136.157V136.157ZM186.424 136.157L178.43 128.163L181.522 125.072L192.607 136.157L186.424 136.157V136.157ZM269.361 136.157L277.355 128.163L274.264 125.072L263.179 136.157L269.361 136.157V136.157ZM198.79 136.157L184.613 121.98L187.705 118.889L204.972 136.157L198.79 136.157V136.157ZM256.996 136.157L271.172 121.98L268.081 118.889L250.813 136.157L256.996 136.157V136.157ZM211.155 136.157L190.796 115.797L193.887 112.706L217.338 136.157L211.155 136.157V136.157ZM244.63 136.157L264.99 115.797L261.898 112.706L238.447 136.157L244.63 136.157V136.157ZM223.521 136.157L196.979 109.615L200.07 106.523L227.893 134.346L255.715 106.523L258.807 109.615L232.265 136.157L223.521 136.157V136.157ZM292.85 136.157L231.643 74.9501L234.735 71.8587L293.471 130.595L293.471 136.157L292.85 136.157V136.157ZM293.471 124.413L237.826 68.7674L240.917 65.6759L293.471 118.23L293.471 124.413V124.413ZM293.471 112.047L244.009 62.5846L247.1 59.4932L293.471 105.864L293.471 112.047H293.471ZM293.471 99.6813L250.192 56.4017L253.283 53.3104L293.471 93.4985L293.471 99.6813V99.6813ZM293.471 87.3158L256.374 50.219L259.466 47.1276L293.471 81.1329L293.471 87.3158V87.3158ZM293.471 74.9501L262.557 44.0362L265.649 40.9448L293.471 68.7674L293.471 74.9501ZM293.471 62.5846L268.74 37.8534L271.831 34.762L293.471 56.4017L293.471 62.5846V62.5846ZM293.471 50.219L274.923 31.6706L278.014 28.5792L293.471 44.0362L293.471 50.219V50.219ZM293.471 37.8534L281.106 25.4878L284.197 22.3964L293.471 31.6706L293.471 37.8534H293.471ZM293.471 25.4878L287.288 19.305L290.38 16.2136L293.471 19.305L293.471 25.4878V25.4878ZM174.058 4.99976L227.893 58.8341L281.727 4.99977L275.544 4.99977L227.893 52.6512L180.241 4.99976L174.058 4.99976ZM186.424 4.99976L227.893 46.4684L269.361 4.99977L263.179 4.99977L227.893 40.2857L192.607 4.99976L186.424 4.99976ZM198.79 4.99976L227.893 34.1029L256.996 4.99977L250.813 4.99977L227.893 27.9201L204.972 4.99976L198.79 4.99976ZM211.155 4.99976L227.893 21.7373L244.63 4.99977L238.447 4.99977L227.893 15.5545L217.338 4.99976L211.155 4.99976ZM223.521 4.99977L227.893 9.37166L232.265 4.99977L223.521 4.99977ZM162.936 136.157L224.142 74.9501L221.051 71.8587L162.314 130.595L162.314 136.157L162.936 136.157V136.157ZM162.314 124.413L217.959 68.7674L214.868 65.6759L162.314 118.23L162.314 124.413ZM162.314 112.047L211.777 62.5845L208.685 59.4931L162.314 105.864L162.314 112.047ZM162.314 99.6813L205.594 56.4017L202.502 53.3103L162.314 93.4985L162.314 99.6813ZM162.314 87.3157L199.411 50.2189L196.32 47.1275L162.314 81.1329L162.314 87.3157ZM162.314 74.9501L193.228 44.0361L190.137 40.9447L162.314 68.7673L162.314 74.9501ZM162.314 62.5845L187.045 37.8533L183.954 34.7619L162.314 56.4017L162.314 62.5845ZM162.314 50.2189L180.863 31.6706L177.771 28.5791L162.314 44.0361L162.314 50.2189ZM162.314 37.8533L174.68 25.4877L171.588 22.3964L162.314 31.6706L162.314 37.8533ZM162.314 25.4877L168.497 19.3049L165.406 16.2136L162.314 19.3049L162.314 25.4877ZM206.253 100.34L203.162 103.432L227.893 128.163L252.624 103.432L249.533 100.34L227.893 121.98L206.253 100.34ZM212.436 94.1576L209.344 97.249L227.893 115.797L246.441 97.249L243.35 94.1576L227.893 109.615L212.436 94.1576ZM218.619 87.9748L215.527 91.0662L227.893 103.432L240.258 91.0662L237.167 87.9748L227.893 97.249L218.619 87.9748ZM224.801 81.792L221.71 84.8834L227.893 91.0662L234.076 84.8834L230.984 81.792L227.893 84.8834L224.801 81.792ZM169.156 6.28025L166.065 9.37165L227.893 71.1996L289.721 9.37167L286.629 6.28026L227.893 65.0168L169.156 6.28025Z" fill="#081443"/>
</g>
<g clip-path="url(#clip22_244_155)">
<path fill-rule="evenodd" clip-rule="evenodd" d="M42.9012 136.157L41.0903 134.346L44.1817 131.254L49.084 136.157L42.9012 136.157V136.157ZM150.57 136.157L152.381 134.346L149.289 131.254L144.387 136.157L150.57 136.157V136.157ZM55.2668 136.157L47.2731 128.163L50.3645 125.072L61.4496 136.157L55.2668 136.157V136.157ZM138.204 136.157L146.198 128.163L143.106 125.072L132.021 136.157L138.204 136.157V136.157ZM67.6324 136.157L53.4559 121.98L56.5473 118.889L73.8152 136.157L67.6324 136.157V136.157ZM125.839 136.157L140.015 121.98L136.924 118.889L119.656 136.157L125.839 136.157V136.157ZM79.998 136.157L59.6387 115.797L62.7301 112.706L86.1808 136.157L79.998 136.157V136.157ZM113.473 136.157L133.832 115.797L130.741 112.706L107.29 136.157L113.473 136.157V136.157ZM92.3636 136.157L65.8215 109.615L68.9129 106.523L96.7355 134.346L124.558 106.523L127.649 109.615L101.107 136.157L92.3636 136.157V136.157ZM161.693 136.157L100.486 74.9501L103.577 71.8587L162.314 130.595L162.314 136.157L161.693 136.157V136.157ZM162.314 124.413L106.669 68.7674L109.76 65.6759L162.314 118.23L162.314 124.413V124.413ZM162.314 112.047L112.852 62.5846L115.943 59.4932L162.314 105.864L162.314 112.047V112.047ZM162.314 99.6813L119.034 56.4017L122.126 53.3104L162.314 93.4985L162.314 99.6813V99.6813ZM162.314 87.3158L125.217 50.219L128.309 47.1276L162.314 81.1329L162.314 87.3158H162.314ZM162.314 74.9501L131.4 44.0362L134.491 40.9448L162.314 68.7674L162.314 74.9501ZM162.314 62.5846L137.583 37.8534L140.674 34.762L162.314 56.4017L162.314 62.5846V62.5846ZM162.314 50.219L143.766 31.6706L146.857 28.5792L162.314 44.0362L162.314 50.219H162.314ZM162.314 37.8534L149.948 25.4878L153.04 22.3964L162.314 31.6706L162.314 37.8534V37.8534ZM162.314 25.4878L156.131 19.305L159.223 16.2136L162.314 19.305L162.314 25.4878H162.314ZM42.9012 4.99976L96.7355 58.8341L150.57 4.99977L144.387 4.99977L96.7355 52.6512L49.084 4.99976L42.9012 4.99976ZM55.2668 4.99976L96.7355 46.4684L138.204 4.99977L132.021 4.99977L96.7355 40.2857L61.4496 4.99976L55.2668 4.99976ZM67.6324 4.99976L96.7355 34.1029L125.839 4.99977L119.656 4.99977L96.7355 27.9201L73.8152 4.99976L67.6324 4.99976ZM79.998 4.99976L96.7355 21.7373L113.473 4.99977L107.29 4.99977L96.7355 15.5545L86.1808 4.99976L79.998 4.99976ZM92.3636 4.99977L96.7355 9.37166L101.107 4.99977L92.3636 4.99977ZM31.7784 136.157L92.985 74.9501L89.8936 71.8587L31.157 130.595L31.157 136.157L31.7784 136.157V136.157ZM31.157 124.413L86.8022 68.7674L83.7108 65.6759L31.157 118.23L31.157 124.413ZM31.157 112.047L80.6194 62.5845L77.528 59.4931L31.157 105.864L31.157 112.047ZM31.157 99.6813L74.4366 56.4017L71.3452 53.3103L31.157 93.4985L31.157 99.6813ZM31.157 87.3157L68.2538 50.2189L65.1624 47.1275L31.157 81.1329L31.157 87.3157ZM31.157 74.9501L62.071 44.0361L58.9796 40.9447L31.157 68.7673L31.157 74.9501ZM31.157 62.5845L55.8882 37.8533L52.7968 34.7619L31.157 56.4017L31.157 62.5845ZM31.157 50.2189L49.7054 31.6706L46.614 28.5791L31.157 44.0361L31.157 50.2189ZM31.157 37.8533L43.5226 25.4877L40.4312 22.3964L31.157 31.6706L31.157 37.8533ZM31.157 25.4877L37.3398 19.3049L34.2484 16.2136L31.157 19.3049L31.157 25.4877ZM75.0957 100.34L72.0043 103.432L96.7355 128.163L121.467 103.432L118.375 100.34L96.7355 121.98L75.0957 100.34ZM81.2785 94.1576L78.1871 97.249L96.7355 115.797L115.284 97.249L112.192 94.1576L96.7355 109.615L81.2785 94.1576ZM87.4613 87.9748L84.3699 91.0662L96.7355 103.432L109.101 91.0662L106.01 87.9748L96.7355 97.249L87.4613 87.9748ZM93.6441 81.792L90.5527 84.8834L96.7355 91.0662L102.918 84.8834L99.8269 81.792L96.7355 84.8834L93.6441 81.792ZM37.9989 6.28025L34.9075 9.37165L96.7355 71.1996L158.563 9.37167L155.472 6.28026L96.7355 65.0168L37.9989 6.28025Z" fill="#081443"/>
</g>
<g clip-path="url(#clip23_244_155)">
<path fill-rule="evenodd" clip-rule="evenodd" d="M-88.2556 136.157L-90.0665 134.346L-86.9751 131.254L-82.0727 136.157L-88.2556 136.157V136.157ZM19.413 136.157L21.2239 134.346L18.1325 131.254L13.2302 136.157L19.413 136.157V136.157ZM-75.89 136.157L-83.8837 128.163L-80.7923 125.072L-69.7072 136.157L-75.89 136.157V136.157ZM7.04743 136.157L15.0411 128.163L11.9497 125.072L0.864634 136.157L7.04743 136.157V136.157ZM-63.5244 136.157L-77.7009 121.98L-74.6095 118.889L-57.3416 136.157L-63.5244 136.157V136.157ZM-5.31816 136.157L8.85833 121.98L5.76693 118.889L-11.501 136.157L-5.31816 136.157V136.157ZM-51.1588 136.157L-71.518 115.797L-68.4267 112.706L-44.976 136.157L-51.1588 136.157V136.157ZM-17.6838 136.157L2.67554 115.797L-0.415865 112.706L-23.8666 136.157L-17.6838 136.157V136.157ZM-38.7932 136.157L-65.3353 109.615L-62.2438 106.523L-34.4213 134.346L-6.59866 106.523L-3.50726 109.615L-30.0494 136.157L-38.7932 136.157V136.157ZM30.5358 136.157L-30.6708 74.9501L-27.5794 71.8587L31.1572 130.595L31.1572 136.157L30.5358 136.157V136.157ZM31.1572 124.413L-24.488 68.7674L-21.3966 65.6759L31.1572 118.23L31.1572 124.413H31.1572ZM31.1572 112.047L-18.3052 62.5846L-15.2138 59.4932L31.1572 105.864L31.1572 112.047H31.1572ZM31.1572 99.6813L-12.1224 56.4017L-9.03096 53.3104L31.1572 93.4985L31.1572 99.6813H31.1572ZM31.1572 87.3158L-5.93956 50.219L-2.84816 47.1276L31.1572 81.1329L31.1572 87.3158H31.1572ZM31.1572 74.9501L0.243239 44.0362L3.33464 40.9448L31.1572 68.7674L31.1572 74.9501ZM31.1572 62.5846L6.42604 37.8534L9.51744 34.762L31.1572 56.4017L31.1572 62.5846H31.1572ZM31.1572 50.219L12.6088 31.6706L15.7002 28.5792L31.1572 44.0362L31.1572 50.219H31.1572ZM31.1572 37.8534L18.7916 25.4878L21.883 22.3964L31.1572 31.6706L31.1572 37.8534H31.1572ZM31.1572 25.4878L24.9744 19.305L28.0658 16.2136L31.1572 19.305L31.1572 25.4878H31.1572ZM-88.2555 4.99976L-34.4213 58.8341L19.413 4.99977L13.2302 4.99977L-34.4212 52.6512L-82.0727 4.99976L-88.2555 4.99976ZM-75.8899 4.99976L-34.4212 46.4684L7.04745 4.99977L0.864645 4.99977L-34.4212 40.2857L-69.7071 4.99976L-75.8899 4.99976ZM-63.5243 4.99976L-34.4212 34.1029L-5.31815 4.99977L-11.501 4.99977L-34.4212 27.9201L-57.3415 4.99976L-63.5243 4.99976ZM-51.1587 4.99976L-34.4212 21.7373L-17.6838 4.99977L-23.8666 4.99977L-34.4212 15.5545L-44.9759 4.99976L-51.1587 4.99976ZM-38.7931 4.99977L-34.4212 9.37166L-30.0494 4.99977L-38.7931 4.99977ZM-99.3783 136.157L-38.1718 74.9501L-41.2632 71.8587L-99.9997 130.595L-99.9997 136.157L-99.3783 136.157V136.157ZM-99.9997 124.413L-44.3545 68.7674L-47.4459 65.6759L-99.9997 118.23L-99.9997 124.413ZM-99.9997 112.047L-50.5373 62.5845L-53.6287 59.4931L-99.9997 105.864L-99.9997 112.047ZM-99.9997 99.6813L-56.7201 56.4017L-59.8115 53.3103L-99.9997 93.4985L-99.9997 99.6813ZM-99.9997 87.3157L-62.9029 50.2189L-65.9943 47.1275L-99.9997 81.1329L-99.9997 87.3157ZM-99.9997 74.9501L-69.0857 44.0361L-72.1771 40.9447L-99.9997 68.7673L-99.9997 74.9501ZM-99.9997 62.5845L-75.2685 37.8533L-78.3599 34.7619L-99.9997 56.4017L-99.9997 62.5845ZM-99.9997 50.2189L-81.4513 31.6706L-84.5427 28.5791L-99.9997 44.0361L-99.9997 50.2189ZM-99.9997 37.8533L-87.6341 25.4877L-90.7255 22.3964L-99.9997 31.6706L-99.9997 37.8533ZM-99.9997 25.4877L-93.8169 19.3049L-96.9083 16.2136L-99.9997 19.3049L-99.9997 25.4877ZM-56.0611 100.34L-59.1525 103.432L-34.4213 128.163L-9.69006 103.432L-12.7815 100.34L-34.4213 121.98L-56.0611 100.34ZM-49.8783 94.1576L-52.9697 97.249L-34.4213 115.797L-15.8729 97.249L-18.9643 94.1576L-34.4213 109.615L-49.8783 94.1576ZM-43.6955 87.9748L-46.7869 91.0662L-34.4213 103.432L-22.0557 91.0662L-25.1471 87.9748L-34.4213 97.249L-43.6955 87.9748ZM-37.5127 81.792L-40.6041 84.8834L-34.4213 91.0662L-28.2385 84.8834L-31.3299 81.792L-34.4213 84.8834L-37.5127 81.792ZM-93.1578 6.28025L-96.2492 9.37165L-34.4213 71.1996L27.4067 9.37167L24.3153 6.28026L-34.4213 65.0168L-93.1578 6.28025Z" fill="#081443"/>
</g>
</g>
<defs>
<clipPath id="clip0_244_155">
<rect width="949" height="509" fill="white"/>
</clipPath>
<clipPath id="clip1_244_155">
<rect width="131.157" height="131.157" fill="white" transform="translate(949.071 529) rotate(-180)"/>
</clipPath>
<clipPath id="clip2_244_155">
<rect width="131.157" height="131.157" fill="white" transform="translate(817.914 397.843) rotate(-180)"/>
</clipPath>
<clipPath id="clip3_244_155">
<rect width="131.157" height="131.157" fill="white" transform="translate(686.757 266.686) rotate(-180)"/>
</clipPath>
<clipPath id="clip4_244_155">
<rect width="131.157" height="131.157" fill="white" transform="translate(817.914 529) rotate(-180)"/>
</clipPath>
<clipPath id="clip5_244_155">
<rect width="131.157" height="131.157" fill="white" transform="translate(686.757 397.843) rotate(-180)"/>
</clipPath>
<clipPath id="clip6_244_155">
<rect width="131.157" height="131.157" fill="white" transform="translate(555.601 266.686) rotate(-180)"/>
</clipPath>
<clipPath id="clip7_244_155">
<rect width="131.157" height="131.157" fill="white" transform="translate(686.757 529) rotate(-180)"/>
</clipPath>
<clipPath id="clip8_244_155">
<rect width="131.157" height="131.157" fill="white" transform="translate(555.601 397.843) rotate(-180)"/>
</clipPath>
<clipPath id="clip9_244_155">
<rect width="131.157" height="131.157" fill="white" transform="translate(424.443 266.686) rotate(-180)"/>
</clipPath>
<clipPath id="clip10_244_155">
<rect width="131.157" height="131.157" fill="white" transform="translate(555.601 529) rotate(-180)"/>
</clipPath>
<clipPath id="clip11_244_155">
<rect width="131.157" height="131.157" fill="white" transform="translate(424.443 397.843) rotate(-180)"/>
</clipPath>
<clipPath id="clip12_244_155">
<rect width="131.157" height="131.157" fill="white" transform="translate(293.287 266.686) rotate(-180)"/>
</clipPath>
<clipPath id="clip13_244_155">
<rect width="131.157" height="131.157" fill="white" transform="translate(424.443 529) rotate(-180)"/>
</clipPath>
<clipPath id="clip14_244_155">
<rect width="131.157" height="131.157" fill="white" transform="translate(293.287 397.843) rotate(-180)"/>
</clipPath>
<clipPath id="clip15_244_155">
<rect width="131.157" height="131.157" fill="white" transform="translate(162.129 266.686) rotate(-180)"/>
</clipPath>
<clipPath id="clip16_244_155">
<rect width="131.157" height="131.157" fill="white" transform="translate(30.9727 266.686) rotate(-180)"/>
</clipPath>
<clipPath id="clip17_244_155">
<rect width="131.157" height="131.157" fill="white" transform="translate(293.287 529) rotate(-180)"/>
</clipPath>
<clipPath id="clip18_244_155">
<rect width="131.157" height="131.157" fill="white" transform="translate(162.129 397.843) rotate(-180)"/>
</clipPath>
<clipPath id="clip19_244_155">
<rect width="131.157" height="131.157" fill="white" transform="translate(555.785 136.157) rotate(-180)"/>
</clipPath>
<clipPath id="clip20_244_155">
<rect width="131.157" height="131.157" fill="white" transform="translate(424.628 136.157) rotate(-180)"/>
</clipPath>
<clipPath id="clip21_244_155">
<rect width="131.157" height="131.157" fill="white" transform="translate(293.471 136.157) rotate(-180)"/>
</clipPath>
<clipPath id="clip22_244_155">
<rect width="131.157" height="131.157" fill="white" transform="translate(162.314 136.157) rotate(-180)"/>
</clipPath>
<clipPath id="clip23_244_155">
<rect width="131.157" height="131.157" fill="white" transform="translate(31.1572 136.157) rotate(-180)"/>
</clipPath>
</defs>
</svg>
