<svg width="654" height="280" viewBox="0 0 654 280" fill="none" xmlns="http://www.w3.org/2000/svg">
<mask id="mask0_233_5" style="mask-type:alpha" maskUnits="userSpaceOnUse" x="0" y="0" width="654" height="280">
<rect width="654" height="280" fill="#C4C4C4"/>
</mask>
<g mask="url(#mask0_233_5)">
<path fill-rule="evenodd" clip-rule="evenodd" d="M68 140L185 140V106.194L151.194 140H143.034L185 98.0343V82.88L127.88 140H125.549L68.4286 82.88L68.4286 74.72L126.714 133.006L185 74.72V70L68 70L68 140ZM68.4286 106.194L102.234 140H110.394L68.4286 98.0343V106.194ZM126.714 71.2228L127.88 70.0571L125.549 70.0571L126.714 71.2228ZM126.714 94.5371L151.194 70.0571H143.034L126.714 86.3771L110.394 70.0571H102.234L126.714 94.5371Z" fill="#081443"/>
<path fill-rule="evenodd" clip-rule="evenodd" d="M185 140H68V173.806L101.806 140H109.966L68 181.966V197.12L125.12 140H127.451L184.571 197.12V205.28L126.286 146.994L68 205.28V210H185V140ZM184.571 173.806L150.766 140H142.606L184.571 181.966V173.806ZM126.286 208.777L125.12 209.943H127.451L126.286 208.777ZM126.286 185.463L101.806 209.943H109.966L126.286 193.623L142.606 209.943H150.766L126.286 185.463Z" fill="#081443"/>
<path fill-rule="evenodd" clip-rule="evenodd" d="M185 210H68V243.806L101.806 210H109.966L68 251.966V267.12L125.12 210H127.451L184.571 267.12V275.28L126.286 216.994L68 275.28V280H185V210ZM184.571 243.806L150.766 210H142.606L184.571 251.966V243.806ZM126.286 278.777L125.12 279.943H127.451L126.286 278.777ZM126.286 255.463L101.806 279.943H109.966L126.286 263.623L142.606 279.943H150.766L126.286 255.463Z" fill="#081443"/>
<path fill-rule="evenodd" clip-rule="evenodd" d="M-49 140L68 140V106.194L34.1943 140H26.0343L68 98.0343V82.88L10.88 140H8.54857L-48.5714 82.88L-48.5714 74.72L9.71429 133.006L68 74.72V70L-49 70L-49 140ZM-48.5714 106.194L-14.7657 140H-6.60571L-48.5714 98.0343V106.194ZM9.71429 71.2228L10.88 70.0571L8.54857 70.0571L9.71429 71.2228ZM9.71429 94.5371L34.1943 70.0571H26.0343L9.71429 86.3771L-6.60571 70.0571H-14.7657L9.71429 94.5371Z" fill="#081443"/>
<path fill-rule="evenodd" clip-rule="evenodd" d="M68 140H-49V173.806L-15.1943 140H-7.03429L-49 181.966V197.12L8.12 140H10.4514L67.5714 197.12V205.28L9.28571 146.994L-49 205.28V210H68V140ZM67.5714 173.806L33.7657 140H25.6057L67.5714 181.966V173.806ZM9.28571 208.777L8.12 209.943H10.4514L9.28571 208.777ZM9.28571 185.463L-15.1943 209.943H-7.03429L9.28571 193.623L25.6057 209.943H33.7657L9.28571 185.463Z" fill="#081443"/>
<path fill-rule="evenodd" clip-rule="evenodd" d="M68 210H-49V243.806L-15.1943 210H-7.03429L-49 251.966V267.12L8.12 210H10.4514L67.5714 267.12V275.28L9.28571 216.994L-49 275.28V280H68V210ZM67.5714 243.806L33.7657 210H25.6057L67.5714 251.966V243.806ZM9.28571 278.777L8.12 279.943H10.4514L9.28571 278.777ZM9.28571 255.463L-15.1943 279.943H-7.03429L9.28571 263.623L25.6057 279.943H33.7657L9.28571 255.463Z" fill="#081443"/>
<path fill-rule="evenodd" clip-rule="evenodd" d="M185 140L302 140V106.194L268.194 140H260.034L302 98.0343V82.88L244.88 140H242.549L185.429 82.88V74.72L243.714 133.006L302 74.72V70L185 70V140ZM185.429 106.194L219.234 140H227.394L185.429 98.0343V106.194ZM243.714 71.2228L244.88 70.0571L242.549 70.0571L243.714 71.2228ZM243.714 94.5371L268.194 70.0571H260.034L243.714 86.3771L227.394 70.0571H219.234L243.714 94.5371Z" fill="#081443"/>
<path fill-rule="evenodd" clip-rule="evenodd" d="M302 140H185V173.806L218.806 140H226.966L185 181.966V197.12L242.12 140H244.451L301.571 197.12V205.28L243.286 146.994L185 205.28V210H302V140ZM301.571 173.806L267.766 140H259.606L301.571 181.966V173.806ZM243.286 208.777L242.12 209.943H244.451L243.286 208.777ZM243.286 185.463L218.806 209.943H226.966L243.286 193.623L259.606 209.943H267.766L243.286 185.463Z" fill="#081443"/>
<path fill-rule="evenodd" clip-rule="evenodd" d="M302 210H185V243.806L218.806 210H226.966L185 251.966V267.12L242.12 210H244.451L301.571 267.12V275.28L243.286 216.994L185 275.28V280H302V210ZM301.571 243.806L267.766 210H259.606L301.571 251.966V243.806ZM243.286 278.777L242.12 279.943H244.451L243.286 278.777ZM243.286 255.463L218.806 279.943H226.966L243.286 263.623L259.606 279.943H267.766L243.286 255.463Z" fill="#081443"/>
<path fill-rule="evenodd" clip-rule="evenodd" d="M302 140L419 140V106.194L385.194 140H377.034L419 98.0343V82.88L361.88 140H359.549L302.429 82.88V74.72L360.714 133.006L419 74.72V70L302 70V140ZM302.429 106.194L336.234 140H344.394L302.429 98.0343V106.194ZM360.714 71.2228L361.88 70.0571L359.549 70.0571L360.714 71.2228ZM360.714 94.5371L385.194 70.0571H377.034L360.714 86.3771L344.394 70.0571H336.234L360.714 94.5371Z" fill="#081443"/>
<path fill-rule="evenodd" clip-rule="evenodd" d="M419 140H302V173.806L335.806 140H343.966L302 181.966V197.12L359.12 140H361.451L418.571 197.12V205.28L360.286 146.994L302 205.28V210H419V140ZM418.571 173.806L384.766 140H376.606L418.571 181.966V173.806ZM360.286 208.777L359.12 209.943H361.451L360.286 208.777ZM360.286 185.463L335.806 209.943H343.966L360.286 193.623L376.606 209.943H384.766L360.286 185.463Z" fill="#081443"/>
<path fill-rule="evenodd" clip-rule="evenodd" d="M419 210H302V243.806L335.806 210H343.966L302 251.966V267.12L359.12 210H361.451L418.571 267.12V275.28L360.286 216.994L302 275.28V280H419V210ZM418.571 243.806L384.766 210H376.606L418.571 251.966V243.806ZM360.286 278.777L359.12 279.943H361.451L360.286 278.777ZM360.286 255.463L335.806 279.943H343.966L360.286 263.623L376.606 279.943H384.766L360.286 255.463Z" fill="#081443"/>
<path fill-rule="evenodd" clip-rule="evenodd" d="M419 140L536 140V106.194L502.194 140H494.034L536 98.0343V82.88L478.88 140H476.549L419.429 82.88V74.72L477.714 133.006L536 74.72V70L419 70V140ZM419.429 106.194L453.234 140H461.394L419.429 98.0343V106.194ZM477.714 71.2228L478.88 70.0571L476.549 70.0571L477.714 71.2228ZM477.714 94.5371L502.194 70.0571H494.034L477.714 86.3771L461.394 70.0571H453.234L477.714 94.5371Z" fill="#081443"/>
<path fill-rule="evenodd" clip-rule="evenodd" d="M536 140H419V173.806L452.806 140H460.966L419 181.966V197.12L476.12 140H478.451L535.571 197.12V205.28L477.286 146.994L419 205.28V210H536V140ZM535.571 173.806L501.766 140H493.606L535.571 181.966V173.806ZM477.286 208.777L476.12 209.943H478.451L477.286 208.777ZM477.286 185.463L452.806 209.943H460.966L477.286 193.623L493.606 209.943H501.766L477.286 185.463Z" fill="#081443"/>
<path fill-rule="evenodd" clip-rule="evenodd" d="M68 70L185 70V36.1943L151.194 70H143.034L185 28.0343V12.88L127.88 70L125.549 70L68.4286 12.88L68.4286 4.71999L126.714 63.0057L185 4.71999V0L68 0L68 70ZM68.4286 36.1943L102.234 70H110.394L68.4286 28.0343V36.1943ZM126.714 1.22285L127.88 0.0571289L125.549 0.0571289L126.714 1.22285ZM126.714 24.5371L151.194 0.0571289H143.034L126.714 16.3771L110.394 0.0571289H102.234L126.714 24.5371Z" fill="#081443"/>
<path fill-rule="evenodd" clip-rule="evenodd" d="M185 70L302 70V36.1943L268.194 70H260.034L302 28.0343V12.88L244.88 70L242.549 70L185.429 12.88V4.71999L243.714 63.0057L302 4.71999V0L185 0V70ZM185.429 36.1943L219.234 70H227.394L185.429 28.0343V36.1943ZM243.714 1.22285L244.88 0.0571289L242.549 0.0571289L243.714 1.22285ZM243.714 24.5371L268.194 0.0571289H260.034L243.714 16.3771L227.394 0.0571289H219.234L243.714 24.5371Z" fill="#081443"/>
<path fill-rule="evenodd" clip-rule="evenodd" d="M302 70L419 70V36.1943L385.194 70H377.034L419 28.0343V12.88L361.88 70L359.549 70L302.429 12.88V4.71999L360.714 63.0057L419 4.71999V0L302 0V70ZM302.429 36.1943L336.234 70H344.394L302.429 28.0343V36.1943ZM360.714 1.22285L361.88 0.0571289L359.549 0.0571289L360.714 1.22285ZM360.714 24.5371L385.194 0.0571289H377.034L360.714 16.3771L344.394 0.0571289H336.234L360.714 24.5371Z" fill="#081443"/>
<path fill-rule="evenodd" clip-rule="evenodd" d="M419 70L536 70V36.1943L502.194 70H494.034L536 28.0343V12.88L478.88 70L476.549 70L419.429 12.88V4.71999L477.714 63.0057L536 4.71999V0L419 0V70ZM419.429 36.1943L453.234 70H461.394L419.429 28.0343V36.1943ZM477.714 1.22285L478.88 0.0571289L476.549 0.0571289L477.714 1.22285ZM477.714 24.5371L502.194 0.0571289H494.034L477.714 16.3771L461.394 0.0571289H453.234L477.714 24.5371Z" fill="#081443"/>
<path fill-rule="evenodd" clip-rule="evenodd" d="M536 70L653 70V36.1943L619.194 70H611.034L653 28.0343V12.88L595.88 70L593.549 70L536.429 12.88V4.71999L594.714 63.0057L653 4.71999V0L536 0V70ZM536.429 36.1943L570.234 70H578.394L536.429 28.0343V36.1943ZM594.714 1.22285L595.88 0.0571289L593.549 0.0571289L594.714 1.22285ZM594.714 24.5371L619.194 0.0571289H611.034L594.714 16.3771L578.394 0.0571289H570.234L594.714 24.5371Z" fill="#081443"/>
</g>
</svg>
