<svg id="visual" viewBox="0 0 900 600" width="900" height="600" xmlns="http://www.w3.org/2000/svg" xmlns:xlink="http://www.w3.org/1999/xlink" version="1.1"><rect x="0" y="0" width="900" height="600" fill="#001220"></rect><path d="M523 600L525.7 585.7C528.3 571.3 533.7 542.7 535 514.2C536.3 485.7 533.7 457.3 528.3 428.8C523 400.3 515 371.7 516.8 343C518.7 314.3 530.3 285.7 540.3 257C550.3 228.3 558.7 199.7 563.7 171.2C568.7 142.7 570.3 114.3 570.5 85.8C570.7 57.3 569.3 28.7 568.7 14.3L568 0L900 0L900 14.3C900 28.7 900 57.3 900 85.8C900 114.3 900 142.7 900 171.2C900 199.7 900 228.3 900 257C900 285.7 900 314.3 900 343C900 371.7 900 400.3 900 428.8C900 457.3 900 485.7 900 514.2C900 542.7 900 571.3 900 585.7L900 600Z" fill="#4389a2"></path><path d="M585 600L575.2 585.7C565.3 571.3 545.7 542.7 533.3 514.2C521 485.7 516 457.3 528.7 428.8C541.3 400.3 571.7 371.7 576.5 343C581.3 314.3 560.7 285.7 561.7 257C562.7 228.3 585.3 199.7 583.8 171.2C582.3 142.7 556.7 114.3 544.2 85.8C531.7 57.3 532.3 28.7 532.7 14.3L533 0L900 0L900 14.3C900 28.7 900 57.3 900 85.8C900 114.3 900 142.7 900 171.2C900 199.7 900 228.3 900 257C900 285.7 900 314.3 900 343C900 371.7 900 400.3 900 428.8C900 457.3 900 485.7 900 514.2C900 542.7 900 571.3 900 585.7L900 600Z" fill="#2b81a5"></path><path d="M651 600L645.5 585.7C640 571.3 629 542.7 620.8 514.2C612.7 485.7 607.3 457.3 596.2 428.8C585 400.3 568 371.7 572.8 343C577.7 314.3 604.3 285.7 616.3 257C628.3 228.3 625.7 199.7 625.2 171.2C624.7 142.7 626.3 114.3 615.8 85.8C605.3 57.3 582.7 28.7 571.3 14.3L560 0L900 0L900 14.3C900 28.7 900 57.3 900 85.8C900 114.3 900 142.7 900 171.2C900 199.7 900 228.3 900 257C900 285.7 900 314.3 900 343C900 371.7 900 400.3 900 428.8C900 457.3 900 485.7 900 514.2C900 542.7 900 571.3 900 585.7L900 600Z" fill="#0d78a8"></path><path d="M674 600L666.5 585.7C659 571.3 644 542.7 635 514.2C626 485.7 623 457.3 631.5 428.8C640 400.3 660 371.7 668.7 343C677.3 314.3 674.7 285.7 667.5 257C660.3 228.3 648.7 199.7 636.2 171.2C623.7 142.7 610.3 114.3 605.8 85.8C601.3 57.3 605.7 28.7 607.8 14.3L610 0L900 0L900 14.3C900 28.7 900 57.3 900 85.8C900 114.3 900 142.7 900 171.2C900 199.7 900 228.3 900 257C900 285.7 900 314.3 900 343C900 371.7 900 400.3 900 428.8C900 457.3 900 485.7 900 514.2C900 542.7 900 571.3 900 585.7L900 600Z" fill="#006eaa"></path><path d="M686 600L690.7 585.7C695.3 571.3 704.7 542.7 709.2 514.2C713.7 485.7 713.3 457.3 702 428.8C690.7 400.3 668.3 371.7 664.5 343C660.7 314.3 675.3 285.7 684.3 257C693.3 228.3 696.7 199.7 699.8 171.2C703 142.7 706 114.3 710 85.8C714 57.3 719 28.7 721.5 14.3L724 0L900 0L900 14.3C900 28.7 900 57.3 900 85.8C900 114.3 900 142.7 900 171.2C900 199.7 900 228.3 900 257C900 285.7 900 314.3 900 343C900 371.7 900 400.3 900 428.8C900 457.3 900 485.7 900 514.2C900 542.7 900 571.3 900 585.7L900 600Z" fill="#0063aa"></path><path d="M757 600L751.3 585.7C745.7 571.3 734.3 542.7 723.5 514.2C712.7 485.7 702.3 457.3 700.3 428.8C698.3 400.3 704.7 371.7 710.8 343C717 314.3 723 285.7 724.2 257C725.3 228.3 721.7 199.7 718.3 171.2C715 142.7 712 114.3 711.3 85.8C710.7 57.3 712.3 28.7 713.2 14.3L714 0L900 0L900 14.3C900 28.7 900 57.3 900 85.8C900 114.3 900 142.7 900 171.2C900 199.7 900 228.3 900 257C900 285.7 900 314.3 900 343C900 371.7 900 400.3 900 428.8C900 457.3 900 485.7 900 514.2C900 542.7 900 571.3 900 585.7L900 600Z" fill="#1f57a8"></path><path d="M766 600L762.2 585.7C758.3 571.3 750.7 542.7 752.8 514.2C755 485.7 767 457.3 769 428.8C771 400.3 763 371.7 757 343C751 314.3 747 285.7 746.3 257C745.7 228.3 748.3 199.7 754.2 171.2C760 142.7 769 114.3 767.3 85.8C765.7 57.3 753.3 28.7 747.2 14.3L741 0L900 0L900 14.3C900 28.7 900 57.3 900 85.8C900 114.3 900 142.7 900 171.2C900 199.7 900 228.3 900 257C900 285.7 900 314.3 900 343C900 371.7 900 400.3 900 428.8C900 457.3 900 485.7 900 514.2C900 542.7 900 571.3 900 585.7L900 600Z" fill="#364aa2"></path><path d="M812 600L811.5 585.7C811 571.3 810 542.7 810.3 514.2C810.7 485.7 812.3 457.3 814.2 428.8C816 400.3 818 371.7 813.3 343C808.7 314.3 797.3 285.7 790.8 257C784.3 228.3 782.7 199.7 788.3 171.2C794 142.7 807 114.3 808.2 85.8C809.3 57.3 798.7 28.7 793.3 14.3L788 0L900 0L900 14.3C900 28.7 900 57.3 900 85.8C900 114.3 900 142.7 900 171.2C900 199.7 900 228.3 900 257C900 285.7 900 314.3 900 343C900 371.7 900 400.3 900 428.8C900 457.3 900 485.7 900 514.2C900 542.7 900 571.3 900 585.7L900 600Z" fill="#4b3a9a"></path><path d="M847 600L849.3 585.7C851.7 571.3 856.3 542.7 859 514.2C861.7 485.7 862.3 457.3 862.3 428.8C862.3 400.3 861.7 371.7 860.2 343C858.7 314.3 856.3 285.7 852 257C847.7 228.3 841.3 199.7 838.5 171.2C835.7 142.7 836.3 114.3 839.5 85.8C842.7 57.3 848.3 28.7 851.2 14.3L854 0L900 0L900 14.3C900 28.7 900 57.3 900 85.8C900 114.3 900 142.7 900 171.2C900 199.7 900 228.3 900 257C900 285.7 900 314.3 900 343C900 371.7 900 400.3 900 428.8C900 457.3 900 485.7 900 514.2C900 542.7 900 571.3 900 585.7L900 600Z" fill="#5c258d"></path></svg>