<svg id="visual" viewBox="0 0 900 600" width="900" height="600" xmlns="http://www.w3.org/2000/svg" xmlns:xlink="http://www.w3.org/1999/xlink" version="1.1"><rect x="0" y="0" width="900" height="600" fill="#001220"></rect><path d="M359 0L363 14.3C367 28.7 375 57.3 374 85.8C373 114.3 363 142.7 350.3 171.2C337.7 199.7 322.3 228.3 324.3 257C326.3 285.7 345.7 314.3 353 343C360.3 371.7 355.7 400.3 350.2 428.8C344.7 457.3 338.3 485.7 337.8 514.2C337.3 542.7 342.7 571.3 345.3 585.7L348 600L0 600L0 585.7C0 571.3 0 542.7 0 514.2C0 485.7 0 457.3 0 428.8C0 400.3 0 371.7 0 343C0 314.3 0 285.7 0 257C0 228.3 0 199.7 0 171.2C0 142.7 0 114.3 0 85.8C0 57.3 0 28.7 0 14.3L0 0Z" fill="#068aa3"></path><path d="M293 0L298 14.3C303 28.7 313 57.3 317.5 85.8C322 114.3 321 142.7 322.5 171.2C324 199.7 328 228.3 324.8 257C321.7 285.7 311.3 314.3 311.8 343C312.3 371.7 323.7 400.3 329.5 428.8C335.3 457.3 335.7 485.7 324 514.2C312.3 542.7 288.7 571.3 276.8 585.7L265 600L0 600L0 585.7C0 571.3 0 542.7 0 514.2C0 485.7 0 457.3 0 428.8C0 400.3 0 371.7 0 343C0 314.3 0 285.7 0 257C0 228.3 0 199.7 0 171.2C0 142.7 0 114.3 0 85.8C0 57.3 0 28.7 0 14.3L0 0Z" fill="#0080ae"></path><path d="M230 0L235.3 14.3C240.7 28.7 251.3 57.3 253.8 85.8C256.3 114.3 250.7 142.7 249.3 171.2C248 199.7 251 228.3 252.7 257C254.3 285.7 254.7 314.3 254.2 343C253.7 371.7 252.3 400.3 246.2 428.8C240 457.3 229 485.7 232.2 514.2C235.3 542.7 252.7 571.3 261.3 585.7L270 600L0 600L0 585.7C0 571.3 0 542.7 0 514.2C0 485.7 0 457.3 0 428.8C0 400.3 0 371.7 0 343C0 314.3 0 285.7 0 257C0 228.3 0 199.7 0 171.2C0 142.7 0 114.3 0 85.8C0 57.3 0 28.7 0 14.3L0 0Z" fill="#0073b6"></path><path d="M202 0L202.5 14.3C203 28.7 204 57.3 206.3 85.8C208.7 114.3 212.3 142.7 211.8 171.2C211.3 199.7 206.7 228.3 199.8 257C193 285.7 184 314.3 183 343C182 371.7 189 400.3 195 428.8C201 457.3 206 485.7 204.7 514.2C203.3 542.7 195.7 571.3 191.8 585.7L188 600L0 600L0 585.7C0 571.3 0 542.7 0 514.2C0 485.7 0 457.3 0 428.8C0 400.3 0 371.7 0 343C0 314.3 0 285.7 0 257C0 228.3 0 199.7 0 171.2C0 142.7 0 114.3 0 85.8C0 57.3 0 28.7 0 14.3L0 0Z" fill="#0063b7"></path><path d="M125 0L131.8 14.3C138.7 28.7 152.3 57.3 161.5 85.8C170.7 114.3 175.3 142.7 174.3 171.2C173.3 199.7 166.7 228.3 166.7 257C166.7 285.7 173.3 314.3 171.2 343C169 371.7 158 400.3 156.5 428.8C155 457.3 163 485.7 166.7 514.2C170.3 542.7 169.7 571.3 169.3 585.7L169 600L0 600L0 585.7C0 571.3 0 542.7 0 514.2C0 485.7 0 457.3 0 428.8C0 400.3 0 371.7 0 343C0 314.3 0 285.7 0 257C0 228.3 0 199.7 0 171.2C0 142.7 0 114.3 0 85.8C0 57.3 0 28.7 0 14.3L0 0Z" fill="#344fb1"></path><path d="M98 0L98 14.3C98 28.7 98 57.3 96 85.8C94 114.3 90 142.7 87.2 171.2C84.3 199.7 82.7 228.3 85.5 257C88.3 285.7 95.7 314.3 97.5 343C99.3 371.7 95.7 400.3 92.7 428.8C89.7 457.3 87.3 485.7 90.2 514.2C93 542.7 101 571.3 105 585.7L109 600L0 600L0 585.7C0 571.3 0 542.7 0 514.2C0 485.7 0 457.3 0 428.8C0 400.3 0 371.7 0 343C0 314.3 0 285.7 0 257C0 228.3 0 199.7 0 171.2C0 142.7 0 114.3 0 85.8C0 57.3 0 28.7 0 14.3L0 0Z" fill="#5436a4"></path><path d="M35 0L37.3 14.3C39.7 28.7 44.3 57.3 45.5 85.8C46.7 114.3 44.3 142.7 43.7 171.2C43 199.7 44 228.3 44 257C44 285.7 43 314.3 47.3 343C51.7 371.7 61.3 400.3 66.2 428.8C71 457.3 71 485.7 69.5 514.2C68 542.7 65 571.3 63.5 585.7L62 600L0 600L0 585.7C0 571.3 0 542.7 0 514.2C0 485.7 0 457.3 0 428.8C0 400.3 0 371.7 0 343C0 314.3 0 285.7 0 257C0 228.3 0 199.7 0 171.2C0 142.7 0 114.3 0 85.8C0 57.3 0 28.7 0 14.3L0 0Z" fill="#6e008e"></path></svg>